0
SECTION
2
HEADER
9
$INSUNITS
70
4
0
ENDSEC
0
SECTION
2
TABLES
0
TABLE
2
LTYPE
0
LTYPE
72
65
70
64
2
CONTINUOUS
3
______
73
0
40
0
0
ENDTAB
0
TABLE
2
LAYER
0
ENDTAB
0
ENDSEC
0
SECTION
2
ENTITIES
0
LINE
8
front_outsideCutPath
10
0
20
73
11
0
21
67.25
0
LINE
8
front_outsideCutPath
10
0
20
67.25
11
2
21
67.25
0
LINE
8
front_outsideCutPath
10
2
20
67.25
11
2
21
60.75
0
LINE
8
front_outsideCutPath
10
2
20
60.75
11
0
21
60.75
0
LINE
8
front_outsideCutPath
10
0
20
60.75
11
0
21
54.25
0
LINE
8
front_outsideCutPath
10
0
20
54.25
11
2
21
54.25
0
LINE
8
front_outsideCutPath
10
2
20
54.25
11
2
21
47.75
0
LINE
8
front_outsideCutPath
10
2
20
47.75
11
0
21
47.75
0
LINE
8
front_outsideCutPath
10
0
20
47.75
11
0
21
41.25
0
LINE
8
front_outsideCutPath
10
0
20
41.25
11
2
21
41.25
0
LINE
8
front_outsideCutPath
10
2
20
41.25
11
2
21
34.75
0
LINE
8
front_outsideCutPath
10
2
20
34.75
11
0
21
34.75
0
LINE
8
front_outsideCutPath
10
0
20
34.75
11
0
21
28.25
0
LINE
8
front_outsideCutPath
10
0
20
28.25
11
2
21
28.25
0
LINE
8
front_outsideCutPath
10
2
20
28.25
11
2
21
21.75
0
LINE
8
front_outsideCutPath
10
2
20
21.75
11
0
21
21.75
0
LINE
8
front_outsideCutPath
10
0
20
21.75
11
0
21
15.25
0
LINE
8
front_outsideCutPath
10
0
20
15.25
11
2
21
15.25
0
LINE
8
front_outsideCutPath
10
2
20
15.25
11
2
21
8.75
0
LINE
8
front_outsideCutPath
10
2
20
8.75
11
0
21
8.75
0
LINE
8
front_outsideCutPath
10
0
20
8.75
11
0
21
3
0
LINE
8
front_outsideCutPath
10
0
20
3
11
11.75
21
3
0
LINE
8
front_outsideCutPath
10
11.75
20
3
11
11.75
21
5
0
LINE
8
front_outsideCutPath
10
11.75
20
5
11
18.25
21
5
0
LINE
8
front_outsideCutPath
10
18.25
20
5
11
18.25
21
3
0
LINE
8
front_outsideCutPath
10
18.25
20
3
11
24.75
21
3
0
LINE
8
front_outsideCutPath
10
24.75
20
3
11
24.75
21
5
0
LINE
8
front_outsideCutPath
10
24.75
20
5
11
31.25
21
5
0
LINE
8
front_outsideCutPath
10
31.25
20
5
11
31.25
21
3
0
LINE
8
front_outsideCutPath
10
31.25
20
3
11
37.75
21
3
0
LINE
8
front_outsideCutPath
10
37.75
20
3
11
37.75
21
5
0
LINE
8
front_outsideCutPath
10
37.75
20
5
11
44.25
21
5
0
LINE
8
front_outsideCutPath
10
44.25
20
5
11
44.25
21
3
0
LINE
8
front_outsideCutPath
10
44.25
20
3
11
50.75
21
3
0
LINE
8
front_outsideCutPath
10
50.75
20
3
11
50.75
21
5
0
LINE
8
front_outsideCutPath
10
50.75
20
5
11
57.25
21
5
0
LINE
8
front_outsideCutPath
10
57.25
20
5
11
57.25
21
3
0
LINE
8
front_outsideCutPath
10
57.25
20
3
11
63.75
21
3
0
LINE
8
front_outsideCutPath
10
63.75
20
3
11
63.75
21
5
0
LINE
8
front_outsideCutPath
10
63.75
20
5
11
70.25
21
5
0
LINE
8
front_outsideCutPath
10
70.25
20
5
11
70.25
21
3
0
LINE
8
front_outsideCutPath
10
70.25
20
3
11
76.75
21
3
0
LINE
8
front_outsideCutPath
10
76.75
20
3
11
76.75
21
5
0
LINE
8
front_outsideCutPath
10
76.75
20
5
11
83.25
21
5
0
LINE
8
front_outsideCutPath
10
83.25
20
5
11
83.25
21
3
0
LINE
8
front_outsideCutPath
10
83.25
20
3
11
89.75
21
3
0
LINE
8
front_outsideCutPath
10
89.75
20
3
11
89.75
21
5
0
LINE
8
front_outsideCutPath
10
89.75
20
5
11
96.25
21
5
0
LINE
8
front_outsideCutPath
10
96.25
20
5
11
96.25
21
3
0
LINE
8
front_outsideCutPath
10
96.25
20
3
11
102.75
21
3
0
LINE
8
front_outsideCutPath
10
102.75
20
3
11
102.75
21
5
0
LINE
8
front_outsideCutPath
10
102.75
20
5
11
109.25
21
5
0
LINE
8
front_outsideCutPath
10
109.25
20
5
11
109.25
21
3
0
LINE
8
front_outsideCutPath
10
109.25
20
3
11
115.75
21
3
0
LINE
8
front_outsideCutPath
10
115.75
20
3
11
115.75
21
5
0
LINE
8
front_outsideCutPath
10
115.75
20
5
11
122.25
21
5
0
LINE
8
front_outsideCutPath
10
122.25
20
5
11
122.25
21
3
0
LINE
8
front_outsideCutPath
10
122.25
20
3
11
128.75
21
3
0
LINE
8
front_outsideCutPath
10
128.75
20
3
11
128.75
21
5
0
LINE
8
front_outsideCutPath
10
128.75
20
5
11
135.25
21
5
0
LINE
8
front_outsideCutPath
10
135.25
20
5
11
135.25
21
3
0
LINE
8
front_outsideCutPath
10
135.25
20
3
11
141.75
21
3
0
LINE
8
front_outsideCutPath
10
141.75
20
3
11
141.75
21
5
0
LINE
8
front_outsideCutPath
10
141.75
20
5
11
148.25
21
5
0
LINE
8
front_outsideCutPath
10
148.25
20
5
11
148.25
21
3
0
LINE
8
front_outsideCutPath
10
148.25
20
3
11
154.75
21
3
0
LINE
8
front_outsideCutPath
10
154.75
20
3
11
160
21
3
0
LINE
8
front_outsideCutPath
10
160
20
3
11
160
21
8.75
0
LINE
8
front_outsideCutPath
10
160
20
8.75
11
158
21
8.75
0
LINE
8
front_outsideCutPath
10
158
20
8.75
11
158
21
15.25
0
LINE
8
front_outsideCutPath
10
158
20
15.25
11
160
21
15.25
0
LINE
8
front_outsideCutPath
10
160
20
15.25
11
160
21
21.75
0
LINE
8
front_outsideCutPath
10
160
20
21.75
11
158
21
21.75
0
LINE
8
front_outsideCutPath
10
158
20
21.75
11
158
21
28.25
0
LINE
8
front_outsideCutPath
10
158
20
28.25
11
160
21
28.25
0
LINE
8
front_outsideCutPath
10
160
20
28.25
11
160
21
34.75
0
LINE
8
front_outsideCutPath
10
160
20
34.75
11
158
21
34.75
0
LINE
8
front_outsideCutPath
10
158
20
34.75
11
158
21
41.25
0
LINE
8
front_outsideCutPath
10
158
20
41.25
11
160
21
41.25
0
LINE
8
front_outsideCutPath
10
160
20
41.25
11
160
21
47.75
0
LINE
8
front_outsideCutPath
10
160
20
47.75
11
158
21
47.75
0
LINE
8
front_outsideCutPath
10
158
20
47.75
11
158
21
54.25
0
LINE
8
front_outsideCutPath
10
158
20
54.25
11
160
21
54.25
0
LINE
8
front_outsideCutPath
10
160
20
54.25
11
160
21
60.75
0
LINE
8
front_outsideCutPath
10
160
20
60.75
11
158
21
60.75
0
LINE
8
front_outsideCutPath
10
158
20
60.75
11
158
21
67.25
0
LINE
8
front_outsideCutPath
10
158
20
67.25
11
160
21
67.25
0
LINE
8
front_outsideCutPath
10
160
20
67.25
11
160
21
73
0
LINE
8
front_outsideCutPath
10
160
20
73
11
148.25
21
73
0
LINE
8
front_outsideCutPath
10
148.25
20
73
11
148.25
21
71
0
LINE
8
front_outsideCutPath
10
148.25
20
71
11
141.75
21
71
0
LINE
8
front_outsideCutPath
10
141.75
20
71
11
141.75
21
73
0
LINE
8
front_outsideCutPath
10
141.75
20
73
11
135.25
21
73
0
LINE
8
front_outsideCutPath
10
135.25
20
73
11
135.25
21
71
0
LINE
8
front_outsideCutPath
10
135.25
20
71
11
128.75
21
71
0
LINE
8
front_outsideCutPath
10
128.75
20
71
11
128.75
21
73
0
LINE
8
front_outsideCutPath
10
128.75
20
73
11
122.25
21
73
0
LINE
8
front_outsideCutPath
10
122.25
20
73
11
122.25
21
71
0
LINE
8
front_outsideCutPath
10
122.25
20
71
11
115.75
21
71
0
LINE
8
front_outsideCutPath
10
115.75
20
71
11
115.75
21
73
0
LINE
8
front_outsideCutPath
10
115.75
20
73
11
109.25
21
73
0
LINE
8
front_outsideCutPath
10
109.25
20
73
11
109.25
21
71
0
LINE
8
front_outsideCutPath
10
109.25
20
71
11
102.75
21
71
0
LINE
8
front_outsideCutPath
10
102.75
20
71
11
102.75
21
73
0
LINE
8
front_outsideCutPath
10
102.75
20
73
11
96.25
21
73
0
LINE
8
front_outsideCutPath
10
96.25
20
73
11
96.25
21
71
0
LINE
8
front_outsideCutPath
10
96.25
20
71
11
89.75
21
71
0
LINE
8
front_outsideCutPath
10
89.75
20
71
11
89.75
21
73
0
LINE
8
front_outsideCutPath
10
89.75
20
73
11
83.25
21
73
0
LINE
8
front_outsideCutPath
10
83.25
20
73
11
83.25
21
71
0
LINE
8
front_outsideCutPath
10
83.25
20
71
11
76.75
21
71
0
LINE
8
front_outsideCutPath
10
76.75
20
71
11
76.75
21
73
0
LINE
8
front_outsideCutPath
10
76.75
20
73
11
70.25
21
73
0
LINE
8
front_outsideCutPath
10
70.25
20
73
11
70.25
21
71
0
LINE
8
front_outsideCutPath
10
70.25
20
71
11
63.75
21
71
0
LINE
8
front_outsideCutPath
10
63.75
20
71
11
63.75
21
73
0
LINE
8
front_outsideCutPath
10
63.75
20
73
11
57.25
21
73
0
LINE
8
front_outsideCutPath
10
57.25
20
73
11
57.25
21
71
0
LINE
8
front_outsideCutPath
10
57.25
20
71
11
50.75
21
71
0
LINE
8
front_outsideCutPath
10
50.75
20
71
11
50.75
21
73
0
LINE
8
front_outsideCutPath
10
50.75
20
73
11
44.25
21
73
0
LINE
8
front_outsideCutPath
10
44.25
20
73
11
44.25
21
71
0
LINE
8
front_outsideCutPath
10
44.25
20
71
11
37.75
21
71
0
LINE
8
front_outsideCutPath
10
37.75
20
71
11
37.75
21
73
0
LINE
8
front_outsideCutPath
10
37.75
20
73
11
31.25
21
73
0
LINE
8
front_outsideCutPath
10
31.25
20
73
11
31.25
21
71
0
LINE
8
front_outsideCutPath
10
31.25
20
71
11
24.75
21
71
0
LINE
8
front_outsideCutPath
10
24.75
20
71
11
24.75
21
73
0
LINE
8
front_outsideCutPath
10
24.75
20
73
11
18.25
21
73
0
LINE
8
front_outsideCutPath
10
18.25
20
73
11
18.25
21
71
0
LINE
8
front_outsideCutPath
10
18.25
20
71
11
11.75
21
71
0
LINE
8
front_outsideCutPath
10
11.75
20
71
11
11.75
21
73
0
LINE
8
front_outsideCutPath
10
11.75
20
73
11
5.25
21
73
0
LINE
8
front_outsideCutPath
10
5.25
20
73
11
0
21
73
0
LINE
8
front_labelLayer
10
68.402832
20
40.204738
11
68.402832
21
39.3229021
0
LINE
8
front_labelLayer
10
68.402832
20
39.3229021
11
66.4956054
21
39.3229021
0
LINE
8
front_labelLayer
10
66.4956054
20
39.3229021
11
66.4956054
21
32.7125505
0
LINE
8
front_labelLayer
10
66.4956054
20
32.7125505
11
65.3608398
21
32.7125505
0
LINE
8
front_labelLayer
10
65.3608398
20
32.7125505
11
65.3608398
21
39.3229021
0
LINE
8
front_labelLayer
10
65.3608398
20
39.3229021
11
64.0209961
21
39.3229021
0
LINE
8
front_labelLayer
10
64.0209961
20
39.3229021
11
64.0209961
21
39.8355974
0
LINE
8
front_labelLayer
10
64.0209961
20
39.8355974
11
65.3608398
21
40.2457537
0
LINE
8
front_labelLayer
10
65.3608398
20
40.2457537
11
65.3608398
21
40.6627458
0
LINE
8
front_labelLayer
10
69.168457
20
43.1852068
11
68.8745117
21
42.2760271
0
LINE
8
front_labelLayer
10
66.4956054
20
40.6900896
11
66.4956054
21
40.204738
0
LINE
8
front_labelLayer
10
66.4956054
20
40.204738
11
68.402832
21
40.204738
0
ARC
8
front_labelLayer
10
69.9596562
20
40.7156153
40
4.5991203
50
167.5776087
51
180.6586619
0
ARC
8
front_labelLayer
10
67.7969941
20
41.2198223
40
2.3787816
50
141.7433856
51
168.2322179
0
ARC
8
front_labelLayer
10
67.4448712
20
41.4036041
40
1.9898496
50
98.2551562
51
139.6203409
0
ARC
8
front_labelLayer
10
67.7540403
20
39.9753719
40
3.4491501
50
89.6696689
51
99.9314626
0
ARC
8
front_labelLayer
10
67.7549024
20
39.7703003
40
3.6542138
50
81.5640841
51
89.7017242
0
ARC
8
front_labelLayer
10
67.4980066
20
37.978047
40
5.4647706
50
75.9739939
51
81.6564835
0
ARC
8
front_labelLayer
10
67.0571156
20
36.1493399
40
7.3458279
50
73.2964127
51
76.0946049
0
ARC
8
front_labelLayer
10
67.1681873
20
37.0365469
40
5.5103263
50
71.9612942
51
76.5918413
0
ARC
8
front_labelLayer
10
67.5956745
20
38.8499937
40
3.6471833
50
76.5183428
51
83.0216867
0
ARC
8
front_labelLayer
10
67.7445897
20
40.0475626
40
2.4403946
50
83.0760388
51
89.792729
0
ARC
8
front_labelLayer
10
67.739687
20
40.9576468
40
1.5303559
50
89.485912
51
103.4197276
0
ARC
8
front_labelLayer
10
67.6017144
20
41.4877239
40
0.9827945
50
102.7677244
51
144.3380364
0
ARC
8
front_labelLayer
10
67.8796687
20
41.3088854
40
1.3129943
50
145.0688437
51
162.1802081
0
ARC
8
front_labelLayer
10
68.8327016
20
40.9882373
40
2.3184702
50
161.8437796
51
171.7846758
0
ARC
8
front_labelLayer
10
70.3870931
20
40.7547735
40
3.8902815
50
171.6527826
51
178.4383421
0
ARC
8
front_labelLayer
10
71.8530572
20
40.6922562
40
5.3574523
50
178.1972574
51
180.0231708
0
LINE
8
front_labelLayer
10
74.0834961
20
40.2594255
11
73.9262695
21
39.2066912
0
LINE
8
front_labelLayer
10
70.9047851
20
36.7320818
11
70.9047851
21
32.7125505
0
LINE
8
front_labelLayer
10
70.9047851
20
32.7125505
11
69.7700195
21
32.7125505
0
LINE
8
front_labelLayer
10
69.7700195
20
32.7125505
11
69.7700195
21
40.204738
0
LINE
8
front_labelLayer
10
69.7700195
20
40.204738
11
70.7065429
21
40.204738
0
LINE
8
front_labelLayer
10
70.7065429
20
40.204738
11
70.8364258
21
38.8170427
0
LINE
8
front_labelLayer
10
70.8364258
20
38.8170427
11
70.8911133
21
38.8170427
0
ARC
8
front_labelLayer
10
73.1996357
20
35.1319501
40
5.2095197
50
84.9922805
51
90.1281026
0
ARC
8
front_labelLayer
10
73.3247434
20
36.533628
40
3.8022721
50
78.4892118
51
85.0266028
0
ARC
8
front_labelLayer
10
72.8391692
20
34.3251368
40
5.0011359
50
77.4453531
51
81.6360748
0
ARC
8
front_labelLayer
10
73.0570458
20
35.8269503
40
3.4836043
50
81.5884637
51
87.1916172
0
ARC
8
front_labelLayer
10
73.1043813
20
36.6478119
40
2.6614187
50
87.343603
51
89.9660771
0
ARC
8
front_labelLayer
10
73.0933815
20
37.3430573
40
1.9662132
50
89.633545
51
137.0880786
0
ARC
8
front_labelLayer
10
73.575928
20
36.8004192
40
2.6899805
50
135.6208846
51
138.8376967
0
ARC
8
front_labelLayer
10
73.5052171
20
36.869441
40
2.5913218
50
138.9575682
51
174.5422324
0
ARC
8
front_labelLayer
10
74.3491642
20
36.7373886
40
3.4443831
50
173.690773
51
180.088276
0
ARC
8
front_labelLayer
10
74.2298458
20
36.9360152
40
3.8321533
50
139.4139569
51
150.6032769
0
ARC
8
front_labelLayer
10
73.5427312
20
37.5247975
40
2.9272825
50
124.2321503
51
139.4161004
0
ARC
8
front_labelLayer
10
73.1753407
20
38.0793711
40
2.2621209
50
89.6796558
51
124.440558
0
ARC
8
front_labelLayer
10
76.0902693
20
36.4259637
40
5.861524
50
349.1761909
51
0.3862729
0
ARC
8
front_labelLayer
10
78.063702
20
36.0325559
40
3.8493546
50
330.2507088
51
349.4116471
0
ARC
8
front_labelLayer
10
78.6710189
20
35.716898
40
3.1655655
50
318.1440001
51
329.7566115
0
ARC
8
front_labelLayer
10
78.7806406
20
35.6290484
40
3.0253078
50
278.8959153
51
317.9979093
0
ARC
8
front_labelLayer
10
78.4982072
20
36.9822161
40
4.4064263
50
269.7503032
51
279.8033163
0
ARC
8
front_labelLayer
10
78.4524035
20
36.219787
40
3.6440523
50
253.5436996
51
270.4182448
0
ARC
8
front_labelLayer
10
78.3310999
20
35.7505544
40
3.1597214
50
238.8115596
51
253.2428403
0
ARC
8
front_labelLayer
10
78.2919511
20
35.6718258
40
3.0721068
50
207.7946966
51
238.6757966
0
ARC
8
front_labelLayer
10
78.8539165
20
36.0159834
40
3.7299584
50
205.6561277
51
208.4460612
0
ARC
8
front_labelLayer
10
79.2864003
20
36.196163
40
4.1978887
50
188.9102454
51
205.3171387
0
ARC
8
front_labelLayer
10
80.7446186
20
36.4431364
40
5.6767915
50
179.774483
51
189.0932695
0
ARC
8
front_labelLayer
10
80.9597066
20
36.5053876
40
5.8919707
50
169.2442972
51
180.3880773
0
ARC
8
front_labelLayer
10
78.9588367
20
36.9008877
40
3.8524732
50
150.7111458
51
169.4695545
0
ARC
8
front_labelLayer
10
78.3201011
20
37.2289028
40
3.1350326
50
138.1759582
51
150.2287544
0
ARC
8
front_labelLayer
10
78.2138513
20
37.3104354
40
3.0015028
50
99.1759372
51
137.9832667
0
ARC
8
front_labelLayer
10
78.5062901
20
35.9341825
40
4.4073224
50
89.732647
51
100.0759761
0
ARC
8
front_labelLayer
10
78.564738
20
36.5285447
40
3.8131002
50
73.5222821
51
90.5692341
0
ARC
8
front_labelLayer
10
78.7883527
20
37.340999
40
2.9706297
50
41.144574
51
73.2133806
0
ARC
8
front_labelLayer
10
78.3614882
20
36.9741155
40
3.5334789
50
13.5014392
51
41.0703409
0
ARC
8
front_labelLayer
10
76.7122991
20
36.5425457
40
5.2379639
50
1.1277214
51
13.8799942
0
ARC
8
front_labelLayer
10
75.2917124
20
36.4664145
40
6.659948
50
359.9919625
51
1.5420266
0
ARC
8
front_labelLayer
10
81.9900172
20
36.4359914
40
5.7464406
50
179.705976
51
187.9160775
0
ARC
8
front_labelLayer
10
79.882404
20
36.1332362
40
3.6172277
50
187.7639454
51
200.0976771
0
ARC
8
front_labelLayer
10
78.7213248
20
35.7078162
40
2.3806654
50
200.0845957
51
216.9131344
0
ARC
8
front_labelLayer
10
78.2973369
20
35.4050701
40
1.8598792
50
217.3009555
51
261.7099096
0
ARC
8
front_labelLayer
10
78.4941656
20
36.3443229
40
2.8183221
50
260.5033339
51
270.2476575
0
ARC
8
front_labelLayer
10
78.5317333
20
36.1616718
40
2.6357669
50
269.4481633
51
284.7255819
0
ARC
8
front_labelLayer
10
78.7403908
20
35.3878289
40
1.83431
50
284.5662452
51
322.6333705
0
ARC
8
front_labelLayer
10
78.2525367
20
35.7402807
40
2.4360009
50
323.0089379
51
342.6390522
0
ARC
8
front_labelLayer
10
76.8571739
20
36.1963261
40
3.9039219
50
342.3615629
51
353.7537587
0
ARC
8
front_labelLayer
10
74.7985279
20
36.4444689
40
5.9773881
50
353.5363068
51
0.2014024
0
ARC
8
front_labelLayer
10
75.1139329
20
36.4943775
40
5.6620198
50
359.7075784
51
7.8972558
0
ARC
8
front_labelLayer
10
77.187523
20
36.7916427
40
3.5672649
50
7.7440168
51
20.0690008
0
ARC
8
front_labelLayer
10
78.3430162
20
37.2156645
40
2.3364301
50
20.0256952
51
37.4350367
0
ARC
8
front_labelLayer
10
78.7263964
20
37.4877042
40
1.8667248
50
37.9577773
51
80.4006162
0
ARC
8
front_labelLayer
10
78.5085353
20
36.5156275
40
2.8620059
50
79.3453524
51
90.3175004
0
ARC
8
front_labelLayer
10
78.4681951
20
36.6770826
40
2.700618
50
89.4806154
51
103.880483
0
ARC
8
front_labelLayer
10
78.2412735
20
37.541204
40
1.8073392
50
103.4685271
51
142.3118771
0
ARC
8
front_labelLayer
10
78.6824277
20
37.2309539
40
2.3462468
50
142.902585
51
162.3749539
0
ARC
8
front_labelLayer
10
80.0725135
20
36.7677137
40
3.8113983
50
162.065342
51
173.1674679
0
ARC
8
front_labelLayer
10
82.24
20
36.4912645
40
5.9964032
50
173.0086168
51
180.2463704
0
LINE
8
front_labelLayer
10
90.2026367
20
32.7125505
11
89.0678711
21
32.7125505
0
LINE
8
front_labelLayer
10
89.0678711
20
32.7125505
11
89.0678711
21
37.5592302
0
LINE
8
front_labelLayer
10
85.0756836
20
36.6432146
11
85.0756836
21
32.7125505
0
LINE
8
front_labelLayer
10
85.0756836
20
32.7125505
11
83.9409179
21
32.7125505
0
LINE
8
front_labelLayer
10
83.9409179
20
32.7125505
11
83.9409179
21
40.204738
0
LINE
8
front_labelLayer
10
83.9409179
20
40.204738
11
84.8637695
21
40.204738
0
LINE
8
front_labelLayer
10
84.8637695
20
40.204738
11
85.0483398
21
39.1793474
0
LINE
8
front_labelLayer
10
85.0483398
20
39.1793474
11
85.1030273
21
39.1793474
0
LINE
8
front_labelLayer
10
90.2026367
20
37.6002458
11
90.2026367
21
32.7125505
0
ARC
8
front_labelLayer
10
85.8602373
20
37.5776274
40
3.2076865
50
359.6713871
51
8.6877291
0
ARC
8
front_labelLayer
10
87.0490928
20
37.7661725
40
2.0040036
50
8.4931351
51
22.6580017
0
ARC
8
front_labelLayer
10
87.6531141
20
38.0171858
40
1.3499028
50
22.7024279
51
42.3419359
0
ARC
8
front_labelLayer
10
87.7210107
20
38.047728
40
1.2793555
50
43.3790815
51
71.5386109
0
ARC
8
front_labelLayer
10
87.4671182
20
37.3382894
40
2.0327477
50
71.0827832
51
84.3691443
0
ARC
8
front_labelLayer
10
87.3531482
20
36.3692952
40
3.0083048
50
84.0197753
51
90.1510991
0
ARC
8
front_labelLayer
10
87.3208382
20
35.9432535
40
3.4344226
50
89.5933257
51
100.371776
0
ARC
8
front_labelLayer
10
87.0781325
20
37.216661
40
2.1381479
50
100.1176748
51
118.160228
0
ARC
8
front_labelLayer
10
86.833546
20
37.6962799
40
1.5999069
50
118.5439802
51
139.1926479
0
ARC
8
front_labelLayer
10
87.0468069
20
37.5531808
40
1.8551042
50
140.1518875
51
160.314645
0
ARC
8
front_labelLayer
10
88.334655
20
37.0708072
40
3.23024
50
159.9534303
51
171.3801069
0
ARC
8
front_labelLayer
10
90.4383881
20
36.7326405
40
5.3609279
50
171.176589
51
178.3217552
0
ARC
8
front_labelLayer
10
92.3449679
20
36.6462219
40
7.269285
50
178.0810088
51
180.023703
0
ARC
8
front_labelLayer
10
87.0442179
20
37.9499266
40
2.297759
50
116.9443015
51
147.6525552
0
ARC
8
front_labelLayer
10
87.283655
20
37.5493656
40
2.7635174
50
115.8073672
51
117.6065612
0
ARC
8
front_labelLayer
10
87.4056534
20
37.2648153
40
3.0728312
50
94.3226649
51
115.5454386
0
ARC
8
front_labelLayer
10
87.4792022
20
36.6258222
40
3.7156356
50
89.9578812
51
94.7108953
0
ARC
8
front_labelLayer
10
87.5096
20
35.8612876
40
4.4802546
50
80.5585377
51
90.3538143
0
ARC
8
front_labelLayer
10
87.7895898
20
37.4830916
40
2.8345089
50
65.1094216
51
80.7638377
0
ARC
8
front_labelLayer
10
88.1168803
20
38.2080325
40
2.0391697
50
46.5584325
51
64.878223
0
ARC
8
front_labelLayer
10
88.1430759
20
38.2835479
40
1.9666027
50
19.3848669
51
45.5997074
0
ARC
8
front_labelLayer
10
87.0053257
20
37.856645
40
3.1816473
50
6.9633735
51
19.8363186
0
ARC
8
front_labelLayer
10
85.2505447
20
37.6207155
40
4.9521342
50
359.7631671
51
7.2115336
0
LINE
8
front_labelLayer
10
95.9790039
20
33.649074
11
95.9790039
21
32.7809099
0
LINE
8
front_labelLayer
10
92.6157226
20
34.8658708
11
92.6157226
21
39.3229021
0
LINE
8
front_labelLayer
10
92.6157226
20
39.3229021
11
91.5424804
21
39.3229021
0
LINE
8
front_labelLayer
10
91.5424804
20
39.3229021
11
91.5424804
21
39.8697771
0
LINE
8
front_labelLayer
10
91.5424804
20
39.8697771
11
92.6157226
21
40.3414568
0
LINE
8
front_labelLayer
10
92.6157226
20
40.3414568
11
93.0942383
21
41.9410662
0
LINE
8
front_labelLayer
10
93.0942383
20
41.9410662
11
93.7504883
21
41.9410662
0
LINE
8
front_labelLayer
10
93.7504883
20
41.9410662
11
93.7504883
21
40.204738
0
LINE
8
front_labelLayer
10
93.7504883
20
40.204738
11
95.9243164
21
40.204738
0
LINE
8
front_labelLayer
10
95.9243164
20
40.204738
11
95.9243164
21
39.3229021
0
LINE
8
front_labelLayer
10
95.9243164
20
39.3229021
11
93.7504883
21
39.3229021
0
LINE
8
front_labelLayer
10
93.7504883
20
39.3229021
11
93.7504883
21
34.9137224
0
ARC
8
front_labelLayer
10
94.9613968
20
37.2390513
40
3.7267042
50
269.880333
51
278.3028589
0
ARC
8
front_labelLayer
10
94.9968826
20
36.9490398
40
3.4346148
50
278.4157178
51
279.0083293
0
ARC
8
front_labelLayer
10
94.5786089
20
39.6211443
40
6.1392554
50
278.9590685
51
280.5103537
0
ARC
8
front_labelLayer
10
94.9771767
20
37.4825121
40
3.9638016
50
280.4848283
51
282.6267515
0
ARC
8
front_labelLayer
10
95.3266744
20
35.9297468
40
2.3721909
50
282.587809
51
285.5793814
0
ARC
8
front_labelLayer
10
95.5020656
20
35.2847602
40
1.7038017
50
285.7232732
51
286.2557847
0
ARC
8
front_labelLayer
10
95.5019164
20
33.7899767
40
1.1161667
50
287.9888515
51
295.3048159
0
ARC
8
front_labelLayer
10
95.2326961
20
34.6044989
40
1.9740213
50
283.3070047
51
288.1197382
0
ARC
8
front_labelLayer
10
94.9483011
20
35.7908232
40
3.1939546
50
280.0070333
51
283.3734583
0
ARC
8
front_labelLayer
10
94.7576604
20
36.8255623
40
4.2460865
50
279.1865642
51
280.114103
0
ARC
8
front_labelLayer
10
94.6412473
20
37.4876249
40
4.9182512
50
275.5259953
51
279.2939952
0
ARC
8
front_labelLayer
10
94.772858
20
36.1128997
40
3.5372414
50
270.8932023
51
275.5484028
0
ARC
8
front_labelLayer
10
94.7894062
20
35.4826413
40
2.9068095
50
270.0028502
51
270.7607212
0
ARC
8
front_labelLayer
10
94.7437588
20
35.5393148
40
2.9638368
50
253.7847806
51
270.8852679
0
ARC
8
front_labelLayer
10
94.392623
20
34.3418109
40
1.7159191
50
190.3817648
51
253.8772427
0
ARC
8
front_labelLayer
10
96.1823606
20
34.8257241
40
3.5668638
50
179.3550945
51
192.8477568
0
ARC
8
front_labelLayer
10
96.0354792
20
34.8994302
40
2.2850357
50
179.6416289
51
189.7505893
0
ARC
8
front_labelLayer
10
95.2288252
20
34.755554
40
1.4656766
50
189.5479729
51
205.7873393
0
ARC
8
front_labelLayer
10
94.8973137
20
34.6026834
40
1.1006946
50
206.1293965
51
221.4084054
0
ARC
8
front_labelLayer
10
94.8601461
20
34.5744819
40
1.0541708
50
221.5949335
51
262.350513
0
ARC
8
front_labelLayer
10
94.9485489
20
35.0290859
40
1.5167391
50
261.3266421
51
270.1913104
0
LINE
8
left_outsideCutPath
10
165
20
73
11
165
21
67.25
0
LINE
8
left_outsideCutPath
10
165
20
67.25
11
163
21
67.25
0
LINE
8
left_outsideCutPath
10
163
20
67.25
11
163
21
60.75
0
LINE
8
left_outsideCutPath
10
163
20
60.75
11
165
21
60.75
0
LINE
8
left_outsideCutPath
10
165
20
60.75
11
165
21
54.25
0
LINE
8
left_outsideCutPath
10
165
20
54.25
11
163
21
54.25
0
LINE
8
left_outsideCutPath
10
163
20
54.25
11
163
21
47.75
0
LINE
8
left_outsideCutPath
10
163
20
47.75
11
165
21
47.75
0
LINE
8
left_outsideCutPath
10
165
20
47.75
11
165
21
41.25
0
LINE
8
left_outsideCutPath
10
165
20
41.25
11
163
21
41.25
0
LINE
8
left_outsideCutPath
10
163
20
41.25
11
163
21
34.75
0
LINE
8
left_outsideCutPath
10
163
20
34.75
11
165
21
34.75
0
LINE
8
left_outsideCutPath
10
165
20
34.75
11
165
21
28.25
0
LINE
8
left_outsideCutPath
10
165
20
28.25
11
163
21
28.25
0
LINE
8
left_outsideCutPath
10
163
20
28.25
11
163
21
21.75
0
LINE
8
left_outsideCutPath
10
163
20
21.75
11
165
21
21.75
0
LINE
8
left_outsideCutPath
10
165
20
21.75
11
165
21
15.25
0
LINE
8
left_outsideCutPath
10
165
20
15.25
11
163
21
15.25
0
LINE
8
left_outsideCutPath
10
163
20
15.25
11
163
21
8.75
0
LINE
8
left_outsideCutPath
10
163
20
8.75
11
165
21
8.75
0
LINE
8
left_outsideCutPath
10
165
20
8.75
11
165
21
3
0
LINE
8
left_outsideCutPath
10
165
20
3
11
172.25
21
3
0
LINE
8
left_outsideCutPath
10
172.25
20
3
11
172.25
21
5
0
LINE
8
left_outsideCutPath
10
172.25
20
5
11
178.75
21
5
0
LINE
8
left_outsideCutPath
10
178.75
20
5
11
178.75
21
3
0
LINE
8
left_outsideCutPath
10
178.75
20
3
11
185.25
21
3
0
LINE
8
left_outsideCutPath
10
185.25
20
3
11
185.25
21
5
0
LINE
8
left_outsideCutPath
10
185.25
20
5
11
191.75
21
5
0
LINE
8
left_outsideCutPath
10
191.75
20
5
11
191.75
21
3
0
LINE
8
left_outsideCutPath
10
191.75
20
3
11
198.25
21
3
0
LINE
8
left_outsideCutPath
10
198.25
20
3
11
198.25
21
5
0
LINE
8
left_outsideCutPath
10
198.25
20
5
11
204.75
21
5
0
LINE
8
left_outsideCutPath
10
204.75
20
5
11
204.75
21
3
0
LINE
8
left_outsideCutPath
10
204.75
20
3
11
211.25
21
3
0
LINE
8
left_outsideCutPath
10
211.25
20
3
11
211.25
21
5
0
LINE
8
left_outsideCutPath
10
211.25
20
5
11
217.75
21
5
0
LINE
8
left_outsideCutPath
10
217.75
20
5
11
217.75
21
3
0
LINE
8
left_outsideCutPath
10
217.75
20
3
11
224.25
21
3
0
LINE
8
left_outsideCutPath
10
224.25
20
3
11
224.25
21
5
0
LINE
8
left_outsideCutPath
10
224.25
20
5
11
230.75
21
5
0
LINE
8
left_outsideCutPath
10
230.75
20
5
11
230.75
21
3
0
LINE
8
left_outsideCutPath
10
230.75
20
3
11
237.25
21
3
0
LINE
8
left_outsideCutPath
10
237.25
20
3
11
237.25
21
5
0
LINE
8
left_outsideCutPath
10
237.25
20
5
11
243.75
21
5
0
LINE
8
left_outsideCutPath
10
243.75
20
5
11
243.75
21
3
0
LINE
8
left_outsideCutPath
10
243.75
20
3
11
250.25
21
3
0
LINE
8
left_outsideCutPath
10
250.25
20
3
11
251
21
3
0
LINE
8
left_outsideCutPath
10
251
20
3
11
251
21
8.75
0
LINE
8
left_outsideCutPath
10
251
20
8.75
11
253
21
8.75
0
LINE
8
left_outsideCutPath
10
253
20
8.75
11
253
21
15.25
0
LINE
8
left_outsideCutPath
10
253
20
15.25
11
251
21
15.25
0
LINE
8
left_outsideCutPath
10
251
20
15.25
11
251
21
21.75
0
LINE
8
left_outsideCutPath
10
251
20
21.75
11
253
21
21.75
0
LINE
8
left_outsideCutPath
10
253
20
21.75
11
253
21
28.25
0
LINE
8
left_outsideCutPath
10
253
20
28.25
11
251
21
28.25
0
LINE
8
left_outsideCutPath
10
251
20
28.25
11
251
21
34.75
0
LINE
8
left_outsideCutPath
10
251
20
34.75
11
253
21
34.75
0
LINE
8
left_outsideCutPath
10
253
20
34.75
11
253
21
41.25
0
LINE
8
left_outsideCutPath
10
253
20
41.25
11
251
21
41.25
0
LINE
8
left_outsideCutPath
10
251
20
41.25
11
251
21
47.75
0
LINE
8
left_outsideCutPath
10
251
20
47.75
11
253
21
47.75
0
LINE
8
left_outsideCutPath
10
253
20
47.75
11
253
21
54.25
0
LINE
8
left_outsideCutPath
10
253
20
54.25
11
251
21
54.25
0
LINE
8
left_outsideCutPath
10
251
20
54.25
11
251
21
60.75
0
LINE
8
left_outsideCutPath
10
251
20
60.75
11
253
21
60.75
0
LINE
8
left_outsideCutPath
10
253
20
60.75
11
253
21
67.25
0
LINE
8
left_outsideCutPath
10
253
20
67.25
11
251
21
67.25
0
LINE
8
left_outsideCutPath
10
251
20
67.25
11
251
21
73
0
LINE
8
left_outsideCutPath
10
251
20
73
11
243.75
21
73
0
LINE
8
left_outsideCutPath
10
243.75
20
73
11
243.75
21
71
0
LINE
8
left_outsideCutPath
10
243.75
20
71
11
237.25
21
71
0
LINE
8
left_outsideCutPath
10
237.25
20
71
11
237.25
21
73
0
LINE
8
left_outsideCutPath
10
237.25
20
73
11
230.75
21
73
0
LINE
8
left_outsideCutPath
10
230.75
20
73
11
230.75
21
71
0
LINE
8
left_outsideCutPath
10
230.75
20
71
11
224.25
21
71
0
LINE
8
left_outsideCutPath
10
224.25
20
71
11
224.25
21
73
0
LINE
8
left_outsideCutPath
10
224.25
20
73
11
217.75
21
73
0
LINE
8
left_outsideCutPath
10
217.75
20
73
11
217.75
21
71
0
LINE
8
left_outsideCutPath
10
217.75
20
71
11
211.25
21
71
0
LINE
8
left_outsideCutPath
10
211.25
20
71
11
211.25
21
73
0
LINE
8
left_outsideCutPath
10
211.25
20
73
11
204.75
21
73
0
LINE
8
left_outsideCutPath
10
204.75
20
73
11
204.75
21
71
0
LINE
8
left_outsideCutPath
10
204.75
20
71
11
198.25
21
71
0
LINE
8
left_outsideCutPath
10
198.25
20
71
11
198.25
21
73
0
LINE
8
left_outsideCutPath
10
198.25
20
73
11
191.75
21
73
0
LINE
8
left_outsideCutPath
10
191.75
20
73
11
191.75
21
71
0
LINE
8
left_outsideCutPath
10
191.75
20
71
11
185.25
21
71
0
LINE
8
left_outsideCutPath
10
185.25
20
71
11
185.25
21
73
0
LINE
8
left_outsideCutPath
10
185.25
20
73
11
178.75
21
73
0
LINE
8
left_outsideCutPath
10
178.75
20
73
11
178.75
21
71
0
LINE
8
left_outsideCutPath
10
178.75
20
71
11
172.25
21
71
0
LINE
8
left_outsideCutPath
10
172.25
20
71
11
172.25
21
73
0
LINE
8
left_outsideCutPath
10
172.25
20
73
11
165.75
21
73
0
LINE
8
left_outsideCutPath
10
165.75
20
73
11
165
21
73
0
LINE
8
left_labelLayer
10
199.3422851
20
43.3492693
11
199.3422851
21
32.7125505
0
LINE
8
left_labelLayer
10
199.3422851
20
32.7125505
11
198.2075195
21
32.7125505
0
LINE
8
left_labelLayer
10
198.2075195
20
32.7125505
11
198.2075195
21
43.3492693
0
LINE
8
left_labelLayer
10
198.2075195
20
43.3492693
11
199.3422851
21
43.3492693
0
LINE
8
left_labelLayer
10
207.668457
20
36.9713396
11
207.668457
21
36.2535662
0
LINE
8
left_labelLayer
10
207.668457
20
36.2535662
11
202.5073242
21
36.2535662
0
LINE
8
left_labelLayer
10
207.3471679
20
34.0729021
11
207.3471679
21
33.0611833
0
LINE
8
left_labelLayer
10
202.5346679
20
37.1764177
11
206.4516601
21
37.1764177
0
ARC
8
left_labelLayer
10
204.8762619
20
36.9853138
40
4.4096399
50
256.0087726
51
270.4848157
0
ARC
8
left_labelLayer
10
204.5551534
20
35.7387102
40
3.1224009
50
223.5465853
51
256.1956961
0
ARC
8
left_labelLayer
10
204.732292
20
35.8674565
40
3.3396159
50
194.0877148
51
223.0538222
0
ARC
8
left_labelLayer
10
206.3553943
20
36.3113152
40
5.0220656
50
181.3574649
51
194.4919866
0
ARC
8
left_labelLayer
10
207.8133761
20
36.3958441
40
6.4818333
50
179.9887139
51
181.7991367
0
ARC
8
left_labelLayer
10
207.2900409
20
36.4370906
40
5.958632
50
168.9539236
51
180.3843356
0
ARC
8
left_labelLayer
10
205.343981
20
36.8333413
40
3.9727375
50
149.4071081
51
169.1853678
0
ARC
8
left_labelLayer
10
204.8017586
20
37.1198296
40
3.3603139
50
140.1055833
51
148.9067461
0
ARC
8
left_labelLayer
10
204.4686595
20
37.4269348
40
2.9078647
50
92.4762642
51
140.5386399
0
ARC
8
left_labelLayer
10
204.6170955
20
36.330022
40
4.0114357
50
89.9638161
51
93.9176498
0
ARC
8
left_labelLayer
10
204.6525134
20
36.8844127
40
3.4572005
50
74.2126017
51
90.5449991
0
ARC
8
left_labelLayer
10
204.8690481
20
37.6822239
40
2.6305864
50
41.2064794
51
74.0232656
0
ARC
8
left_labelLayer
10
204.4589743
20
37.3273357
40
3.1728943
50
11.5994196
51
41.1496074
0
ARC
8
left_labelLayer
10
203.0499721
20
37.0023924
40
4.6185892
50
359.6147719
51
12.0336375
0
ARC
8
left_labelLayer
10
207.0609322
20
36.3445528
40
4.5545169
50
181.1446877
51
190.8007182
0
ARC
8
left_labelLayer
10
205.4541611
20
36.0276518
40
2.9168424
50
190.6005858
51
206.0275174
0
ARC
8
left_labelLayer
10
204.7432574
20
35.691568
40
2.1305849
50
206.2950165
51
222.5558023
0
ARC
8
left_labelLayer
10
204.6802668
20
35.6585875
40
2.0619611
50
223.0645067
51
258.1401454
0
ARC
8
left_labelLayer
10
204.9310385
20
36.691171
40
3.124217
50
257.5312068
51
270.4319176
0
ARC
8
left_labelLayer
10
204.933836
20
39.5603327
40
5.9933259
50
270.1984057
51
292.2090353
0
ARC
8
left_labelLayer
10
204.6459505
20
40.3870665
40
6.8676959
50
291.8255403
51
293.1613769
0
ARC
8
left_labelLayer
10
204.6322482
20
39.3091963
40
6.8123751
50
287.9022912
51
293.4861663
0
ARC
8
left_labelLayer
10
205.1264065
20
37.7845472
40
5.2096449
50
281.9936107
51
287.8850986
0
ARC
8
left_labelLayer
10
205.2461851
20
37.3540442
40
4.7637297
50
275.9054696
51
281.6603956
0
ARC
8
left_labelLayer
10
205.0064316
20
39.5919369
40
7.0144182
50
271.9119517
51
275.9726943
0
ARC
8
left_labelLayer
10
204.9189064
20
41.8213782
40
9.245548
50
269.9669556
51
271.9930979
0
ARC
8
left_labelLayer
10
204.584182
20
37.1544774
40
2.2368901
50
89.442246
51
106.2089531
0
ARC
8
left_labelLayer
10
204.4496076
20
37.6451566
40
1.7281675
50
106.4656868
51
137.9176544
0
ARC
8
left_labelLayer
10
204.8354341
20
37.3063359
40
2.2416093
50
138.0994736
51
160.5866397
0
ARC
8
left_labelLayer
10
205.827206
20
36.9414803
40
3.2982971
50
160.3353523
51
172.5315129
0
ARC
8
left_labelLayer
10
206.8034818
20
36.7850435
40
4.2867173
50
172.154426
51
174.7616419
0
ARC
8
left_labelLayer
10
202.584841
20
37.1983832
40
3.8668816
50
359.6745349
51
8.9224611
0
ARC
8
left_labelLayer
10
203.9665675
20
37.4235152
40
2.4669711
50
8.7342183
51
23.2771808
0
ARC
8
left_labelLayer
10
204.6225242
20
37.6988681
40
1.7556041
50
23.4821513
51
39.7071819
0
ARC
8
left_labelLayer
10
204.7836542
20
37.8194454
40
1.5546442
50
40.0822796
51
80.6243371
0
ARC
8
left_labelLayer
10
204.6178028
20
37.0591829
40
2.3321085
50
79.6468703
51
90.2910314
0
LINE
8
left_labelLayer
10
212.9799804
20
40.204738
11
212.9799804
21
39.3229021
0
LINE
8
left_labelLayer
10
212.9799804
20
39.3229021
11
211.0727539
21
39.3229021
0
LINE
8
left_labelLayer
10
211.0727539
20
39.3229021
11
211.0727539
21
32.7125505
0
LINE
8
left_labelLayer
10
211.0727539
20
32.7125505
11
209.9379883
21
32.7125505
0
LINE
8
left_labelLayer
10
209.9379883
20
32.7125505
11
209.9379883
21
39.3229021
0
LINE
8
left_labelLayer
10
209.9379883
20
39.3229021
11
208.5981445
21
39.3229021
0
LINE
8
left_labelLayer
10
208.5981445
20
39.3229021
11
208.5981445
21
39.8355974
0
LINE
8
left_labelLayer
10
208.5981445
20
39.8355974
11
209.9379883
21
40.2457537
0
LINE
8
left_labelLayer
10
209.9379883
20
40.2457537
11
209.9379883
21
40.6627458
0
LINE
8
left_labelLayer
10
213.7456054
20
43.1852068
11
213.4516601
21
42.2760271
0
LINE
8
left_labelLayer
10
211.0727539
20
40.6900896
11
211.0727539
21
40.204738
0
LINE
8
left_labelLayer
10
211.0727539
20
40.204738
11
212.9799804
21
40.204738
0
ARC
8
left_labelLayer
10
214.5368047
20
40.7156153
40
4.5991203
50
167.5776087
51
180.6586619
0
ARC
8
left_labelLayer
10
212.3741426
20
41.2198223
40
2.3787816
50
141.7433856
51
168.2322179
0
ARC
8
left_labelLayer
10
212.0220196
20
41.4036041
40
1.9898496
50
98.2551562
51
139.6203409
0
ARC
8
left_labelLayer
10
212.3311887
20
39.9753719
40
3.4491501
50
89.6696689
51
99.9314626
0
ARC
8
left_labelLayer
10
212.3320508
20
39.7703003
40
3.6542138
50
81.5640841
51
89.7017242
0
ARC
8
left_labelLayer
10
212.0751551
20
37.978047
40
5.4647706
50
75.9739939
51
81.6564835
0
ARC
8
left_labelLayer
10
211.634264
20
36.1493399
40
7.3458279
50
73.2964127
51
76.0946049
0
ARC
8
left_labelLayer
10
211.7453358
20
37.0365469
40
5.5103263
50
71.9612942
51
76.5918413
0
ARC
8
left_labelLayer
10
212.172823
20
38.8499937
40
3.6471833
50
76.5183428
51
83.0216867
0
ARC
8
left_labelLayer
10
212.3217381
20
40.0475626
40
2.4403946
50
83.0760388
51
89.792729
0
ARC
8
left_labelLayer
10
212.3168354
20
40.9576468
40
1.5303559
50
89.485912
51
103.4197276
0
ARC
8
left_labelLayer
10
212.1788628
20
41.4877239
40
0.9827945
50
102.7677244
51
144.3380364
0
ARC
8
left_labelLayer
10
212.4568171
20
41.3088854
40
1.3129943
50
145.0688437
51
162.1802081
0
ARC
8
left_labelLayer
10
213.40985
20
40.9882373
40
2.3184702
50
161.8437796
51
171.7846758
0
ARC
8
left_labelLayer
10
214.9642416
20
40.7547735
40
3.8902815
50
171.6527826
51
178.4383421
0
ARC
8
left_labelLayer
10
216.4302057
20
40.6922562
40
5.3574523
50
178.1972574
51
180.0231708
0
LINE
8
left_labelLayer
10
217.7924804
20
33.649074
11
217.7924804
21
32.7809099
0
LINE
8
left_labelLayer
10
214.4291992
20
34.8658708
11
214.4291992
21
39.3229021
0
LINE
8
left_labelLayer
10
214.4291992
20
39.3229021
11
213.355957
21
39.3229021
0
LINE
8
left_labelLayer
10
213.355957
20
39.3229021
11
213.355957
21
39.8697771
0
LINE
8
left_labelLayer
10
213.355957
20
39.8697771
11
214.4291992
21
40.3414568
0
LINE
8
left_labelLayer
10
214.4291992
20
40.3414568
11
214.9077148
21
41.9410662
0
LINE
8
left_labelLayer
10
214.9077148
20
41.9410662
11
215.5639648
21
41.9410662
0
LINE
8
left_labelLayer
10
215.5639648
20
41.9410662
11
215.5639648
21
40.204738
0
LINE
8
left_labelLayer
10
215.5639648
20
40.204738
11
217.7377929
21
40.204738
0
LINE
8
left_labelLayer
10
217.7377929
20
40.204738
11
217.7377929
21
39.3229021
0
LINE
8
left_labelLayer
10
217.7377929
20
39.3229021
11
215.5639648
21
39.3229021
0
LINE
8
left_labelLayer
10
215.5639648
20
39.3229021
11
215.5639648
21
34.9137224
0
ARC
8
left_labelLayer
10
216.7748733
20
37.2390513
40
3.7267042
50
269.880333
51
278.3028589
0
ARC
8
left_labelLayer
10
216.8103592
20
36.9490398
40
3.4346148
50
278.4157178
51
279.0083293
0
ARC
8
left_labelLayer
10
216.3920854
20
39.6211443
40
6.1392554
50
278.9590685
51
280.5103537
0
ARC
8
left_labelLayer
10
216.7906533
20
37.4825121
40
3.9638016
50
280.4848283
51
282.6267515
0
ARC
8
left_labelLayer
10
217.140151
20
35.9297468
40
2.3721909
50
282.587809
51
285.5793814
0
ARC
8
left_labelLayer
10
217.3155422
20
35.2847602
40
1.7038017
50
285.7232732
51
286.2557847
0
ARC
8
left_labelLayer
10
217.315393
20
33.7899767
40
1.1161667
50
287.9888515
51
295.3048159
0
ARC
8
left_labelLayer
10
217.0461727
20
34.6044989
40
1.9740213
50
283.3070047
51
288.1197382
0
ARC
8
left_labelLayer
10
216.7617777
20
35.7908232
40
3.1939546
50
280.0070333
51
283.3734583
0
ARC
8
left_labelLayer
10
216.571137
20
36.8255623
40
4.2460865
50
279.1865642
51
280.114103
0
ARC
8
left_labelLayer
10
216.4547239
20
37.4876249
40
4.9182512
50
275.5259953
51
279.2939952
0
ARC
8
left_labelLayer
10
216.5863346
20
36.1128997
40
3.5372414
50
270.8932023
51
275.5484028
0
ARC
8
left_labelLayer
10
216.6028827
20
35.4826413
40
2.9068095
50
270.0028502
51
270.7607212
0
ARC
8
left_labelLayer
10
216.5572354
20
35.5393148
40
2.9638368
50
253.7847806
51
270.8852679
0
ARC
8
left_labelLayer
10
216.2060996
20
34.3418109
40
1.7159191
50
190.3817648
51
253.8772427
0
ARC
8
left_labelLayer
10
217.9958371
20
34.8257241
40
3.5668638
50
179.3550945
51
192.8477568
0
ARC
8
left_labelLayer
10
217.8489558
20
34.8994302
40
2.2850357
50
179.6416289
51
189.7505893
0
ARC
8
left_labelLayer
10
217.0423017
20
34.755554
40
1.4656766
50
189.5479729
51
205.7873393
0
ARC
8
left_labelLayer
10
216.7107902
20
34.6026834
40
1.1006946
50
206.1293965
51
221.4084054
0
ARC
8
left_labelLayer
10
216.6736227
20
34.5744819
40
1.0541708
50
221.5949335
51
262.350513
0
ARC
8
left_labelLayer
10
216.7620254
20
35.0290859
40
1.5167391
50
261.3266421
51
270.1913104
0
LINE
8
top_outsideCutPath
10
258
20
91
11
258
21
83.75
0
LINE
8
top_outsideCutPath
10
258
20
83.75
11
256
21
83.75
0
LINE
8
top_outsideCutPath
10
256
20
83.75
11
256
21
77.25
0
LINE
8
top_outsideCutPath
10
256
20
77.25
11
258
21
77.25
0
LINE
8
top_outsideCutPath
10
258
20
77.25
11
258
21
70.75
0
LINE
8
top_outsideCutPath
10
258
20
70.75
11
256
21
70.75
0
LINE
8
top_outsideCutPath
10
256
20
70.75
11
256
21
64.25
0
LINE
8
top_outsideCutPath
10
256
20
64.25
11
258
21
64.25
0
LINE
8
top_outsideCutPath
10
258
20
64.25
11
258
21
57.75
0
LINE
8
top_outsideCutPath
10
258
20
57.75
11
256
21
57.75
0
LINE
8
top_outsideCutPath
10
256
20
57.75
11
256
21
51.25
0
LINE
8
top_outsideCutPath
10
256
20
51.25
11
258
21
51.25
0
LINE
8
top_outsideCutPath
10
258
20
51.25
11
258
21
44.75
0
LINE
8
top_outsideCutPath
10
258
20
44.75
11
256
21
44.75
0
LINE
8
top_outsideCutPath
10
256
20
44.75
11
256
21
38.25
0
LINE
8
top_outsideCutPath
10
256
20
38.25
11
258
21
38.25
0
LINE
8
top_outsideCutPath
10
258
20
38.25
11
258
21
31.75
0
LINE
8
top_outsideCutPath
10
258
20
31.75
11
256
21
31.75
0
LINE
8
top_outsideCutPath
10
256
20
31.75
11
256
21
25.25
0
LINE
8
top_outsideCutPath
10
256
20
25.25
11
258
21
25.25
0
LINE
8
top_outsideCutPath
10
258
20
25.25
11
258
21
18.75
0
LINE
8
top_outsideCutPath
10
258
20
18.75
11
256
21
18.75
0
LINE
8
top_outsideCutPath
10
256
20
18.75
11
256
21
12.25
0
LINE
8
top_outsideCutPath
10
256
20
12.25
11
258
21
12.25
0
LINE
8
top_outsideCutPath
10
258
20
12.25
11
258
21
5.75
0
LINE
8
top_outsideCutPath
10
258
20
5.75
11
258
21
5
0
LINE
8
top_outsideCutPath
10
258
20
5
11
267.75
21
5
0
LINE
8
top_outsideCutPath
10
267.75
20
5
11
267.75
21
3
0
LINE
8
top_outsideCutPath
10
267.75
20
3
11
274.25
21
3
0
LINE
8
top_outsideCutPath
10
274.25
20
3
11
274.25
21
5
0
LINE
8
top_outsideCutPath
10
274.25
20
5
11
280.75
21
5
0
LINE
8
top_outsideCutPath
10
280.75
20
5
11
280.75
21
3
0
LINE
8
top_outsideCutPath
10
280.75
20
3
11
287.25
21
3
0
LINE
8
top_outsideCutPath
10
287.25
20
3
11
287.25
21
5
0
LINE
8
top_outsideCutPath
10
287.25
20
5
11
293.75
21
5
0
LINE
8
top_outsideCutPath
10
293.75
20
5
11
293.75
21
3
0
LINE
8
top_outsideCutPath
10
293.75
20
3
11
300.25
21
3
0
LINE
8
top_outsideCutPath
10
300.25
20
3
11
300.25
21
5
0
LINE
8
top_outsideCutPath
10
300.25
20
5
11
306.75
21
5
0
LINE
8
top_outsideCutPath
10
306.75
20
5
11
306.75
21
3
0
LINE
8
top_outsideCutPath
10
306.75
20
3
11
313.25
21
3
0
LINE
8
top_outsideCutPath
10
313.25
20
3
11
313.25
21
5
0
LINE
8
top_outsideCutPath
10
313.25
20
5
11
319.75
21
5
0
LINE
8
top_outsideCutPath
10
319.75
20
5
11
319.75
21
3
0
LINE
8
top_outsideCutPath
10
319.75
20
3
11
326.25
21
3
0
LINE
8
top_outsideCutPath
10
326.25
20
3
11
326.25
21
5
0
LINE
8
top_outsideCutPath
10
326.25
20
5
11
332.75
21
5
0
LINE
8
top_outsideCutPath
10
332.75
20
5
11
332.75
21
3
0
LINE
8
top_outsideCutPath
10
332.75
20
3
11
339.25
21
3
0
LINE
8
top_outsideCutPath
10
339.25
20
3
11
339.25
21
5
0
LINE
8
top_outsideCutPath
10
339.25
20
5
11
345.75
21
5
0
LINE
8
top_outsideCutPath
10
345.75
20
5
11
345.75
21
3
0
LINE
8
top_outsideCutPath
10
345.75
20
3
11
352.25
21
3
0
LINE
8
top_outsideCutPath
10
352.25
20
3
11
352.25
21
5
0
LINE
8
top_outsideCutPath
10
352.25
20
5
11
358.75
21
5
0
LINE
8
top_outsideCutPath
10
358.75
20
5
11
358.75
21
3
0
LINE
8
top_outsideCutPath
10
358.75
20
3
11
365.25
21
3
0
LINE
8
top_outsideCutPath
10
365.25
20
3
11
365.25
21
5
0
LINE
8
top_outsideCutPath
10
365.25
20
5
11
371.75
21
5
0
LINE
8
top_outsideCutPath
10
371.75
20
5
11
371.75
21
3
0
LINE
8
top_outsideCutPath
10
371.75
20
3
11
378.25
21
3
0
LINE
8
top_outsideCutPath
10
378.25
20
3
11
378.25
21
5
0
LINE
8
top_outsideCutPath
10
378.25
20
5
11
384.75
21
5
0
LINE
8
top_outsideCutPath
10
384.75
20
5
11
384.75
21
3
0
LINE
8
top_outsideCutPath
10
384.75
20
3
11
391.25
21
3
0
LINE
8
top_outsideCutPath
10
391.25
20
3
11
391.25
21
5
0
LINE
8
top_outsideCutPath
10
391.25
20
5
11
397.75
21
5
0
LINE
8
top_outsideCutPath
10
397.75
20
5
11
397.75
21
3
0
LINE
8
top_outsideCutPath
10
397.75
20
3
11
404.25
21
3
0
LINE
8
top_outsideCutPath
10
404.25
20
3
11
404.25
21
5
0
LINE
8
top_outsideCutPath
10
404.25
20
5
11
410.75
21
5
0
LINE
8
top_outsideCutPath
10
410.75
20
5
11
414
21
5
0
LINE
8
top_outsideCutPath
10
414
20
5
11
414
21
12.25
0
LINE
8
top_outsideCutPath
10
414
20
12.25
11
416
21
12.25
0
LINE
8
top_outsideCutPath
10
416
20
12.25
11
416
21
18.75
0
LINE
8
top_outsideCutPath
10
416
20
18.75
11
414
21
18.75
0
LINE
8
top_outsideCutPath
10
414
20
18.75
11
414
21
25.25
0
LINE
8
top_outsideCutPath
10
414
20
25.25
11
416
21
25.25
0
LINE
8
top_outsideCutPath
10
416
20
25.25
11
416
21
31.75
0
LINE
8
top_outsideCutPath
10
416
20
31.75
11
414
21
31.75
0
LINE
8
top_outsideCutPath
10
414
20
31.75
11
414
21
38.25
0
LINE
8
top_outsideCutPath
10
414
20
38.25
11
416
21
38.25
0
LINE
8
top_outsideCutPath
10
416
20
38.25
11
416
21
44.75
0
LINE
8
top_outsideCutPath
10
416
20
44.75
11
414
21
44.75
0
LINE
8
top_outsideCutPath
10
414
20
44.75
11
414
21
51.25
0
LINE
8
top_outsideCutPath
10
414
20
51.25
11
416
21
51.25
0
LINE
8
top_outsideCutPath
10
416
20
51.25
11
416
21
57.75
0
LINE
8
top_outsideCutPath
10
416
20
57.75
11
414
21
57.75
0
LINE
8
top_outsideCutPath
10
414
20
57.75
11
414
21
64.25
0
LINE
8
top_outsideCutPath
10
414
20
64.25
11
416
21
64.25
0
LINE
8
top_outsideCutPath
10
416
20
64.25
11
416
21
70.75
0
LINE
8
top_outsideCutPath
10
416
20
70.75
11
414
21
70.75
0
LINE
8
top_outsideCutPath
10
414
20
70.75
11
414
21
77.25
0
LINE
8
top_outsideCutPath
10
414
20
77.25
11
416
21
77.25
0
LINE
8
top_outsideCutPath
10
416
20
77.25
11
416
21
83.75
0
LINE
8
top_outsideCutPath
10
416
20
83.75
11
414
21
83.75
0
LINE
8
top_outsideCutPath
10
414
20
83.75
11
414
21
90.25
0
LINE
8
top_outsideCutPath
10
414
20
90.25
11
414
21
91
0
LINE
8
top_outsideCutPath
10
414
20
91
11
404.25
21
91
0
LINE
8
top_outsideCutPath
10
404.25
20
91
11
404.25
21
93
0
LINE
8
top_outsideCutPath
10
404.25
20
93
11
397.75
21
93
0
LINE
8
top_outsideCutPath
10
397.75
20
93
11
397.75
21
91
0
LINE
8
top_outsideCutPath
10
397.75
20
91
11
391.25
21
91
0
LINE
8
top_outsideCutPath
10
391.25
20
91
11
391.25
21
93
0
LINE
8
top_outsideCutPath
10
391.25
20
93
11
384.75
21
93
0
LINE
8
top_outsideCutPath
10
384.75
20
93
11
384.75
21
91
0
LINE
8
top_outsideCutPath
10
384.75
20
91
11
378.25
21
91
0
LINE
8
top_outsideCutPath
10
378.25
20
91
11
378.25
21
93
0
LINE
8
top_outsideCutPath
10
378.25
20
93
11
371.75
21
93
0
LINE
8
top_outsideCutPath
10
371.75
20
93
11
371.75
21
91
0
LINE
8
top_outsideCutPath
10
371.75
20
91
11
365.25
21
91
0
LINE
8
top_outsideCutPath
10
365.25
20
91
11
365.25
21
93
0
LINE
8
top_outsideCutPath
10
365.25
20
93
11
358.75
21
93
0
LINE
8
top_outsideCutPath
10
358.75
20
93
11
358.75
21
91
0
LINE
8
top_outsideCutPath
10
358.75
20
91
11
352.25
21
91
0
LINE
8
top_outsideCutPath
10
352.25
20
91
11
352.25
21
93
0
LINE
8
top_outsideCutPath
10
352.25
20
93
11
345.75
21
93
0
LINE
8
top_outsideCutPath
10
345.75
20
93
11
345.75
21
91
0
LINE
8
top_outsideCutPath
10
345.75
20
91
11
339.25
21
91
0
LINE
8
top_outsideCutPath
10
339.25
20
91
11
339.25
21
93
0
LINE
8
top_outsideCutPath
10
339.25
20
93
11
332.75
21
93
0
LINE
8
top_outsideCutPath
10
332.75
20
93
11
332.75
21
91
0
LINE
8
top_outsideCutPath
10
332.75
20
91
11
326.25
21
91
0
LINE
8
top_outsideCutPath
10
326.25
20
91
11
326.25
21
93
0
LINE
8
top_outsideCutPath
10
326.25
20
93
11
319.75
21
93
0
LINE
8
top_outsideCutPath
10
319.75
20
93
11
319.75
21
91
0
LINE
8
top_outsideCutPath
10
319.75
20
91
11
313.25
21
91
0
LINE
8
top_outsideCutPath
10
313.25
20
91
11
313.25
21
93
0
LINE
8
top_outsideCutPath
10
313.25
20
93
11
306.75
21
93
0
LINE
8
top_outsideCutPath
10
306.75
20
93
11
306.75
21
91
0
LINE
8
top_outsideCutPath
10
306.75
20
91
11
300.25
21
91
0
LINE
8
top_outsideCutPath
10
300.25
20
91
11
300.25
21
93
0
LINE
8
top_outsideCutPath
10
300.25
20
93
11
293.75
21
93
0
LINE
8
top_outsideCutPath
10
293.75
20
93
11
293.75
21
91
0
LINE
8
top_outsideCutPath
10
293.75
20
91
11
287.25
21
91
0
LINE
8
top_outsideCutPath
10
287.25
20
91
11
287.25
21
93
0
LINE
8
top_outsideCutPath
10
287.25
20
93
11
280.75
21
93
0
LINE
8
top_outsideCutPath
10
280.75
20
93
11
280.75
21
91
0
LINE
8
top_outsideCutPath
10
280.75
20
91
11
274.25
21
91
0
LINE
8
top_outsideCutPath
10
274.25
20
91
11
274.25
21
93
0
LINE
8
top_outsideCutPath
10
274.25
20
93
11
267.75
21
93
0
LINE
8
top_outsideCutPath
10
267.75
20
93
11
267.75
21
91
0
LINE
8
top_outsideCutPath
10
267.75
20
91
11
261.25
21
91
0
LINE
8
top_outsideCutPath
10
261.25
20
91
11
258
21
91
0
LINE
8
top_labelLayer
10
328.2128162
20
45.4335938
11
328.2128162
21
44.3173828
0
LINE
8
top_labelLayer
10
323.8885974
20
46.9980469
11
323.8885974
21
52.7285156
0
LINE
8
top_labelLayer
10
323.8885974
20
52.7285156
11
322.5087146
21
52.7285156
0
LINE
8
top_labelLayer
10
322.5087146
20
52.7285156
11
322.5087146
21
53.4316406
0
LINE
8
top_labelLayer
10
322.5087146
20
53.4316406
11
323.8885974
21
54.0380859
0
LINE
8
top_labelLayer
10
323.8885974
20
54.0380859
11
324.5038318
21
56.0947266
0
LINE
8
top_labelLayer
10
324.5038318
20
56.0947266
11
325.3475818
21
56.0947266
0
LINE
8
top_labelLayer
10
325.3475818
20
56.0947266
11
325.3475818
21
53.8623047
0
LINE
8
top_labelLayer
10
325.3475818
20
53.8623047
11
328.1425037
21
53.8623047
0
LINE
8
top_labelLayer
10
328.1425037
20
53.8623047
11
328.1425037
21
52.7285156
0
LINE
8
top_labelLayer
10
328.1425037
20
52.7285156
11
325.3475818
21
52.7285156
0
LINE
8
top_labelLayer
10
325.3475818
20
52.7285156
11
325.3475818
21
47.0595703
0
ARC
8
top_labelLayer
10
326.9044609
20
50.0493262
40
4.7915241
50
269.8803734
51
278.3028161
0
ARC
8
top_labelLayer
10
326.9500803
20
49.6765629
40
4.4160888
50
278.4155319
51
279.0081225
0
ARC
8
top_labelLayer
10
326.4124713
20
53.1110452
40
7.8923895
50
278.9589452
51
280.510415
0
ARC
8
top_labelLayer
10
326.9248188
20
50.3619577
40
5.0959678
50
280.484797
51
282.6268666
0
ARC
8
top_labelLayer
10
327.3741701
20
48.3656312
40
3.049696
50
282.5876995
51
285.5795307
0
ARC
8
top_labelLayer
10
327.6000596
20
47.5349191
40
2.188844
50
285.7239997
51
286.2569388
0
ARC
8
top_labelLayer
10
327.5994204
20
45.6147484
40
1.4350651
50
287.9888342
51
295.3048312
0
ARC
8
top_labelLayer
10
327.25332
20
46.6618485
40
2.5378729
50
283.3068466
51
288.1198731
0
ARC
8
top_labelLayer
10
326.8876556
20
48.1871242
40
4.1063633
50
280.0069965
51
283.3735444
0
ARC
8
top_labelLayer
10
326.6433687
20
49.5126566
40
5.4541887
50
279.1861115
51
280.1145117
0
ARC
8
top_labelLayer
10
326.4928273
20
50.368993
40
6.3235865
50
275.5260369
51
279.2939649
0
ARC
8
top_labelLayer
10
326.662052
20
48.6014151
40
4.5479275
50
270.8932588
51
275.5484126
0
ARC
8
top_labelLayer
10
326.6832985
20
47.7962702
40
3.7425592
50
270.00338
51
270.7601914
0
ARC
8
top_labelLayer
10
326.6246448
20
47.8639108
40
3.8106547
50
253.7847993
51
270.8852531
0
ARC
8
top_labelLayer
10
326.1731842
20
46.3242561
40
2.2061823
50
190.3817746
51
253.8772315
0
ARC
8
top_labelLayer
10
328.4742816
20
46.9464304
40
4.5859747
50
179.3551063
51
192.8477484
0
ARC
8
top_labelLayer
10
328.2854276
20
47.0411949
40
2.9379033
50
179.6416345
51
189.7505939
0
ARC
8
top_labelLayer
10
327.248295
20
46.8562091
40
1.8844353
50
189.5479465
51
205.7873647
0
ARC
8
top_labelLayer
10
326.8220769
20
46.6596667
40
1.4151851
50
206.1294373
51
221.408377
0
ARC
8
top_labelLayer
10
326.7742849
20
46.6234034
40
1.3553623
50
221.5949156
51
262.3505058
0
ARC
8
top_labelLayer
10
326.8879467
20
47.2079079
40
1.9501062
50
261.3266651
51
270.1912741
0
ARC
8
top_labelLayer
10
330.9159975
20
49.0038817
40
7.5362478
50
349.1761857
51
0.3862637
0
ARC
8
top_labelLayer
10
333.4532681
20
48.4980716
40
4.949173
50
330.2507133
51
349.4116406
0
ARC
8
top_labelLayer
10
334.2341228
20
48.0922133
40
4.0699932
50
318.143968
51
329.7566355
0
ARC
8
top_labelLayer
10
334.3750491
20
47.9792743
40
3.8896806
50
278.8959145
51
317.9979173
0
ARC
8
top_labelLayer
10
334.0119217
20
49.7190577
40
5.6654004
50
269.7502873
51
279.8033087
0
ARC
8
top_labelLayer
10
333.9530302
20
48.7387995
40
4.6852134
50
253.5437049
51
270.418238
0
ARC
8
top_labelLayer
10
333.7970662
20
48.1354917
40
4.0624933
50
238.8115404
51
253.2428413
0
ARC
8
top_labelLayer
10
333.746733
20
48.0342744
40
3.9498509
50
207.7946989
51
238.6758053
0
ARC
8
top_labelLayer
10
334.4690939
20
48.4766733
40
4.7954714
50
205.6560253
51
208.4460689
0
ARC
8
top_labelLayer
10
335.0253108
20
48.7084223
40
5.3972849
50
188.9102436
51
205.3171388
0
ARC
8
top_labelLayer
10
336.9001385
20
49.025958
40
7.298707
50
179.774469
51
189.0932874
0
ARC
8
top_labelLayer
10
337.1767047
20
49.105997
40
7.5753904
50
169.2442967
51
180.3880775
0
ARC
8
top_labelLayer
10
334.6041613
20
49.6144954
40
4.9531832
50
150.7111472
51
169.4695426
0
ARC
8
top_labelLayer
10
333.7829206
20
50.0362335
40
4.0307495
50
138.1759298
51
150.2287456
0
ARC
8
top_labelLayer
10
333.6463199
20
50.1410589
40
3.8590748
50
99.1759393
51
137.9832718
0
ARC
8
top_labelLayer
10
334.0223124
20
48.3715944
40
5.6665533
50
89.7326454
51
100.0759818
0
ARC
8
top_labelLayer
10
334.0974591
20
49.1357673
40
4.9025606
50
73.5222838
51
90.5692246
0
ARC
8
top_labelLayer
10
334.3849654
20
50.1803559
40
3.8193795
50
41.1445673
51
73.2133872
0
ARC
8
top_labelLayer
10
333.8361378
20
49.7086465
40
4.5430453
50
13.5014436
51
41.0703389
0
ARC
8
top_labelLayer
10
331.7157568
20
49.1537715
40
6.7345211
50
1.1277231
51
13.8800035
0
ARC
8
top_labelLayer
10
329.8886346
20
49.0558906
40
8.5634395
50
359.9919502
51
1.5418968
0
ARC
8
top_labelLayer
10
338.5013558
20
49.0167704
40
7.3882463
50
179.7059517
51
187.9160916
0
ARC
8
top_labelLayer
10
335.7915927
20
48.6275146
40
4.650712
50
187.7639357
51
200.0976923
0
ARC
8
top_labelLayer
10
334.2987811
20
48.0805462
40
3.0608505
50
200.0845948
51
216.9131603
0
ARC
8
top_labelLayer
10
333.7536587
20
47.6913036
40
2.3912738
50
217.3009596
51
261.7099029
0
ARC
8
top_labelLayer
10
334.0067237
20
48.8989149
40
3.6235581
50
260.5033407
51
270.2476612
0
ARC
8
top_labelLayer
10
334.0550259
20
48.6640755
40
3.388842
50
269.4481511
51
284.7255753
0
ARC
8
top_labelLayer
10
334.3232998
20
47.6691349
40
2.3583975
50
284.5662359
51
322.6333794
0
ARC
8
top_labelLayer
10
333.6960579
20
48.1222885
40
3.1320016
50
323.0089342
51
342.639046
0
ARC
8
top_labelLayer
10
331.9020331
20
48.7086292
40
5.019315
50
342.3615507
51
353.7537764
0
ARC
8
top_labelLayer
10
329.2552208
20
49.0276693
40
7.6851818
50
353.5363078
51
0.2014305
0
ARC
8
top_labelLayer
10
329.660743
20
49.0918441
40
7.2797071
50
359.7075537
51
7.8972679
0
ARC
8
top_labelLayer
10
332.3267694
20
49.4740439
40
4.5864683
50
7.7439844
51
20.0690095
0
ARC
8
top_labelLayer
10
333.8123887
20
50.0192093
40
3.003982
50
20.0257089
51
37.4350472
0
ARC
8
top_labelLayer
10
334.3053065
20
50.368976
40
2.4000743
50
37.9577678
51
80.4006153
0
ARC
8
top_labelLayer
10
334.0251979
20
49.1191524
40
3.6797322
50
79.3453625
51
90.3174798
0
ARC
8
top_labelLayer
10
333.9733315
20
49.3267579
40
3.4722129
50
89.4805859
51
103.8804965
0
ARC
8
top_labelLayer
10
333.6815761
20
50.4377626
40
2.3237201
50
103.4685178
51
142.3118975
0
ARC
8
top_labelLayer
10
334.2487752
20
50.0388677
40
3.0166031
50
142.9025812
51
162.3749493
0
ARC
8
top_labelLayer
10
336.0360136
20
49.4432767
40
4.9003542
50
162.0653252
51
173.1674855
0
ARC
8
top_labelLayer
10
338.8227832
20
49.0878392
40
7.7096478
50
173.0086077
51
180.246374
0
LINE
8
top_labelLayer
10
342.4686756
20
45.46875
11
342.3632068
21
45.46875
0
LINE
8
top_labelLayer
10
342.4686756
20
43.8691406
11
342.4686756
21
39.9052734
0
LINE
8
top_labelLayer
10
342.4686756
20
39.9052734
11
341.0096912
21
39.9052734
0
LINE
8
top_labelLayer
10
341.0096912
20
39.9052734
11
341.0096912
21
53.8623047
0
LINE
8
top_labelLayer
10
341.0096912
20
53.8623047
11
342.1962146
21
53.8623047
0
LINE
8
top_labelLayer
10
342.1962146
20
53.8623047
11
342.3983631
21
52.5439453
0
LINE
8
top_labelLayer
10
342.3983631
20
52.5439453
11
342.4686756
21
52.5439453
0
LINE
8
top_labelLayer
10
342.4686756
20
49.3798828
11
342.4686756
21
49.0546875
0
ARC
8
top_labelLayer
10
345.4675102
20
48.479062
40
4.4254194
50
255.7755401
51
270.3185346
0
ARC
8
top_labelLayer
10
345.3412226
20
47.9179778
40
3.8505374
50
245.9801819
51
255.545576
0
ARC
8
top_labelLayer
10
345.0966103
20
47.349127
40
3.2313864
50
215.5850142
51
245.8361673
0
ARC
8
top_labelLayer
10
328.6646718
20
43.7377187
40
13.8074737
50
2.95034
51
7.2020746
0
ARC
8
top_labelLayer
10
330.8987753
20
43.8627183
40
11.569902
50
0.0318041
51
2.9015921
0
ARC
8
top_labelLayer
10
345.68253
20
50.2868508
40
3.9272555
50
132.3565091
51
144.9195783
0
ARC
8
top_labelLayer
10
345.0809097
20
50.9431986
40
3.0369005
50
115.4006369
51
132.3118194
0
ARC
8
top_labelLayer
10
345.3155765
20
50.371926
40
3.6537572
50
97.7066138
51
114.88216
0
ARC
8
top_labelLayer
10
345.4794726
20
49.3090084
40
4.7290946
50
89.8468529
51
97.9474462
0
ARC
8
top_labelLayer
10
345.5372687
20
49.5661563
40
4.4721576
50
74.1923474
51
90.5785286
0
ARC
8
top_labelLayer
10
345.8467163
20
50.6910623
40
3.3055089
50
38.052344
51
74.0417288
0
ARC
8
top_labelLayer
10
344.9932024
20
50.0368807
40
4.3808456
50
16.3356007
51
37.9090553
0
ARC
8
top_labelLayer
10
342.7509905
20
49.3462663
40
6.7268618
50
4.576669
51
16.6088718
0
ARC
8
top_labelLayer
10
339.9905813
20
49.0712149
40
9.5005694
50
359.9003267
51
4.9018072
0
ARC
8
top_labelLayer
10
340.9369042
20
49.0042201
40
8.5543812
50
350.6562914
51
0.3380242
0
ARC
8
top_labelLayer
10
343.91912
20
48.4969781
40
5.5294029
50
335.8305854
51
350.825498
0
ARC
8
top_labelLayer
10
345.2309265
20
47.9307825
40
4.1008214
50
321.3161425
51
335.5436233
0
ARC
8
top_labelLayer
10
345.7324382
20
47.5221265
40
3.4539233
50
274.06401
51
321.4080969
0
ARC
8
top_labelLayer
10
345.4987979
20
49.002087
40
4.9483807
50
269.9225978
51
275.5481788
0
ARC
8
top_labelLayer
10
345.2511257
20
48.5950267
40
4.2039089
50
89.590442
51
100.3501698
0
ARC
8
top_labelLayer
10
344.9513571
20
50.1698397
40
2.600891
50
100.0868288
51
118.1917756
0
ARC
8
top_labelLayer
10
344.6442694
20
50.7687646
40
1.9279793
50
118.5569642
51
141.0243139
0
ARC
8
top_labelLayer
10
345.1122065
20
50.4386895
40
2.4996584
50
141.8890194
51
160.5973161
0
ARC
8
top_labelLayer
10
346.7567353
20
49.8352625
40
4.2513125
50
160.2895572
51
171.2453205
0
ARC
8
top_labelLayer
10
349.4606876
20
49.3992961
40
6.990144
50
171.086844
51
178.3247349
0
ARC
8
top_labelLayer
10
351.7531548
20
49.2903371
40
9.2849111
50
178.0662196
51
179.4474182
0
ARC
8
top_labelLayer
10
352.1152452
20
49.0170171
40
9.6466432
50
179.7762577
51
185.7075417
0
ARC
8
top_labelLayer
10
348.3119478
20
48.6251398
40
5.8232399
50
185.5924843
51
194.2050628
0
ARC
8
top_labelLayer
10
345.8755488
20
47.9928089
40
3.306202
50
193.9430153
51
208.0218632
0
ARC
8
top_labelLayer
10
344.8897809
20
47.4913199
40
2.2004883
50
208.5536498
51
217.5605785
0
ARC
8
top_labelLayer
10
344.8094783
20
47.4579223
40
2.116592
50
218.1690622
51
253.8047108
0
ARC
8
top_labelLayer
10
345.2020649
20
48.6683098
40
3.3886738
50
253.1382555
51
266.8483068
0
ARC
8
top_labelLayer
10
345.3121551
20
49.9665875
40
4.691199
50
266.3775366
51
270.0510126
0
ARC
8
top_labelLayer
10
345.3495528
20
47.7335018
40
2.4583357
50
269.2257032
51
292.0430239
0
ARC
8
top_labelLayer
10
345.382722
20
47.5358268
40
2.2630787
50
293.1429746
51
324.1353896
0
ARC
8
top_labelLayer
10
344.8896716
20
47.9532484
40
2.9076243
50
323.1615907
51
325.0151327
0
ARC
8
top_labelLayer
10
344.362195
20
48.280284
40
3.5274653
50
325.575396
51
344.1504646
0
ARC
8
top_labelLayer
10
342.5368023
20
48.8198873
40
5.4308719
50
343.9336391
51
355.1137278
0
ARC
8
top_labelLayer
10
340.2066425
20
49.05633
40
7.7727916
50
354.8402173
51
0.117467
0
ARC
8
top_labelLayer
10
340.6170253
20
49.1094226
40
7.3624862
50
359.7108383
51
7.8610307
0
ARC
8
top_labelLayer
10
343.2940267
20
49.4910192
40
4.6584652
50
7.7149774
51
19.8859652
0
ARC
8
top_labelLayer
10
344.7663053
20
50.0228114
40
3.0930878
50
19.8991583
51
35.8980133
0
ARC
8
top_labelLayer
10
345.4230109
20
50.5201495
40
2.2695743
50
35.448162
51
85.2266549
0
ARC
8
top_labelLayer
10
345.2858224
20
49.6598449
40
3.1389867
50
84.0378816
51
90.084819
0
LINE
8
back_outsideCutPath
10
0
20
146
11
0
21
140.25
0
LINE
8
back_outsideCutPath
10
0
20
140.25
11
2
21
140.25
0
LINE
8
back_outsideCutPath
10
2
20
140.25
11
2
21
133.75
0
LINE
8
back_outsideCutPath
10
2
20
133.75
11
0
21
133.75
0
LINE
8
back_outsideCutPath
10
0
20
133.75
11
0
21
127.25
0
LINE
8
back_outsideCutPath
10
0
20
127.25
11
2
21
127.25
0
LINE
8
back_outsideCutPath
10
2
20
127.25
11
2
21
120.75
0
LINE
8
back_outsideCutPath
10
2
20
120.75
11
0
21
120.75
0
LINE
8
back_outsideCutPath
10
0
20
120.75
11
0
21
114.25
0
LINE
8
back_outsideCutPath
10
0
20
114.25
11
2
21
114.25
0
LINE
8
back_outsideCutPath
10
2
20
114.25
11
2
21
107.75
0
LINE
8
back_outsideCutPath
10
2
20
107.75
11
0
21
107.75
0
LINE
8
back_outsideCutPath
10
0
20
107.75
11
0
21
101.25
0
LINE
8
back_outsideCutPath
10
0
20
101.25
11
2
21
101.25
0
LINE
8
back_outsideCutPath
10
2
20
101.25
11
2
21
94.75
0
LINE
8
back_outsideCutPath
10
2
20
94.75
11
0
21
94.75
0
LINE
8
back_outsideCutPath
10
0
20
94.75
11
0
21
88.25
0
LINE
8
back_outsideCutPath
10
0
20
88.25
11
2
21
88.25
0
LINE
8
back_outsideCutPath
10
2
20
88.25
11
2
21
81.75
0
LINE
8
back_outsideCutPath
10
2
20
81.75
11
0
21
81.75
0
LINE
8
back_outsideCutPath
10
0
20
81.75
11
0
21
76
0
LINE
8
back_outsideCutPath
10
0
20
76
11
11.75
21
76
0
LINE
8
back_outsideCutPath
10
11.75
20
76
11
11.75
21
78
0
LINE
8
back_outsideCutPath
10
11.75
20
78
11
18.25
21
78
0
LINE
8
back_outsideCutPath
10
18.25
20
78
11
18.25
21
76
0
LINE
8
back_outsideCutPath
10
18.25
20
76
11
24.75
21
76
0
LINE
8
back_outsideCutPath
10
24.75
20
76
11
24.75
21
78
0
LINE
8
back_outsideCutPath
10
24.75
20
78
11
31.25
21
78
0
LINE
8
back_outsideCutPath
10
31.25
20
78
11
31.25
21
76
0
LINE
8
back_outsideCutPath
10
31.25
20
76
11
37.75
21
76
0
LINE
8
back_outsideCutPath
10
37.75
20
76
11
37.75
21
78
0
LINE
8
back_outsideCutPath
10
37.75
20
78
11
44.25
21
78
0
LINE
8
back_outsideCutPath
10
44.25
20
78
11
44.25
21
76
0
LINE
8
back_outsideCutPath
10
44.25
20
76
11
50.75
21
76
0
LINE
8
back_outsideCutPath
10
50.75
20
76
11
50.75
21
78
0
LINE
8
back_outsideCutPath
10
50.75
20
78
11
57.25
21
78
0
LINE
8
back_outsideCutPath
10
57.25
20
78
11
57.25
21
76
0
LINE
8
back_outsideCutPath
10
57.25
20
76
11
63.75
21
76
0
LINE
8
back_outsideCutPath
10
63.75
20
76
11
63.75
21
78
0
LINE
8
back_outsideCutPath
10
63.75
20
78
11
70.25
21
78
0
LINE
8
back_outsideCutPath
10
70.25
20
78
11
70.25
21
76
0
LINE
8
back_outsideCutPath
10
70.25
20
76
11
76.75
21
76
0
LINE
8
back_outsideCutPath
10
76.75
20
76
11
76.75
21
78
0
LINE
8
back_outsideCutPath
10
76.75
20
78
11
83.25
21
78
0
LINE
8
back_outsideCutPath
10
83.25
20
78
11
83.25
21
76
0
LINE
8
back_outsideCutPath
10
83.25
20
76
11
89.75
21
76
0
LINE
8
back_outsideCutPath
10
89.75
20
76
11
89.75
21
78
0
LINE
8
back_outsideCutPath
10
89.75
20
78
11
96.25
21
78
0
LINE
8
back_outsideCutPath
10
96.25
20
78
11
96.25
21
76
0
LINE
8
back_outsideCutPath
10
96.25
20
76
11
102.75
21
76
0
LINE
8
back_outsideCutPath
10
102.75
20
76
11
102.75
21
78
0
LINE
8
back_outsideCutPath
10
102.75
20
78
11
109.25
21
78
0
LINE
8
back_outsideCutPath
10
109.25
20
78
11
109.25
21
76
0
LINE
8
back_outsideCutPath
10
109.25
20
76
11
115.75
21
76
0
LINE
8
back_outsideCutPath
10
115.75
20
76
11
115.75
21
78
0
LINE
8
back_outsideCutPath
10
115.75
20
78
11
122.25
21
78
0
LINE
8
back_outsideCutPath
10
122.25
20
78
11
122.25
21
76
0
LINE
8
back_outsideCutPath
10
122.25
20
76
11
128.75
21
76
0
LINE
8
back_outsideCutPath
10
128.75
20
76
11
128.75
21
78
0
LINE
8
back_outsideCutPath
10
128.75
20
78
11
135.25
21
78
0
LINE
8
back_outsideCutPath
10
135.25
20
78
11
135.25
21
76
0
LINE
8
back_outsideCutPath
10
135.25
20
76
11
141.75
21
76
0
LINE
8
back_outsideCutPath
10
141.75
20
76
11
141.75
21
78
0
LINE
8
back_outsideCutPath
10
141.75
20
78
11
148.25
21
78
0
LINE
8
back_outsideCutPath
10
148.25
20
78
11
148.25
21
76
0
LINE
8
back_outsideCutPath
10
148.25
20
76
11
154.75
21
76
0
LINE
8
back_outsideCutPath
10
154.75
20
76
11
160
21
76
0
LINE
8
back_outsideCutPath
10
160
20
76
11
160
21
81.75
0
LINE
8
back_outsideCutPath
10
160
20
81.75
11
158
21
81.75
0
LINE
8
back_outsideCutPath
10
158
20
81.75
11
158
21
88.25
0
LINE
8
back_outsideCutPath
10
158
20
88.25
11
160
21
88.25
0
LINE
8
back_outsideCutPath
10
160
20
88.25
11
160
21
94.75
0
LINE
8
back_outsideCutPath
10
160
20
94.75
11
158
21
94.75
0
LINE
8
back_outsideCutPath
10
158
20
94.75
11
158
21
101.25
0
LINE
8
back_outsideCutPath
10
158
20
101.25
11
160
21
101.25
0
LINE
8
back_outsideCutPath
10
160
20
101.25
11
160
21
107.75
0
LINE
8
back_outsideCutPath
10
160
20
107.75
11
158
21
107.75
0
LINE
8
back_outsideCutPath
10
158
20
107.75
11
158
21
114.25
0
LINE
8
back_outsideCutPath
10
158
20
114.25
11
160
21
114.25
0
LINE
8
back_outsideCutPath
10
160
20
114.25
11
160
21
120.75
0
LINE
8
back_outsideCutPath
10
160
20
120.75
11
158
21
120.75
0
LINE
8
back_outsideCutPath
10
158
20
120.75
11
158
21
127.25
0
LINE
8
back_outsideCutPath
10
158
20
127.25
11
160
21
127.25
0
LINE
8
back_outsideCutPath
10
160
20
127.25
11
160
21
133.75
0
LINE
8
back_outsideCutPath
10
160
20
133.75
11
158
21
133.75
0
LINE
8
back_outsideCutPath
10
158
20
133.75
11
158
21
140.25
0
LINE
8
back_outsideCutPath
10
158
20
140.25
11
160
21
140.25
0
LINE
8
back_outsideCutPath
10
160
20
140.25
11
160
21
146
0
LINE
8
back_outsideCutPath
10
160
20
146
11
148.25
21
146
0
LINE
8
back_outsideCutPath
10
148.25
20
146
11
148.25
21
144
0
LINE
8
back_outsideCutPath
10
148.25
20
144
11
141.75
21
144
0
LINE
8
back_outsideCutPath
10
141.75
20
144
11
141.75
21
146
0
LINE
8
back_outsideCutPath
10
141.75
20
146
11
135.25
21
146
0
LINE
8
back_outsideCutPath
10
135.25
20
146
11
135.25
21
144
0
LINE
8
back_outsideCutPath
10
135.25
20
144
11
128.75
21
144
0
LINE
8
back_outsideCutPath
10
128.75
20
144
11
128.75
21
146
0
LINE
8
back_outsideCutPath
10
128.75
20
146
11
122.25
21
146
0
LINE
8
back_outsideCutPath
10
122.25
20
146
11
122.25
21
144
0
LINE
8
back_outsideCutPath
10
122.25
20
144
11
115.75
21
144
0
LINE
8
back_outsideCutPath
10
115.75
20
144
11
115.75
21
146
0
LINE
8
back_outsideCutPath
10
115.75
20
146
11
109.25
21
146
0
LINE
8
back_outsideCutPath
10
109.25
20
146
11
109.25
21
144
0
LINE
8
back_outsideCutPath
10
109.25
20
144
11
102.75
21
144
0
LINE
8
back_outsideCutPath
10
102.75
20
144
11
102.75
21
146
0
LINE
8
back_outsideCutPath
10
102.75
20
146
11
96.25
21
146
0
LINE
8
back_outsideCutPath
10
96.25
20
146
11
96.25
21
144
0
LINE
8
back_outsideCutPath
10
96.25
20
144
11
89.75
21
144
0
LINE
8
back_outsideCutPath
10
89.75
20
144
11
89.75
21
146
0
LINE
8
back_outsideCutPath
10
89.75
20
146
11
83.25
21
146
0
LINE
8
back_outsideCutPath
10
83.25
20
146
11
83.25
21
144
0
LINE
8
back_outsideCutPath
10
83.25
20
144
11
76.75
21
144
0
LINE
8
back_outsideCutPath
10
76.75
20
144
11
76.75
21
146
0
LINE
8
back_outsideCutPath
10
76.75
20
146
11
70.25
21
146
0
LINE
8
back_outsideCutPath
10
70.25
20
146
11
70.25
21
144
0
LINE
8
back_outsideCutPath
10
70.25
20
144
11
63.75
21
144
0
LINE
8
back_outsideCutPath
10
63.75
20
144
11
63.75
21
146
0
LINE
8
back_outsideCutPath
10
63.75
20
146
11
57.25
21
146
0
LINE
8
back_outsideCutPath
10
57.25
20
146
11
57.25
21
144
0
LINE
8
back_outsideCutPath
10
57.25
20
144
11
50.75
21
144
0
LINE
8
back_outsideCutPath
10
50.75
20
144
11
50.75
21
146
0
LINE
8
back_outsideCutPath
10
50.75
20
146
11
44.25
21
146
0
LINE
8
back_outsideCutPath
10
44.25
20
146
11
44.25
21
144
0
LINE
8
back_outsideCutPath
10
44.25
20
144
11
37.75
21
144
0
LINE
8
back_outsideCutPath
10
37.75
20
144
11
37.75
21
146
0
LINE
8
back_outsideCutPath
10
37.75
20
146
11
31.25
21
146
0
LINE
8
back_outsideCutPath
10
31.25
20
146
11
31.25
21
144
0
LINE
8
back_outsideCutPath
10
31.25
20
144
11
24.75
21
144
0
LINE
8
back_outsideCutPath
10
24.75
20
144
11
24.75
21
146
0
LINE
8
back_outsideCutPath
10
24.75
20
146
11
18.25
21
146
0
LINE
8
back_outsideCutPath
10
18.25
20
146
11
18.25
21
144
0
LINE
8
back_outsideCutPath
10
18.25
20
144
11
11.75
21
144
0
LINE
8
back_outsideCutPath
10
11.75
20
144
11
11.75
21
146
0
LINE
8
back_outsideCutPath
10
11.75
20
146
11
5.25
21
146
0
LINE
8
back_outsideCutPath
10
5.25
20
146
11
0
21
146
0
LINE
8
back_labelLayer
10
66.6220703
20
106.7139444
11
66.5400391
21
106.7139444
0
LINE
8
back_labelLayer
10
66.5400391
20
106.7139444
11
66.3007813
21
105.7500772
0
LINE
8
back_labelLayer
10
66.3007813
20
105.7500772
11
65.4873047
21
105.7500772
0
LINE
8
back_labelLayer
10
65.4873047
20
105.7500772
11
65.4873047
21
116.386796
0
LINE
8
back_labelLayer
10
65.4873047
20
116.386796
11
66.6220703
21
116.386796
0
LINE
8
back_labelLayer
10
66.6220703
20
116.386796
11
66.6220703
21
113.8028116
0
LINE
8
back_labelLayer
10
66.5673828
20
112.2442179
11
66.6220703
21
112.2442179
0
ARC
8
back_labelLayer
10
69.0076742
20
109.8972397
40
3.468239
50
74.2393378
51
90.5623781
0
ARC
8
back_labelLayer
10
69.2370063
20
110.7385548
40
2.596274
50
38.5631196
51
74.0670406
0
ARC
8
back_labelLayer
10
68.646835
20
110.279661
40
3.3438178
50
16.4709216
51
38.407539
0
ARC
8
back_labelLayer
10
66.9466338
20
109.7465267
40
5.1254912
50
5.1338466
51
16.7973459
0
ARC
8
back_labelLayer
10
64.8003165
20
109.5185272
40
7.2836844
50
359.8779124
51
5.409378
0
ARC
8
back_labelLayer
10
65.4306878
20
109.4637546
40
6.6534124
50
350.6562969
51
0.3380228
0
ARC
8
back_labelLayer
10
67.750188
20
109.0692348
40
4.3006527
50
335.8305943
51
350.8254858
0
ARC
8
back_labelLayer
10
68.7704955
20
108.6288539
40
3.1895187
50
321.3161197
51
335.543641
0
ARC
8
back_labelLayer
10
69.1605527
20
108.3110147
40
2.6863843
50
274.0640035
51
321.4080983
0
ARC
8
back_labelLayer
10
68.9788357
20
109.4620774
40
3.8487223
50
269.9225448
51
275.5481523
0
ARC
8
back_labelLayer
10
68.9544958
20
109.0552941
40
3.4419889
50
255.7755471
51
270.3185591
0
ARC
8
back_labelLayer
10
68.8562795
20
108.6189149
40
2.9948789
50
245.9801989
51
255.5455399
0
ARC
8
back_labelLayer
10
68.6660209
20
108.1764618
40
2.5133029
50
215.5850331
51
245.8361583
0
ARC
8
back_labelLayer
10
42.9631947
20
113.7828047
40
23.6588841
50
358.112327
51
0.0484515
0
ARC
8
back_labelLayer
10
49.5479092
20
113.5617377
40
17.0704613
50
355.7238524
51
358.1259058
0
ARC
8
back_labelLayer
10
52.4450264
20
113.3627301
40
14.1665811
50
355.4715398
51
355.6528085
0
ARC
8
back_labelLayer
10
68.7383587
20
110.7684729
40
2.5800193
50
95.1835114
51
145.1108966
0
ARC
8
back_labelLayer
10
68.9651326
20
109.4896705
40
3.8756504
50
89.8743367
51
96.8145301
0
ARC
8
back_labelLayer
10
68.7858134
20
109.2264219
40
3.1887829
50
89.5731335
51
100.7324378
0
ARC
8
back_labelLayer
10
68.5497544
20
110.4190702
40
1.973062
50
100.446944
51
119.6700712
0
ARC
8
back_labelLayer
10
68.3308561
20
110.8283258
40
1.5091588
50
120.1402758
51
142.4248779
0
ARC
8
back_labelLayer
10
68.6930047
20
110.5887536
40
1.9425194
50
143.3382366
51
161.2559979
0
ARC
8
back_labelLayer
10
70.2074666
20
110.0510711
40
3.5495104
50
160.8926721
51
171.2333942
0
ARC
8
back_labelLayer
10
72.7356248
20
109.6432205
40
6.1103194
50
171.0667692
51
177.8456727
0
ARC
8
back_labelLayer
10
75.3649289
20
109.5094928
40
8.7428612
50
177.6176499
51
180.0425051
0
ARC
8
back_labelLayer
10
74.1249772
20
109.4737073
40
7.5029641
50
179.7762555
51
185.7075242
0
ARC
8
back_labelLayer
10
71.1668362
20
109.1689138
40
4.5291852
50
185.59248
51
194.2050613
0
ARC
8
back_labelLayer
10
69.2718629
20
108.6771022
40
2.5714929
50
193.94302
51
208.0218544
0
ARC
8
back_labelLayer
10
68.5051602
20
108.287059
40
1.7115001
50
208.5536605
51
217.5605407
0
ARC
8
back_labelLayer
10
68.4426938
20
108.2610766
40
1.6462364
50
218.169033
51
253.8047229
0
ARC
8
back_labelLayer
10
68.7480398
20
109.2024901
40
2.6356344
50
253.1382494
51
266.848305
0
ARC
8
back_labelLayer
10
68.833666
20
110.2122553
40
3.6487032
50
266.3775207
51
270.0510039
0
ARC
8
back_labelLayer
10
68.8611196
20
108.8255715
40
2.2621473
50
269.3869083
51
285.8630602
0
ARC
8
back_labelLayer
10
69.0291827
20
108.2181662
40
1.631941
50
286.0163033
51
326.8497284
0
ARC
8
back_labelLayer
10
68.2180258
20
108.755528
40
2.6049303
50
326.7105004
51
343.6661902
0
ARC
8
back_labelLayer
10
66.6995769
20
109.2195157
40
4.1926222
50
343.4171562
51
353.6369239
0
ARC
8
back_labelLayer
10
64.4061478
20
109.491649
40
6.5021035
50
353.4934709
51
0.2205605
0
ARC
8
back_labelLayer
10
64.2039367
20
109.5438145
40
6.7043213
50
359.768095
51
6.3095117
0
ARC
8
back_labelLayer
10
66.7293277
20
109.8336163
40
4.1623916
50
6.1648728
51
16.0396328
0
ARC
8
back_labelLayer
10
68.356141
20
110.3130375
40
2.4664694
50
15.7779331
51
32.0151359
0
ARC
8
back_labelLayer
10
68.8632928
20
110.6034496
40
1.8826272
50
32.7035799
51
35.5241557
0
ARC
8
back_labelLayer
10
69.0489719
20
110.7354193
40
1.6548281
50
35.5408388
51
79.8011227
0
ARC
8
back_labelLayer
10
68.8267454
20
109.7906932
40
2.6244794
50
78.6781199
51
90.3749563
0
LINE
8
back_labelLayer
10
79.5146484
20
105.7500772
11
78.6738281
21
105.7500772
0
LINE
8
back_labelLayer
10
78.6738281
20
105.7500772
11
78.4482422
21
106.8164835
0
LINE
8
back_labelLayer
10
78.4482422
20
106.8164835
11
78.3935547
21
106.8164835
0
LINE
8
back_labelLayer
10
77.1357422
20
110.2002725
11
78.4072266
21
110.2412882
0
LINE
8
back_labelLayer
10
78.4072266
20
110.2412882
11
78.4072266
21
110.7061319
0
LINE
8
back_labelLayer
10
74.6953125
20
111.8545694
11
74.3466797
21
112.7227335
0
LINE
8
back_labelLayer
10
79.5146484
20
110.8633585
11
79.5146484
21
105.7500772
0
LINE
8
back_labelLayer
10
78.3798828
20
108.7578897
11
78.3798828
21
109.4346475
0
LINE
8
back_labelLayer
10
78.3798828
20
109.4346475
11
77.2451172
21
109.386796
0
ARC
8
back_labelLayer
10
74.7014741
20
109.7315597
40
4.7041607
50
314.7445176
51
321.7072009
0
ARC
8
back_labelLayer
10
75.8572124
20
108.5572419
40
3.0565254
50
304.8485525
51
314.8530715
0
ARC
8
back_labelLayer
10
76.4124018
20
107.7669882
40
2.0907553
50
294.3932833
51
304.7371132
0
ARC
8
back_labelLayer
10
76.2227278
20
108.2584519
40
2.6168567
50
281.2979568
51
293.7313615
0
ARC
8
back_labelLayer
10
75.9719851
20
109.473678
40
3.8576649
50
272.9335051
51
281.4139143
0
ARC
8
back_labelLayer
10
75.8888734
20
110.720147
40
5.1067901
50
269.953913
51
273.1490593
0
ARC
8
back_labelLayer
10
75.8601665
20
109.0957186
40
3.482447
50
258.6719692
51
270.4047259
0
ARC
8
back_labelLayer
10
75.6182691
20
107.9385828
40
2.3003602
50
238.3273043
51
258.918391
0
ARC
8
back_labelLayer
10
75.4515675
20
107.6344601
40
1.9540848
50
227.7689252
51
237.8050539
0
ARC
8
back_labelLayer
10
75.3994355
20
107.5616824
40
1.8651867
50
192.0827787
51
227.452065
0
ARC
8
back_labelLayer
10
76.3610467
20
107.7987283
40
2.855277
50
179.5457276
51
192.6949331
0
ARC
8
back_labelLayer
10
75.4677165
20
107.9021112
40
1.963518
50
115.4904586
51
182.3568144
0
ARC
8
back_labelLayer
10
76.4510677
20
106.0984431
40
4.0163527
50
101.3568156
51
117.0798646
0
ARC
8
back_labelLayer
10
77.2407911
20
102.4079895
40
7.7902029
50
92.4696303
51
101.7064831
0
ARC
8
back_labelLayer
10
77.4678025
20
99.119791
40
11.0854561
50
91.7165284
51
92.909544
0
ARC
8
back_labelLayer
10
75.1479622
20
110.7235782
40
3.2593111
50
359.6933087
51
8.0035736
0
ARC
8
back_labelLayer
10
76.3808776
20
110.9031866
40
2.0134067
50
7.8273077
51
20.6041288
0
ARC
8
back_labelLayer
10
77.0785892
20
111.1700941
40
1.2664049
50
20.409425
51
41.4479798
0
ARC
8
back_labelLayer
10
77.1816741
20
111.2267578
40
1.1519173
50
42.7295429
51
71.0380396
0
ARC
8
back_labelLayer
10
76.9389749
20
110.5668505
40
1.8549386
50
70.5716665
51
83.9928384
0
ARC
8
back_labelLayer
10
76.8230318
20
109.6250424
40
2.8037589
50
83.6506748
51
90.1753076
0
ARC
8
back_labelLayer
10
76.8433695
20
108.7343545
40
3.6945469
50
90.4484456
51
103.7665443
0
ARC
8
back_labelLayer
10
77.2778316
20
106.9022143
40
5.5774606
50
103.6226615
51
112.432005
0
ARC
8
back_labelLayer
10
78.022503
20
105.0219605
40
7.5996541
50
112.2121929
51
115.9641162
0
ARC
8
back_labelLayer
10
76.8299452
20
108.1175468
40
5.2320505
50
106.3568698
51
118.3349814
0
ARC
8
back_labelLayer
10
77.0527128
20
107.4294622
40
5.9550548
50
104.5161755
51
106.5490421
0
ARC
8
back_labelLayer
10
76.8893654
20
108.1100844
40
5.2552313
50
90.0714441
51
104.6521028
0
ARC
8
back_labelLayer
10
76.9099897
20
108.5727735
40
4.7926151
50
81.5679579
51
90.3249059
0
ARC
8
back_labelLayer
10
77.1870938
20
110.3780148
40
2.9662692
50
68.2273253
51
81.7494273
0
ARC
8
back_labelLayer
10
77.5730507
20
111.338307
40
1.9313218
50
47.8683216
51
68.2934062
0
ARC
8
back_labelLayer
10
77.6356912
20
111.4633828
40
1.7969337
50
19.233112
51
46.6741017
0
ARC
8
back_labelLayer
10
76.5921846
20
111.0751962
40
2.9101609
50
6.3379004
51
19.6815429
0
ARC
8
back_labelLayer
10
75.0496304
20
110.8787357
40
4.4650447
50
359.8026779
51
6.6583764
0
ARC
8
back_labelLayer
10
76.1332966
20
109.6741436
40
3.124346
50
269.5792197
51
282.0413496
0
ARC
8
back_labelLayer
10
76.3611961
20
108.663274
40
2.0882088
50
281.7120961
51
306.4594024
0
ARC
8
back_labelLayer
10
76.4622846
20
108.497045
40
1.894523
50
306.9880185
51
313.856031
0
ARC
8
back_labelLayer
10
76.450228
20
108.4936432
40
1.9004555
50
314.1891948
51
347.4269885
0
ARC
8
back_labelLayer
10
75.498239
20
108.7322071
40
2.8816606
50
346.9177675
51
0.2824599
0
ARC
8
back_labelLayer
10
74.7257127
20
108.7579463
40
3.6541701
50
359.8191646
51
359.9991123
0
ARC
8
back_labelLayer
10
77.5150502
20
101.0589699
40
8.3321996
50
91.8565001
51
96.4478188
0
ARC
8
back_labelLayer
10
77.1392852
20
104.3105823
40
5.0589641
50
96.354523
51
102.9953434
0
ARC
8
back_labelLayer
10
76.6292278
20
106.4776538
40
2.832714
50
102.7995391
51
113.2433411
0
ARC
8
back_labelLayer
10
76.2087548
20
107.4832638
40
1.7428198
50
113.5886903
51
121.6805012
0
ARC
8
back_labelLayer
10
75.9166142
20
107.9281872
40
1.2108597
50
120.9734143
51
172.4179805
0
ARC
8
back_labelLayer
10
76.4876282
20
107.8141316
40
1.7923273
50
171.2122209
51
180.2057797
0
ARC
8
back_labelLayer
10
76.3169636
20
107.7942951
40
1.6217064
50
179.5265898
51
192.7787582
0
ARC
8
back_labelLayer
10
75.7683697
20
107.6613121
40
1.0573194
50
192.3264131
51
222.058015
0
ARC
8
back_labelLayer
10
75.7275926
20
107.6369393
40
1.0107588
50
222.580655
51
229.2545804
0
ARC
8
back_labelLayer
10
75.8654559
20
107.814441
40
1.2352732
50
229.7837091
51
254.2724375
0
ARC
8
back_labelLayer
10
76.0491065
20
108.4264375
40
1.8741702
50
253.9396673
51
266.4534052
0
ARC
8
back_labelLayer
10
76.1077198
20
109.1020589
40
2.5521782
50
266.078334
51
270.0590819
0
LINE
8
back_labelLayer
10
86.8496094
20
112.989335
11
86.5009766
21
112.0254679
0
LINE
8
back_labelLayer
10
86.7402344
20
107.0078897
11
86.7402344
21
106.0030069
0
ARC
8
back_labelLayer
10
84.8104846
20
109.8542782
40
4.2410741
50
256.4243836
51
270.4889924
0
ARC
8
back_labelLayer
10
84.471584
20
108.531574
40
2.8758378
50
221.797633
51
256.8020447
0
ARC
8
back_labelLayer
10
84.7997709
20
108.7740581
40
3.2823379
50
196.0166575
51
221.1349209
0
ARC
8
back_labelLayer
10
86.4492035
20
109.2782109
40
5.0069332
50
183.5913572
51
196.353963
0
ARC
8
back_labelLayer
10
88.297001
20
109.4409967
40
6.8614579
50
179.9388522
51
183.9814909
0
ARC
8
back_labelLayer
10
87.6965951
20
109.4886319
40
6.261178
50
169.8978279
51
180.3689006
0
ARC
8
back_labelLayer
10
85.5169446
20
109.8918375
40
4.0446223
50
153.0875237
51
170.1051465
0
ARC
8
back_labelLayer
10
84.6899356
20
110.2870042
40
3.1283922
50
138.6550159
51
152.6853574
0
ARC
8
back_labelLayer
10
84.5355798
20
110.3994888
40
2.9382561
50
101.4912806
51
138.3133984
0
ARC
8
back_labelLayer
10
84.8899378
20
108.9246866
40
4.4544114
50
89.5891971
51
102.1787641
0
ARC
8
back_labelLayer
10
84.9171852
20
108.2581069
40
5.1208788
50
77.7702438
51
89.947527
0
ARC
8
back_labelLayer
10
84.8202811
20
107.7234665
40
5.6639439
50
74.6796864
51
77.9578863
0
ARC
8
back_labelLayer
10
85.343814
20
109.6201381
40
3.6963494
50
70.0945506
51
74.7385796
0
ARC
8
back_labelLayer
10
85.8418299
20
110.9849507
40
2.2435206
50
63.5033828
51
70.18613
0
ARC
8
back_labelLayer
10
86.0756205
20
111.4749292
40
1.7007304
50
62.9291444
51
63.1877828
0
ARC
8
back_labelLayer
10
84.6368572
20
107.3341281
40
5.0481293
50
68.3294381
51
74.8831584
0
ARC
8
back_labelLayer
10
84.3705459
20
106.389858
40
6.0291846
50
74.780132
51
77.4497313
0
ARC
8
back_labelLayer
10
84.6501522
20
107.7022902
40
4.6873706
50
77.2998592
51
81.7345597
0
ARC
8
back_labelLayer
10
84.8540828
20
109.123304
40
3.2518013
50
81.6910099
51
87.5079454
0
ARC
8
back_labelLayer
10
84.8934317
20
109.8589623
40
2.5151386
50
87.6748027
51
89.9749509
0
ARC
8
back_labelLayer
10
84.8382781
20
109.857652
40
2.5170773
50
88.719412
51
112.5667711
0
ARC
8
back_labelLayer
10
84.6594222
20
110.4489947
40
1.9033771
50
114.4265732
51
161.6632831
0
ARC
8
back_labelLayer
10
86.436177
20
109.7535547
40
3.8100447
50
160.1418542
51
175.1368081
0
ARC
8
back_labelLayer
10
88.8816352
20
109.4789505
40
6.2703298
50
174.5309971
51
180.1549668
0
ARC
8
back_labelLayer
10
88.1068774
20
109.4336127
40
5.4956225
50
179.7041316
51
188.0743768
0
ARC
8
back_labelLayer
10
86.1274349
20
109.1439987
40
3.4951353
50
187.931536
51
200.3885188
0
ARC
8
back_labelLayer
10
85.0571123
20
108.7475002
40
2.3537329
50
200.4183375
51
216.6392871
0
ARC
8
back_labelLayer
10
84.6084156
20
108.4267377
40
1.8023017
50
216.9695437
51
261.3102971
0
ARC
8
back_labelLayer
10
84.8064369
20
109.3499536
40
2.7454144
50
260.1359669
51
270.2691991
0
ARC
8
back_labelLayer
10
84.7972948
20
111.3547899
40
4.7502716
50
270.2658517
51
286.2891313
0
ARC
8
back_labelLayer
10
84.5085134
20
112.4317435
40
5.8650462
50
286.0460805
51
292.3654053
0
ARC
8
back_labelLayer
10
85.2775796
20
108.880398
40
3.2278071
50
282.034417
51
296.9454483
0
ARC
8
back_labelLayer
10
84.9456173
20
110.3764291
40
4.7601902
50
272.5980603
51
282.1878245
0
ARC
8
back_labelLayer
10
84.8504219
20
111.8364576
40
6.2231004
50
269.9655455
51
272.8642863
0
LINE
8
back_labelLayer
10
89.5839844
20
109.5850382
11
89.6386719
21
109.5850382
0
LINE
8
back_labelLayer
10
90.5341797
20
110.6787882
11
92.9541016
21
113.2422647
0
LINE
8
back_labelLayer
10
92.9541016
20
113.2422647
11
94.3007813
21
113.2422647
0
LINE
8
back_labelLayer
10
94.3007813
20
113.2422647
11
91.265625
21
110.0498819
0
LINE
8
back_labelLayer
10
91.265625
20
110.0498819
11
94.5126953
21
105.7500772
0
LINE
8
back_labelLayer
10
94.5126953
20
105.7500772
11
93.1386719
21
105.7500772
0
LINE
8
back_labelLayer
10
93.1386719
20
105.7500772
11
90.4931641
21
109.2910929
0
LINE
8
back_labelLayer
10
90.4931641
20
109.2910929
11
89.6386719
21
108.5528116
0
LINE
8
back_labelLayer
10
89.6386719
20
108.5528116
11
89.6386719
21
105.7500772
0
LINE
8
back_labelLayer
10
89.6386719
20
105.7500772
11
88.5175781
21
105.7500772
0
LINE
8
back_labelLayer
10
88.5175781
20
105.7500772
11
88.5175781
21
116.386796
0
LINE
8
back_labelLayer
10
88.5175781
20
116.386796
11
89.6386719
21
116.386796
0
LINE
8
back_labelLayer
10
89.6386719
20
116.386796
11
89.6386719
21
110.7471475
0
ARC
8
back_labelLayer
10
95.1219052
20
105.703771
40
6.7178927
50
142.323435
51
144.707507
0
ARC
8
back_labelLayer
10
98.699468
20
102.9442953
40
11.2360403
50
140.4331604
51
142.3365211
0
ARC
8
back_labelLayer
10
103.3605003
20
99.1074469
40
17.2731378
50
139.2798929
51
140.4703685
0
ARC
8
back_labelLayer
10
108.7514315
20
94.4716074
40
24.3832108
50
138.3417535
51
139.2877031
0
ARC
8
back_labelLayer
10
82.0769001
20
110.7612911
40
7.561785
50
358.2739475
51
359.8928342
0
ARC
8
back_labelLayer
10
76.1916927
20
110.9253242
40
13.4492694
50
357.5042058
51
358.3306422
0
ARC
8
back_labelLayer
10
67.387676
20
111.3142045
40
22.2618696
50
356.6325355
51
357.4909992
0
ARC
8
back_labelLayer
10
52.756076
20
112.1675481
40
36.9183315
50
356.032902
51
356.6443039
0
ARC
8
back_labelLayer
10
42.9260582
20
112.8307466
40
46.7706822
50
356.0206913
51
356.0555244
0
LINE
8
right_outsideCutPath
10
165
20
146
11
165
21
140.25
0
LINE
8
right_outsideCutPath
10
165
20
140.25
11
163
21
140.25
0
LINE
8
right_outsideCutPath
10
163
20
140.25
11
163
21
133.75
0
LINE
8
right_outsideCutPath
10
163
20
133.75
11
165
21
133.75
0
LINE
8
right_outsideCutPath
10
165
20
133.75
11
165
21
127.25
0
LINE
8
right_outsideCutPath
10
165
20
127.25
11
163
21
127.25
0
LINE
8
right_outsideCutPath
10
163
20
127.25
11
163
21
120.75
0
LINE
8
right_outsideCutPath
10
163
20
120.75
11
165
21
120.75
0
LINE
8
right_outsideCutPath
10
165
20
120.75
11
165
21
114.25
0
LINE
8
right_outsideCutPath
10
165
20
114.25
11
163
21
114.25
0
LINE
8
right_outsideCutPath
10
163
20
114.25
11
163
21
107.75
0
LINE
8
right_outsideCutPath
10
163
20
107.75
11
165
21
107.75
0
LINE
8
right_outsideCutPath
10
165
20
107.75
11
165
21
101.25
0
LINE
8
right_outsideCutPath
10
165
20
101.25
11
163
21
101.25
0
LINE
8
right_outsideCutPath
10
163
20
101.25
11
163
21
94.75
0
LINE
8
right_outsideCutPath
10
163
20
94.75
11
165
21
94.75
0
LINE
8
right_outsideCutPath
10
165
20
94.75
11
165
21
88.25
0
LINE
8
right_outsideCutPath
10
165
20
88.25
11
163
21
88.25
0
LINE
8
right_outsideCutPath
10
163
20
88.25
11
163
21
81.75
0
LINE
8
right_outsideCutPath
10
163
20
81.75
11
165
21
81.75
0
LINE
8
right_outsideCutPath
10
165
20
81.75
11
165
21
76
0
LINE
8
right_outsideCutPath
10
165
20
76
11
172.25
21
76
0
LINE
8
right_outsideCutPath
10
172.25
20
76
11
172.25
21
78
0
LINE
8
right_outsideCutPath
10
172.25
20
78
11
178.75
21
78
0
LINE
8
right_outsideCutPath
10
178.75
20
78
11
178.75
21
76
0
LINE
8
right_outsideCutPath
10
178.75
20
76
11
185.25
21
76
0
LINE
8
right_outsideCutPath
10
185.25
20
76
11
185.25
21
78
0
LINE
8
right_outsideCutPath
10
185.25
20
78
11
191.75
21
78
0
LINE
8
right_outsideCutPath
10
191.75
20
78
11
191.75
21
76
0
LINE
8
right_outsideCutPath
10
191.75
20
76
11
198.25
21
76
0
LINE
8
right_outsideCutPath
10
198.25
20
76
11
198.25
21
78
0
LINE
8
right_outsideCutPath
10
198.25
20
78
11
204.75
21
78
0
LINE
8
right_outsideCutPath
10
204.75
20
78
11
204.75
21
76
0
LINE
8
right_outsideCutPath
10
204.75
20
76
11
211.25
21
76
0
LINE
8
right_outsideCutPath
10
211.25
20
76
11
211.25
21
78
0
LINE
8
right_outsideCutPath
10
211.25
20
78
11
217.75
21
78
0
LINE
8
right_outsideCutPath
10
217.75
20
78
11
217.75
21
76
0
LINE
8
right_outsideCutPath
10
217.75
20
76
11
224.25
21
76
0
LINE
8
right_outsideCutPath
10
224.25
20
76
11
224.25
21
78
0
LINE
8
right_outsideCutPath
10
224.25
20
78
11
230.75
21
78
0
LINE
8
right_outsideCutPath
10
230.75
20
78
11
230.75
21
76
0
LINE
8
right_outsideCutPath
10
230.75
20
76
11
237.25
21
76
0
LINE
8
right_outsideCutPath
10
237.25
20
76
11
237.25
21
78
0
LINE
8
right_outsideCutPath
10
237.25
20
78
11
243.75
21
78
0
LINE
8
right_outsideCutPath
10
243.75
20
78
11
243.75
21
76
0
LINE
8
right_outsideCutPath
10
243.75
20
76
11
250.25
21
76
0
LINE
8
right_outsideCutPath
10
250.25
20
76
11
251
21
76
0
LINE
8
right_outsideCutPath
10
251
20
76
11
251
21
81.75
0
LINE
8
right_outsideCutPath
10
251
20
81.75
11
253
21
81.75
0
LINE
8
right_outsideCutPath
10
253
20
81.75
11
253
21
88.25
0
LINE
8
right_outsideCutPath
10
253
20
88.25
11
251
21
88.25
0
LINE
8
right_outsideCutPath
10
251
20
88.25
11
251
21
94.75
0
LINE
8
right_outsideCutPath
10
251
20
94.75
11
253
21
94.75
0
LINE
8
right_outsideCutPath
10
253
20
94.75
11
253
21
101.25
0
LINE
8
right_outsideCutPath
10
253
20
101.25
11
251
21
101.25
0
LINE
8
right_outsideCutPath
10
251
20
101.25
11
251
21
107.75
0
LINE
8
right_outsideCutPath
10
251
20
107.75
11
253
21
107.75
0
LINE
8
right_outsideCutPath
10
253
20
107.75
11
253
21
114.25
0
LINE
8
right_outsideCutPath
10
253
20
114.25
11
251
21
114.25
0
LINE
8
right_outsideCutPath
10
251
20
114.25
11
251
21
120.75
0
LINE
8
right_outsideCutPath
10
251
20
120.75
11
253
21
120.75
0
LINE
8
right_outsideCutPath
10
253
20
120.75
11
253
21
127.25
0
LINE
8
right_outsideCutPath
10
253
20
127.25
11
251
21
127.25
0
LINE
8
right_outsideCutPath
10
251
20
127.25
11
251
21
133.75
0
LINE
8
right_outsideCutPath
10
251
20
133.75
11
253
21
133.75
0
LINE
8
right_outsideCutPath
10
253
20
133.75
11
253
21
140.25
0
LINE
8
right_outsideCutPath
10
253
20
140.25
11
251
21
140.25
0
LINE
8
right_outsideCutPath
10
251
20
140.25
11
251
21
146
0
LINE
8
right_outsideCutPath
10
251
20
146
11
243.75
21
146
0
LINE
8
right_outsideCutPath
10
243.75
20
146
11
243.75
21
144
0
LINE
8
right_outsideCutPath
10
243.75
20
144
11
237.25
21
144
0
LINE
8
right_outsideCutPath
10
237.25
20
144
11
237.25
21
146
0
LINE
8
right_outsideCutPath
10
237.25
20
146
11
230.75
21
146
0
LINE
8
right_outsideCutPath
10
230.75
20
146
11
230.75
21
144
0
LINE
8
right_outsideCutPath
10
230.75
20
144
11
224.25
21
144
0
LINE
8
right_outsideCutPath
10
224.25
20
144
11
224.25
21
146
0
LINE
8
right_outsideCutPath
10
224.25
20
146
11
217.75
21
146
0
LINE
8
right_outsideCutPath
10
217.75
20
146
11
217.75
21
144
0
LINE
8
right_outsideCutPath
10
217.75
20
144
11
211.25
21
144
0
LINE
8
right_outsideCutPath
10
211.25
20
144
11
211.25
21
146
0
LINE
8
right_outsideCutPath
10
211.25
20
146
11
204.75
21
146
0
LINE
8
right_outsideCutPath
10
204.75
20
146
11
204.75
21
144
0
LINE
8
right_outsideCutPath
10
204.75
20
144
11
198.25
21
144
0
LINE
8
right_outsideCutPath
10
198.25
20
144
11
198.25
21
146
0
LINE
8
right_outsideCutPath
10
198.25
20
146
11
191.75
21
146
0
LINE
8
right_outsideCutPath
10
191.75
20
146
11
191.75
21
144
0
LINE
8
right_outsideCutPath
10
191.75
20
144
11
185.25
21
144
0
LINE
8
right_outsideCutPath
10
185.25
20
144
11
185.25
21
146
0
LINE
8
right_outsideCutPath
10
185.25
20
146
11
178.75
21
146
0
LINE
8
right_outsideCutPath
10
178.75
20
146
11
178.75
21
144
0
LINE
8
right_outsideCutPath
10
178.75
20
144
11
172.25
21
144
0
LINE
8
right_outsideCutPath
10
172.25
20
144
11
172.25
21
146
0
LINE
8
right_outsideCutPath
10
172.25
20
146
11
165.75
21
146
0
LINE
8
right_outsideCutPath
10
165.75
20
146
11
165
21
146
0
LINE
8
right_labelLayer
10
197.8315429
20
114.9101976
11
197.6743164
21
113.8574632
0
LINE
8
right_labelLayer
10
194.652832
20
111.3828539
11
194.652832
21
107.3633226
0
LINE
8
right_labelLayer
10
194.652832
20
107.3633226
11
193.5180664
21
107.3633226
0
LINE
8
right_labelLayer
10
193.5180664
20
107.3633226
11
193.5180664
21
114.8555101
0
LINE
8
right_labelLayer
10
193.5180664
20
114.8555101
11
194.4545898
21
114.8555101
0
LINE
8
right_labelLayer
10
194.4545898
20
114.8555101
11
194.5844726
21
113.4678148
0
LINE
8
right_labelLayer
10
194.5844726
20
113.4678148
11
194.6391601
21
113.4678148
0
ARC
8
right_labelLayer
10
196.9476826
20
109.7827222
40
5.2095197
50
84.9922805
51
90.1281026
0
ARC
8
right_labelLayer
10
197.0727903
20
111.1844001
40
3.8022721
50
78.4892118
51
85.0266028
0
ARC
8
right_labelLayer
10
196.5872161
20
108.9759089
40
5.0011359
50
77.4453531
51
81.6360748
0
ARC
8
right_labelLayer
10
196.8050926
20
110.4777224
40
3.4836043
50
81.5884637
51
87.1916172
0
ARC
8
right_labelLayer
10
196.8524281
20
111.298584
40
2.6614187
50
87.343603
51
89.9660771
0
ARC
8
right_labelLayer
10
196.8414284
20
111.9938293
40
1.9662132
50
89.633545
51
137.0880786
0
ARC
8
right_labelLayer
10
197.3239748
20
111.4511913
40
2.6899805
50
135.6208846
51
138.8376967
0
ARC
8
right_labelLayer
10
197.2532639
20
111.5202131
40
2.5913218
50
138.9575682
51
174.5422324
0
ARC
8
right_labelLayer
10
198.097211
20
111.3881607
40
3.4443831
50
173.690773
51
180.088276
0
ARC
8
right_labelLayer
10
197.9778926
20
111.5867873
40
3.8321533
50
139.4139569
51
150.6032769
0
ARC
8
right_labelLayer
10
197.2907781
20
112.1755696
40
2.9272825
50
124.2321503
51
139.4161004
0
ARC
8
right_labelLayer
10
196.9233875
20
112.7301431
40
2.2621209
50
89.6796558
51
124.440558
0
LINE
8
right_labelLayer
10
200.3676758
20
114.8555101
11
200.3676758
21
107.3633226
0
LINE
8
right_labelLayer
10
200.3676758
20
107.3633226
11
199.2329101
21
107.3633226
0
LINE
8
right_labelLayer
10
199.2329101
20
107.3633226
11
199.2329101
21
114.8555101
0
LINE
8
right_labelLayer
10
199.2329101
20
114.8555101
11
200.3676758
21
114.8555101
0
ARC
8
right_labelLayer
10
200.3946502
20
116.893562
40
1.2574673
50
170.8452163
51
180.3544232
0
ARC
8
right_labelLayer
10
199.923907
20
116.9722701
40
0.7802028
50
155.9679425
51
171.0515188
0
ARC
8
right_labelLayer
10
199.6958953
20
117.0734256
40
0.5307606
50
133.7880053
51
155.9171968
0
ARC
8
right_labelLayer
10
199.7800746
20
116.9803617
40
0.6562053
50
92.6445984
51
133.4710562
0
ARC
8
right_labelLayer
10
199.806667
20
116.7714516
40
0.8662852
50
89.9694495
51
93.7640683
0
ARC
8
right_labelLayer
10
199.8174895
20
116.9692273
40
0.6685896
50
46.3708268
51
90.8879086
0
ARC
8
right_labelLayer
10
199.8840317
20
117.0379226
40
0.5729539
50
17.7251651
51
46.447386
0
ARC
8
right_labelLayer
10
199.5737354
20
116.9310686
40
0.9010812
50
4.9427616
51
18.1900646
0
ARC
8
right_labelLayer
10
199.1790315
20
116.8883961
40
1.2980219
50
359.8846802
51
5.3182222
0
ARC
8
right_labelLayer
10
199.3029864
20
116.8778117
40
1.1740914
50
349.8344885
51
0.3890313
0
ARC
8
right_labelLayer
10
199.7304264
20
116.7980736
40
0.7392946
50
332.6322469
51
350.0705922
0
ARC
8
right_labelLayer
10
199.896791
20
116.7159247
40
0.5537977
50
313.6154129
51
332.2677055
0
ARC
8
right_labelLayer
10
199.8166166
20
116.7889269
40
0.6620003
50
269.1788137
51
314.2807543
0
ARC
8
right_labelLayer
10
199.7996083
20
116.8477786
40
0.7208233
50
250.4999877
51
270.5977941
0
ARC
8
right_labelLayer
10
199.7777942
20
116.7662076
40
0.6366845
50
225.1300598
51
249.900094
0
ARC
8
right_labelLayer
10
199.7436395
20
116.7284793
40
0.5858551
50
197.7934038
51
224.8942123
0
ARC
8
right_labelLayer
10
200.0633025
20
116.8380237
40
0.9237257
50
184.9925162
51
198.2040143
0
ARC
8
right_labelLayer
10
200.4769569
20
116.8829904
40
1.3397529
50
179.8805475
51
185.3687565
0
LINE
8
right_labelLayer
10
206.3149414
20
114.8555101
11
208.9057617
21
114.8555101
0
LINE
8
right_labelLayer
10
208.9057617
20
114.8555101
11
208.9057617
21
114.1377367
0
LINE
8
right_labelLayer
10
208.9057617
20
114.1377367
11
207.5180664
21
113.9736742
0
LINE
8
right_labelLayer
10
204.9614258
20
108.5527757
11
206.2875976
21
108.5527757
0
LINE
8
right_labelLayer
10
205.9252929
20
107.5342211
11
204.5649414
21
107.5342211
0
ARC
8
right_labelLayer
10
206.0719913
20
112.8292668
40
1.8441262
50
29.4583899
51
38.3576928
0
ARC
8
right_labelLayer
10
205.3183814
20
112.3990611
40
2.7118786
50
23.1845857
51
29.5421993
0
ARC
8
right_labelLayer
10
204.5992597
20
112.0801565
40
3.4984904
50
21.250764
51
23.3489485
0
ARC
8
right_labelLayer
10
205.8215612
20
112.5662775
40
2.1831298
50
6.8504834
51
20.9871999
0
ARC
8
right_labelLayer
10
205.2067233
20
112.4829125
40
2.8035378
50
359.8710707
51
7.0432591
0
ARC
8
right_labelLayer
10
205.4089969
20
112.4495549
40
2.6013976
50
342.5649813
51
0.5957642
0
ARC
8
right_labelLayer
10
205.888773
20
112.317071
40
2.1040399
50
310.6097891
51
342.0923727
0
ARC
8
right_labelLayer
10
205.6197335
20
112.6300136
40
2.5167322
50
284.9315715
51
310.622275
0
ARC
8
right_labelLayer
10
205.2830599
20
113.809764
40
3.7434573
50
272.5334887
51
285.2579632
0
ARC
8
right_labelLayer
10
205.1964938
20
114.9922078
40
4.9286908
50
269.969238
51
272.9312225
0
ARC
8
right_labelLayer
10
205.1857549
20
113.7104597
40
3.6469508
50
263.4836655
51
270.1271414
0
ARC
8
right_labelLayer
10
205.1263331
20
113.1461056
40
3.0795032
50
259.4962756
51
263.3904775
0
ARC
8
right_labelLayer
10
205.4940022
20
108.3253682
40
2.0192621
50
117.3935069
51
128.409576
0
ARC
8
right_labelLayer
10
204.974168
20
108.9702584
40
1.1909897
50
128.0882098
51
147.1400171
0
ARC
8
right_labelLayer
10
204.6941071
20
109.1582012
40
0.8537838
50
147.5369056
51
180.2592377
0
ARC
8
right_labelLayer
10
204.428423
20
109.1470698
40
0.5881359
50
179.2918987
51
198.3580601
0
ARC
8
right_labelLayer
10
204.3183056
20
109.11813
40
0.4745628
50
199.2291826
51
239.5690844
0
ARC
8
right_labelLayer
10
204.4094745
20
109.2440575
40
0.6294943
50
238.21939
51
239.8458331
0
ARC
8
right_labelLayer
10
204.4824471
20
109.3941266
40
0.7960065
50
240.7302187
51
254.5027001
0
ARC
8
right_labelLayer
10
204.6996997
20
110.1427699
40
1.5755074
50
254.163701
51
262.2123658
0
ARC
8
right_labelLayer
10
204.8717942
20
111.3447748
40
2.7897559
50
262.0555877
51
267.2082786
0
ARC
8
right_labelLayer
10
204.9549258
20
112.8696035
40
4.3168327
50
267.0919379
51
270.0862714
0
ARC
8
right_labelLayer
10
206.3124032
20
103.9077728
40
4.6450691
50
81.5744142
51
90.3059725
0
ARC
8
right_labelLayer
10
206.5671946
20
105.5694727
40
2.9639833
50
68.3671447
51
81.7399081
0
ARC
8
right_labelLayer
10
206.8999789
20
106.4199498
40
2.0507302
50
52.1879575
51
68.2500741
0
ARC
8
right_labelLayer
10
207.1328371
20
106.7337103
40
1.6601134
50
8.6201404
51
51.8982523
0
ARC
8
right_labelLayer
10
206.3167222
20
106.5610283
40
2.4933613
50
359.743038
51
9.7326308
0
ARC
8
right_labelLayer
10
206.3532692
20
106.5189648
40
2.4569835
50
340.5268753
51
0.7201554
0
ARC
8
right_labelLayer
10
206.7142588
20
106.4290829
40
2.0869834
50
302.9903662
51
339.5494514
0
ARC
8
right_labelLayer
10
206.3353443
20
106.9105875
40
2.6977433
50
303.1868614
51
304.1721738
0
ARC
8
right_labelLayer
10
205.9821453
20
107.5220934
40
3.4030625
50
286.2542245
51
302.5279972
0
ARC
8
right_labelLayer
10
205.3394462
20
109.6420147
40
5.6181901
50
276.4939739
51
286.4953572
0
ARC
8
right_labelLayer
10
204.9384375
20
112.9941973
40
8.9942387
50
269.7545196
51
276.6169724
0
ARC
8
right_labelLayer
10
204.8699525
20
110.3577384
40
6.3577676
50
262.5634575
51
270.2699069
0
ARC
8
right_labelLayer
10
204.5585612
20
108.0497306
40
4.0288827
50
251.2101996
51
262.7063985
0
ARC
8
right_labelLayer
10
204.1097395
20
106.7323709
40
2.6371653
50
235.966808
51
251.2229009
0
ARC
8
right_labelLayer
10
203.6340289
20
106.0537184
40
1.8085718
50
208.9036409
51
236.4231421
0
ARC
8
right_labelLayer
10
203.6777013
20
106.0354107
40
1.8383303
50
182.2079927
51
207.7461421
0
ARC
8
right_labelLayer
10
204.2337568
20
106.0909404
40
2.3963545
50
179.9785321
51
183.0225045
0
ARC
8
right_labelLayer
10
203.5722467
20
106.1222796
40
1.7351114
50
138.3916128
51
181.0052658
0
ARC
8
right_labelLayer
10
203.7554774
20
105.9576099
40
1.9814603
50
113.8121489
51
138.3496291
0
ARC
8
right_labelLayer
10
204.1030459
20
105.207061
40
2.8084848
50
102.2871017
51
114.1172537
0
ARC
8
right_labelLayer
10
203.9938311
20
109.0228848
40
1.1777406
50
216.5861785
51
245.4968495
0
ARC
8
right_labelLayer
10
204.1623567
20
109.1658675
40
1.3983561
50
215.4650017
51
217.1746986
0
ARC
8
right_labelLayer
10
203.8816036
20
108.9630833
40
1.052037
50
182.1767416
51
215.3415283
0
ARC
8
right_labelLayer
10
204.1315703
20
108.9899009
40
1.3029569
50
179.9835158
51
182.9376808
0
ARC
8
right_labelLayer
10
204.126236
20
109.0012446
40
1.2976691
50
161.7225735
51
180.4843133
0
ARC
8
right_labelLayer
10
203.9835559
20
109.0401784
40
1.1500034
50
144.4963048
51
161.3350725
0
ARC
8
right_labelLayer
10
204.3638834
20
108.756726
40
1.6242663
50
132.725854
51
144.1479611
0
ARC
8
right_labelLayer
10
204.9734485
20
108.1057852
40
2.5160452
50
125.2212506
51
132.8655393
0
ARC
8
right_labelLayer
10
205.5862672
20
107.254817
40
3.5646753
50
121.235262
51
125.3795272
0
ARC
8
right_labelLayer
10
204.4998881
20
112.1403482
40
1.989337
50
215.1640948
51
247.4747805
0
ARC
8
right_labelLayer
10
204.8711915
20
112.4400131
40
2.4656592
50
212.4714357
51
215.887654
0
ARC
8
right_labelLayer
10
204.7735797
20
112.3701742
40
2.3458219
50
183.0160907
51
212.3123227
0
ARC
8
right_labelLayer
10
205.288378
20
112.4275504
40
2.8630853
50
179.9759469
51
183.620659
0
ARC
8
right_labelLayer
10
205.7036998
20
112.4564439
40
3.2785238
50
166.8195634
51
180.4839473
0
ARC
8
right_labelLayer
10
204.6160868
20
112.7310441
40
2.1570351
50
132.328774
51
167.3340942
0
ARC
8
right_labelLayer
10
204.7615958
20
112.5218874
40
2.4098762
50
106.218897
51
131.5377661
0
ARC
8
right_labelLayer
10
205.1297619
20
111.3297928
40
3.6574167
50
93.6329931
51
106.5408645
0
ARC
8
right_labelLayer
10
205.2499502
20
109.9804935
40
5.0117384
50
89.9380272
51
94.0268187
0
ARC
8
right_labelLayer
10
205.2694103
20
110.6426237
40
4.3496278
50
82.5852137
51
90.1849333
0
ARC
8
right_labelLayer
10
205.402314
20
111.6709355
40
3.3127637
50
74.0088897
51
82.5694254
0
ARC
8
right_labelLayer
10
204.0707292
20
106.0900098
40
1.1396823
50
179.2207223
51
200.935548
0
ARC
8
right_labelLayer
10
203.9352008
20
106.0586288
40
1.0020704
50
202.0286944
51
236.1457339
0
ARC
8
right_labelLayer
10
204.1394094
20
106.3179007
40
1.3313832
50
235.0633147
51
238.5042378
0
ARC
8
right_labelLayer
10
204.3769265
20
106.7421289
40
1.8173013
50
239.106623
51
254.4862555
0
ARC
8
right_labelLayer
10
204.6935325
20
107.8337784
40
2.9538893
50
254.2323937
51
263.4937356
0
ARC
8
right_labelLayer
10
204.8924116
20
109.518266
40
4.6500681
50
263.4108634
51
270.1457289
0
ARC
8
right_labelLayer
10
204.9134463
20
110.5953001
40
5.7270946
50
269.9078851
51
270.0012798
0
ARC
8
right_labelLayer
10
204.940768
20
112.4966716
40
7.6285147
50
269.7957542
51
275.399094
0
ARC
8
right_labelLayer
10
205.22628
20
109.5655858
40
4.6835758
50
275.2956986
51
283.3516237
0
ARC
8
right_labelLayer
10
205.6914377
20
107.6497032
40
2.7120791
50
283.1370437
51
295.8573082
0
ARC
8
right_labelLayer
10
206.0361008
20
106.8972612
40
1.8847369
50
296.4047309
51
301.8008251
0
ARC
8
right_labelLayer
10
206.171234
20
106.7109937
40
1.655304
50
301.2230944
51
318.6238135
0
ARC
8
right_labelLayer
10
206.4760248
20
106.4294468
40
1.2405297
50
319.0765449
51
1.1407057
0
ARC
8
right_labelLayer
10
206.1810352
20
106.4663045
40
1.5353215
50
359.5461455
51
10.990409
0
ARC
8
right_labelLayer
10
206.774091
20
106.5869303
40
0.9301615
50
10.6608268
51
30.9362411
0
ARC
8
right_labelLayer
10
206.9621176
20
106.6912793
40
0.7152753
50
31.5095663
51
58.0777848
0
ARC
8
right_labelLayer
10
206.7858894
20
106.3757361
40
1.0764203
50
58.9971959
51
73.8586886
0
ARC
8
right_labelLayer
10
206.4296806
20
105.209612
40
2.2956737
50
73.4100451
51
81.5907118
0
ARC
8
right_labelLayer
10
206.1278778
20
103.256546
40
4.2718979
50
81.4172238
51
86.575694
0
ARC
8
right_labelLayer
10
205.9429284
20
100.3139154
40
7.2203271
50
86.5054159
51
90.1399435
0
ARC
8
right_labelLayer
10
204.5487117
20
104.9257837
40
2.6084879
50
89.6435104
51
100.0209376
0
ARC
8
right_labelLayer
10
204.3847627
20
105.8176453
40
1.7017154
50
99.8102777
51
116.8229761
0
ARC
8
right_labelLayer
10
204.2250575
20
106.1544394
40
1.3291277
50
117.2304233
51
130.5023669
0
ARC
8
right_labelLayer
10
204.1430631
20
106.2598213
40
1.1957594
50
130.7944874
51
169.0413389
0
ARC
8
right_labelLayer
10
204.7468976
20
106.1176162
40
1.8157858
50
168.2580579
51
180.3820025
0
ARC
8
right_labelLayer
10
205.7613617
20
112.4391541
40
2.2150398
50
179.5617623
51
191.6528743
0
ARC
8
right_labelLayer
10
204.9912141
20
112.2727618
40
1.4271764
50
191.3555091
51
213.366034
0
ARC
8
right_labelLayer
10
204.8062614
20
112.1659678
40
1.2140381
50
213.9573788
51
227.7971745
0
ARC
8
right_labelLayer
10
204.9671745
20
112.3611285
40
1.4667505
50
228.2620598
51
254.7341302
0
ARC
8
right_labelLayer
10
205.172748
20
113.0658339
40
2.2007541
50
254.4016189
51
267.4348587
0
ARC
8
right_labelLayer
10
205.2263764
20
113.7849647
40
2.9216425
50
267.015382
51
270.0323752
0
ARC
8
right_labelLayer
10
205.2614351
20
113.3352411
40
2.4721443
50
269.2256988
51
284.3773336
0
ARC
8
right_labelLayer
10
205.598385
20
112.1613059
40
1.2517948
50
282.779672
51
346.4828462
0
ARC
8
right_labelLayer
10
204.5909991
20
112.4466559
40
2.2983562
50
345.4361933
51
0.746596
0
ARC
8
right_labelLayer
10
204.4493927
20
112.5114966
40
2.4400169
50
359.1806299
51
15.043191
0
ARC
8
right_labelLayer
10
205.5550059
20
112.8340165
40
1.2888166
50
13.9535718
51
77.6673788
0
ARC
8
right_labelLayer
10
205.2377929
20
111.6972541
40
2.4680119
50
76.1095331
51
90.7028248
0
ARC
8
right_labelLayer
10
205.1903121
20
111.7840895
40
2.3810531
50
89.5859322
51
101.3334331
0
ARC
8
right_labelLayer
10
205.0201554
20
112.5956613
40
1.5518854
50
101.0620683
51
121.9738771
0
ARC
8
right_labelLayer
10
204.9005603
20
112.8108008
40
1.3061148
50
122.5210037
51
134.9967115
0
ARC
8
right_labelLayer
10
204.9498071
20
112.7812907
40
1.361875
50
135.5840028
51
163.001572
0
ARC
8
right_labelLayer
10
205.6689851
20
112.5455715
40
2.1185999
50
162.5912293
51
175.7343007
0
ARC
8
right_labelLayer
10
206.5315167
20
112.4605997
40
2.9851334
50
175.3392958
51
180.0864421
0
LINE
8
right_labelLayer
10
216.7055664
20
107.3633226
11
215.5708008
21
107.3633226
0
LINE
8
right_labelLayer
10
215.5708008
20
107.3633226
11
215.5708008
21
112.2100023
0
LINE
8
right_labelLayer
10
211.5786133
20
111.2803148
11
211.5786133
21
107.3633226
0
LINE
8
right_labelLayer
10
211.5786133
20
107.3633226
11
210.4438476
21
107.3633226
0
LINE
8
right_labelLayer
10
210.4438476
20
107.3633226
11
210.4438476
21
118.0000414
0
LINE
8
right_labelLayer
10
210.4438476
20
118.0000414
11
211.5786133
21
118.0000414
0
LINE
8
right_labelLayer
10
211.5786133
20
118.0000414
11
211.5786133
21
114.7803148
0
LINE
8
right_labelLayer
10
211.5239258
20
113.8164476
11
211.5922851
21
113.8164476
0
LINE
8
right_labelLayer
10
216.7055664
20
112.2510179
11
216.7055664
21
107.3633226
0
ARC
8
right_labelLayer
10
212.363167
20
112.2283995
40
3.2076865
50
359.6713871
51
8.6877291
0
ARC
8
right_labelLayer
10
213.5520224
20
112.4169446
40
2.0040036
50
8.4931351
51
22.6580017
0
ARC
8
right_labelLayer
10
214.1560438
20
112.6679579
40
1.3499028
50
22.7024279
51
42.3419359
0
ARC
8
right_labelLayer
10
214.2239404
20
112.6985001
40
1.2793555
50
43.3790815
51
71.5386109
0
ARC
8
right_labelLayer
10
213.9700479
20
111.9890615
40
2.0327477
50
71.0827832
51
84.3691443
0
ARC
8
right_labelLayer
10
213.8560779
20
111.0200673
40
3.0083048
50
84.0197753
51
90.1510991
0
ARC
8
right_labelLayer
10
213.8236875
20
110.5944841
40
3.4339647
50
89.5919316
51
100.3595035
0
ARC
8
right_labelLayer
10
213.5805322
20
111.8723016
40
2.1332725
50
100.1067826
51
118.0847333
0
ARC
8
right_labelLayer
10
213.3332241
20
112.3575817
40
1.5887393
50
118.4551234
51
139.6706035
0
ARC
8
right_labelLayer
10
213.5815095
20
112.187875
40
1.8881069
50
140.6208301
51
160.5048649
0
ARC
8
right_labelLayer
10
214.8902337
20
111.7033915
40
3.2835473
50
160.1567202
51
171.5312809
0
ARC
8
right_labelLayer
10
217.0077663
20
111.3678925
40
5.4274368
50
171.3202203
51
178.3406682
0
ARC
8
right_labelLayer
10
218.9020855
20
111.2832555
40
7.3234728
50
178.1079302
51
180.0230068
0
ARC
8
right_labelLayer
10
201.3704412
20
114.7681515
40
10.2081793
50
357.8674175
51
0.0682693
0
ARC
8
right_labelLayer
10
204.8385718
20
114.6358319
40
6.7375277
50
354.9828147
51
357.8943914
0
ARC
8
right_labelLayer
10
207.1283731
20
114.4364413
40
4.4390624
50
351.9713819
51
354.9618167
0
ARC
8
right_labelLayer
10
213.5143849
20
112.6141073
40
2.2671766
50
119.8315768
51
147.9725862
0
ARC
8
right_labelLayer
10
213.7888921
20
112.1924202
40
2.7696862
50
116.6657598
51
120.4183366
0
ARC
8
right_labelLayer
10
213.8401789
20
112.057722
40
2.9131112
50
96.6652735
51
116.378235
0
ARC
8
right_labelLayer
10
213.9506227
20
111.2957338
40
3.6828296
50
89.8927027
51
96.9959408
0
ARC
8
right_labelLayer
10
213.9859408
20
110.3747333
40
4.6039114
50
80.6863018
51
90.3537056
0
ARC
8
right_labelLayer
10
214.2726133
20
112.0608907
40
2.8936049
50
65.6022735
51
80.8844306
0
ARC
8
right_labelLayer
10
214.6168496
20
112.8361857
40
2.0453617
50
46.7400751
51
65.4130824
0
ARC
8
right_labelLayer
10
214.6402428
20
112.9100551
40
1.97582
50
19.2204387
51
45.7660511
0
ARC
8
right_labelLayer
10
213.5009806
20
112.4877207
40
3.1907011
50
6.4733644
51
19.646815
0
ARC
8
right_labelLayer
10
211.7986356
20
112.2686171
40
4.9069623
50
359.7945039
51
6.7744075
0
LINE
8
right_labelLayer
10
222.4819336
20
108.2998461
11
222.4819336
21
107.431682
0
LINE
8
right_labelLayer
10
219.1186523
20
109.5166429
11
219.1186523
21
113.9736742
0
LINE
8
right_labelLayer
10
219.1186523
20
113.9736742
11
218.0454101
21
113.9736742
0
LINE
8
right_labelLayer
10
218.0454101
20
113.9736742
11
218.0454101
21
114.5205492
0
LINE
8
right_labelLayer
10
218.0454101
20
114.5205492
11
219.1186523
21
114.9922289
0
LINE
8
right_labelLayer
10
219.1186523
20
114.9922289
11
219.5971679
21
116.5918382
0
LINE
8
right_labelLayer
10
219.5971679
20
116.5918382
11
220.2534179
21
116.5918382
0
LINE
8
right_labelLayer
10
220.2534179
20
116.5918382
11
220.2534179
21
114.8555101
0
LINE
8
right_labelLayer
10
220.2534179
20
114.8555101
11
222.4272461
21
114.8555101
0
LINE
8
right_labelLayer
10
222.4272461
20
114.8555101
11
222.4272461
21
113.9736742
0
LINE
8
right_labelLayer
10
222.4272461
20
113.9736742
11
220.2534179
21
113.9736742
0
LINE
8
right_labelLayer
10
220.2534179
20
113.9736742
11
220.2534179
21
109.5644945
0
ARC
8
right_labelLayer
10
221.4643265
20
111.8898234
40
3.7267042
50
269.880333
51
278.3028589
0
ARC
8
right_labelLayer
10
221.4998123
20
111.5998119
40
3.4346148
50
278.4157178
51
279.0083293
0
ARC
8
right_labelLayer
10
221.0815386
20
114.2719164
40
6.1392554
50
278.9590685
51
280.5103537
0
ARC
8
right_labelLayer
10
221.4801064
20
112.1332842
40
3.9638016
50
280.4848283
51
282.6267515
0
ARC
8
right_labelLayer
10
221.8296041
20
110.5805189
40
2.3721909
50
282.587809
51
285.5793814
0
ARC
8
right_labelLayer
10
222.0049953
20
109.9355323
40
1.7038017
50
285.7232732
51
286.2557847
0
ARC
8
right_labelLayer
10
222.0048461
20
108.4407488
40
1.1161667
50
287.9888515
51
295.3048159
0
ARC
8
right_labelLayer
10
221.7356258
20
109.255271
40
1.9740213
50
283.3070047
51
288.1197382
0
ARC
8
right_labelLayer
10
221.4512308
20
110.4415953
40
3.1939546
50
280.0070333
51
283.3734583
0
ARC
8
right_labelLayer
10
221.2605901
20
111.4763344
40
4.2460865
50
279.1865642
51
280.114103
0
ARC
8
right_labelLayer
10
221.144177
20
112.1383969
40
4.9182512
50
275.5259953
51
279.2939952
0
ARC
8
right_labelLayer
10
221.2757877
20
110.7636717
40
3.5372414
50
270.8932023
51
275.5484028
0
ARC
8
right_labelLayer
10
221.2923358
20
110.1334134
40
2.9068095
50
270.0028502
51
270.7607212
0
ARC
8
right_labelLayer
10
221.2466885
20
110.1900869
40
2.9638368
50
253.7847806
51
270.8852679
0
ARC
8
right_labelLayer
10
220.8955527
20
108.992583
40
1.7159191
50
190.3817648
51
253.8772427
0
ARC
8
right_labelLayer
10
222.6852903
20
109.4764961
40
3.5668638
50
179.3550945
51
192.8477568
0
ARC
8
right_labelLayer
10
222.5384089
20
109.5502022
40
2.2850357
50
179.6416289
51
189.7505893
0
ARC
8
right_labelLayer
10
221.7317549
20
109.4063261
40
1.4656766
50
189.5479729
51
205.7873393
0
ARC
8
right_labelLayer
10
221.4002434
20
109.2534555
40
1.1006946
50
206.1293965
51
221.4084054
0
ARC
8
right_labelLayer
10
221.3630758
20
109.2252539
40
1.0541708
50
221.5949335
51
262.350513
0
ARC
8
right_labelLayer
10
221.4514786
20
109.679858
40
1.5167391
50
261.3266421
51
270.1913104
0
LINE
8
bottom_outsideCutPath
10
258
20
184
11
258
21
176.75
0
LINE
8
bottom_outsideCutPath
10
258
20
176.75
11
256
21
176.75
0
LINE
8
bottom_outsideCutPath
10
256
20
176.75
11
256
21
170.25
0
LINE
8
bottom_outsideCutPath
10
256
20
170.25
11
258
21
170.25
0
LINE
8
bottom_outsideCutPath
10
258
20
170.25
11
258
21
163.75
0
LINE
8
bottom_outsideCutPath
10
258
20
163.75
11
256
21
163.75
0
LINE
8
bottom_outsideCutPath
10
256
20
163.75
11
256
21
157.25
0
LINE
8
bottom_outsideCutPath
10
256
20
157.25
11
258
21
157.25
0
LINE
8
bottom_outsideCutPath
10
258
20
157.25
11
258
21
150.75
0
LINE
8
bottom_outsideCutPath
10
258
20
150.75
11
256
21
150.75
0
LINE
8
bottom_outsideCutPath
10
256
20
150.75
11
256
21
144.25
0
LINE
8
bottom_outsideCutPath
10
256
20
144.25
11
258
21
144.25
0
LINE
8
bottom_outsideCutPath
10
258
20
144.25
11
258
21
137.75
0
LINE
8
bottom_outsideCutPath
10
258
20
137.75
11
256
21
137.75
0
LINE
8
bottom_outsideCutPath
10
256
20
137.75
11
256
21
131.25
0
LINE
8
bottom_outsideCutPath
10
256
20
131.25
11
258
21
131.25
0
LINE
8
bottom_outsideCutPath
10
258
20
131.25
11
258
21
124.75
0
LINE
8
bottom_outsideCutPath
10
258
20
124.75
11
256
21
124.75
0
LINE
8
bottom_outsideCutPath
10
256
20
124.75
11
256
21
118.25
0
LINE
8
bottom_outsideCutPath
10
256
20
118.25
11
258
21
118.25
0
LINE
8
bottom_outsideCutPath
10
258
20
118.25
11
258
21
111.75
0
LINE
8
bottom_outsideCutPath
10
258
20
111.75
11
256
21
111.75
0
LINE
8
bottom_outsideCutPath
10
256
20
111.75
11
256
21
105.25
0
LINE
8
bottom_outsideCutPath
10
256
20
105.25
11
258
21
105.25
0
LINE
8
bottom_outsideCutPath
10
258
20
105.25
11
258
21
98.75
0
LINE
8
bottom_outsideCutPath
10
258
20
98.75
11
258
21
98
0
LINE
8
bottom_outsideCutPath
10
258
20
98
11
267.75
21
98
0
LINE
8
bottom_outsideCutPath
10
267.75
20
98
11
267.75
21
96
0
LINE
8
bottom_outsideCutPath
10
267.75
20
96
11
274.25
21
96
0
LINE
8
bottom_outsideCutPath
10
274.25
20
96
11
274.25
21
98
0
LINE
8
bottom_outsideCutPath
10
274.25
20
98
11
280.75
21
98
0
LINE
8
bottom_outsideCutPath
10
280.75
20
98
11
280.75
21
96
0
LINE
8
bottom_outsideCutPath
10
280.75
20
96
11
287.25
21
96
0
LINE
8
bottom_outsideCutPath
10
287.25
20
96
11
287.25
21
98
0
LINE
8
bottom_outsideCutPath
10
287.25
20
98
11
293.75
21
98
0
LINE
8
bottom_outsideCutPath
10
293.75
20
98
11
293.75
21
96
0
LINE
8
bottom_outsideCutPath
10
293.75
20
96
11
300.25
21
96
0
LINE
8
bottom_outsideCutPath
10
300.25
20
96
11
300.25
21
98
0
LINE
8
bottom_outsideCutPath
10
300.25
20
98
11
306.75
21
98
0
LINE
8
bottom_outsideCutPath
10
306.75
20
98
11
306.75
21
96
0
LINE
8
bottom_outsideCutPath
10
306.75
20
96
11
313.25
21
96
0
LINE
8
bottom_outsideCutPath
10
313.25
20
96
11
313.25
21
98
0
LINE
8
bottom_outsideCutPath
10
313.25
20
98
11
319.75
21
98
0
LINE
8
bottom_outsideCutPath
10
319.75
20
98
11
319.75
21
96
0
LINE
8
bottom_outsideCutPath
10
319.75
20
96
11
326.25
21
96
0
LINE
8
bottom_outsideCutPath
10
326.25
20
96
11
326.25
21
98
0
LINE
8
bottom_outsideCutPath
10
326.25
20
98
11
332.75
21
98
0
LINE
8
bottom_outsideCutPath
10
332.75
20
98
11
332.75
21
96
0
LINE
8
bottom_outsideCutPath
10
332.75
20
96
11
339.25
21
96
0
LINE
8
bottom_outsideCutPath
10
339.25
20
96
11
339.25
21
98
0
LINE
8
bottom_outsideCutPath
10
339.25
20
98
11
345.75
21
98
0
LINE
8
bottom_outsideCutPath
10
345.75
20
98
11
345.75
21
96
0
LINE
8
bottom_outsideCutPath
10
345.75
20
96
11
352.25
21
96
0
LINE
8
bottom_outsideCutPath
10
352.25
20
96
11
352.25
21
98
0
LINE
8
bottom_outsideCutPath
10
352.25
20
98
11
358.75
21
98
0
LINE
8
bottom_outsideCutPath
10
358.75
20
98
11
358.75
21
96
0
LINE
8
bottom_outsideCutPath
10
358.75
20
96
11
365.25
21
96
0
LINE
8
bottom_outsideCutPath
10
365.25
20
96
11
365.25
21
98
0
LINE
8
bottom_outsideCutPath
10
365.25
20
98
11
371.75
21
98
0
LINE
8
bottom_outsideCutPath
10
371.75
20
98
11
371.75
21
96
0
LINE
8
bottom_outsideCutPath
10
371.75
20
96
11
378.25
21
96
0
LINE
8
bottom_outsideCutPath
10
378.25
20
96
11
378.25
21
98
0
LINE
8
bottom_outsideCutPath
10
378.25
20
98
11
384.75
21
98
0
LINE
8
bottom_outsideCutPath
10
384.75
20
98
11
384.75
21
96
0
LINE
8
bottom_outsideCutPath
10
384.75
20
96
11
391.25
21
96
0
LINE
8
bottom_outsideCutPath
10
391.25
20
96
11
391.25
21
98
0
LINE
8
bottom_outsideCutPath
10
391.25
20
98
11
397.75
21
98
0
LINE
8
bottom_outsideCutPath
10
397.75
20
98
11
397.75
21
96
0
LINE
8
bottom_outsideCutPath
10
397.75
20
96
11
404.25
21
96
0
LINE
8
bottom_outsideCutPath
10
404.25
20
96
11
404.25
21
98
0
LINE
8
bottom_outsideCutPath
10
404.25
20
98
11
410.75
21
98
0
LINE
8
bottom_outsideCutPath
10
410.75
20
98
11
414
21
98
0
LINE
8
bottom_outsideCutPath
10
414
20
98
11
414
21
105.25
0
LINE
8
bottom_outsideCutPath
10
414
20
105.25
11
416
21
105.25
0
LINE
8
bottom_outsideCutPath
10
416
20
105.25
11
416
21
111.75
0
LINE
8
bottom_outsideCutPath
10
416
20
111.75
11
414
21
111.75
0
LINE
8
bottom_outsideCutPath
10
414
20
111.75
11
414
21
118.25
0
LINE
8
bottom_outsideCutPath
10
414
20
118.25
11
416
21
118.25
0
LINE
8
bottom_outsideCutPath
10
416
20
118.25
11
416
21
124.75
0
LINE
8
bottom_outsideCutPath
10
416
20
124.75
11
414
21
124.75
0
LINE
8
bottom_outsideCutPath
10
414
20
124.75
11
414
21
131.25
0
LINE
8
bottom_outsideCutPath
10
414
20
131.25
11
416
21
131.25
0
LINE
8
bottom_outsideCutPath
10
416
20
131.25
11
416
21
137.75
0
LINE
8
bottom_outsideCutPath
10
416
20
137.75
11
414
21
137.75
0
LINE
8
bottom_outsideCutPath
10
414
20
137.75
11
414
21
144.25
0
LINE
8
bottom_outsideCutPath
10
414
20
144.25
11
416
21
144.25
0
LINE
8
bottom_outsideCutPath
10
416
20
144.25
11
416
21
150.75
0
LINE
8
bottom_outsideCutPath
10
416
20
150.75
11
414
21
150.75
0
LINE
8
bottom_outsideCutPath
10
414
20
150.75
11
414
21
157.25
0
LINE
8
bottom_outsideCutPath
10
414
20
157.25
11
416
21
157.25
0
LINE
8
bottom_outsideCutPath
10
416
20
157.25
11
416
21
163.75
0
LINE
8
bottom_outsideCutPath
10
416
20
163.75
11
414
21
163.75
0
LINE
8
bottom_outsideCutPath
10
414
20
163.75
11
414
21
170.25
0
LINE
8
bottom_outsideCutPath
10
414
20
170.25
11
416
21
170.25
0
LINE
8
bottom_outsideCutPath
10
416
20
170.25
11
416
21
176.75
0
LINE
8
bottom_outsideCutPath
10
416
20
176.75
11
414
21
176.75
0
LINE
8
bottom_outsideCutPath
10
414
20
176.75
11
414
21
183.25
0
LINE
8
bottom_outsideCutPath
10
414
20
183.25
11
414
21
184
0
LINE
8
bottom_outsideCutPath
10
414
20
184
11
404.25
21
184
0
LINE
8
bottom_outsideCutPath
10
404.25
20
184
11
404.25
21
186
0
LINE
8
bottom_outsideCutPath
10
404.25
20
186
11
397.75
21
186
0
LINE
8
bottom_outsideCutPath
10
397.75
20
186
11
397.75
21
184
0
LINE
8
bottom_outsideCutPath
10
397.75
20
184
11
391.25
21
184
0
LINE
8
bottom_outsideCutPath
10
391.25
20
184
11
391.25
21
186
0
LINE
8
bottom_outsideCutPath
10
391.25
20
186
11
384.75
21
186
0
LINE
8
bottom_outsideCutPath
10
384.75
20
186
11
384.75
21
184
0
LINE
8
bottom_outsideCutPath
10
384.75
20
184
11
378.25
21
184
0
LINE
8
bottom_outsideCutPath
10
378.25
20
184
11
378.25
21
186
0
LINE
8
bottom_outsideCutPath
10
378.25
20
186
11
371.75
21
186
0
LINE
8
bottom_outsideCutPath
10
371.75
20
186
11
371.75
21
184
0
LINE
8
bottom_outsideCutPath
10
371.75
20
184
11
365.25
21
184
0
LINE
8
bottom_outsideCutPath
10
365.25
20
184
11
365.25
21
186
0
LINE
8
bottom_outsideCutPath
10
365.25
20
186
11
358.75
21
186
0
LINE
8
bottom_outsideCutPath
10
358.75
20
186
11
358.75
21
184
0
LINE
8
bottom_outsideCutPath
10
358.75
20
184
11
352.25
21
184
0
LINE
8
bottom_outsideCutPath
10
352.25
20
184
11
352.25
21
186
0
LINE
8
bottom_outsideCutPath
10
352.25
20
186
11
345.75
21
186
0
LINE
8
bottom_outsideCutPath
10
345.75
20
186
11
345.75
21
184
0
LINE
8
bottom_outsideCutPath
10
345.75
20
184
11
339.25
21
184
0
LINE
8
bottom_outsideCutPath
10
339.25
20
184
11
339.25
21
186
0
LINE
8
bottom_outsideCutPath
10
339.25
20
186
11
332.75
21
186
0
LINE
8
bottom_outsideCutPath
10
332.75
20
186
11
332.75
21
184
0
LINE
8
bottom_outsideCutPath
10
332.75
20
184
11
326.25
21
184
0
LINE
8
bottom_outsideCutPath
10
326.25
20
184
11
326.25
21
186
0
LINE
8
bottom_outsideCutPath
10
326.25
20
186
11
319.75
21
186
0
LINE
8
bottom_outsideCutPath
10
319.75
20
186
11
319.75
21
184
0
LINE
8
bottom_outsideCutPath
10
319.75
20
184
11
313.25
21
184
0
LINE
8
bottom_outsideCutPath
10
313.25
20
184
11
313.25
21
186
0
LINE
8
bottom_outsideCutPath
10
313.25
20
186
11
306.75
21
186
0
LINE
8
bottom_outsideCutPath
10
306.75
20
186
11
306.75
21
184
0
LINE
8
bottom_outsideCutPath
10
306.75
20
184
11
300.25
21
184
0
LINE
8
bottom_outsideCutPath
10
300.25
20
184
11
300.25
21
186
0
LINE
8
bottom_outsideCutPath
10
300.25
20
186
11
293.75
21
186
0
LINE
8
bottom_outsideCutPath
10
293.75
20
186
11
293.75
21
184
0
LINE
8
bottom_outsideCutPath
10
293.75
20
184
11
287.25
21
184
0
LINE
8
bottom_outsideCutPath
10
287.25
20
184
11
287.25
21
186
0
LINE
8
bottom_outsideCutPath
10
287.25
20
186
11
280.75
21
186
0
LINE
8
bottom_outsideCutPath
10
280.75
20
186
11
280.75
21
184
0
LINE
8
bottom_outsideCutPath
10
280.75
20
184
11
274.25
21
184
0
LINE
8
bottom_outsideCutPath
10
274.25
20
184
11
274.25
21
186
0
LINE
8
bottom_outsideCutPath
10
274.25
20
186
11
267.75
21
186
0
LINE
8
bottom_outsideCutPath
10
267.75
20
186
11
267.75
21
184
0
LINE
8
bottom_outsideCutPath
10
267.75
20
184
11
261.25
21
184
0
LINE
8
bottom_outsideCutPath
10
261.25
20
184
11
258
21
184
0
LINE
8
bottom_labelLayer
10
307.8485902
20
135.4894852
11
307.7431214
21
135.4894852
0
LINE
8
bottom_labelLayer
10
307.7431214
20
135.4894852
11
307.4355043
21
134.2502274
0
LINE
8
bottom_labelLayer
10
307.4355043
20
134.2502274
11
306.3896058
21
134.2502274
0
LINE
8
bottom_labelLayer
10
306.3896058
20
134.2502274
11
306.3896058
21
147.9260087
0
LINE
8
bottom_labelLayer
10
306.3896058
20
147.9260087
11
307.8485902
21
147.9260087
0
LINE
8
bottom_labelLayer
10
307.8485902
20
147.9260087
11
307.8485902
21
144.603743
0
LINE
8
bottom_labelLayer
10
307.7782777
20
142.5998368
11
307.8485902
21
142.5998368
0
ARC
8
bottom_labelLayer
10
310.9157952
20
139.5822929
40
4.4591649
50
74.2393389
51
90.5623771
0
ARC
8
bottom_labelLayer
10
311.21065
20
140.6639833
40
3.3380677
50
38.5631251
51
74.0670332
0
ARC
8
bottom_labelLayer
10
310.4518592
20
140.0739783
40
4.2991941
50
16.4709182
51
38.4075365
0
ARC
8
bottom_labelLayer
10
308.2658953
20
139.3885219
40
6.5899078
50
5.1338333
51
16.7973493
0
ARC
8
bottom_labelLayer
10
305.5063344
20
139.0953768
40
9.3647381
50
359.8779162
51
5.4093813
0
ARC
8
bottom_labelLayer
10
306.3168188
20
139.0249553
40
8.5543812
50
350.6562914
51
0.3380242
0
ARC
8
bottom_labelLayer
10
309.2990347
20
138.5177134
40
5.5294029
50
335.8305854
51
350.825498
0
ARC
8
bottom_labelLayer
10
310.6108411
20
137.9515177
40
4.1008214
50
321.3161425
51
335.5436233
0
ARC
8
bottom_labelLayer
10
311.1123529
20
137.5428618
40
3.4539233
50
274.06401
51
321.4080969
0
ARC
8
bottom_labelLayer
10
310.8787126
20
139.0228222
40
4.9483807
50
269.9225978
51
275.5481788
0
ARC
8
bottom_labelLayer
10
310.8474248
20
138.4997972
40
4.4254194
50
255.7755401
51
270.3185346
0
ARC
8
bottom_labelLayer
10
310.7211372
20
137.938713
40
3.8505374
50
245.9801819
51
255.545576
0
ARC
8
bottom_labelLayer
10
310.4765249
20
137.3698623
40
3.2313864
50
215.5850142
51
245.8361673
0
ARC
8
bottom_labelLayer
10
277.429447
20
144.5780327
40
30.419154
50
358.1123394
51
0.0484265
0
ARC
8
bottom_labelLayer
10
285.8956244
20
144.2938155
40
21.9482094
50
355.7238801
51
358.1258817
0
ARC
8
bottom_labelLayer
10
289.5834223
20
144.0408229
40
18.2518274
50
355.4717722
51
355.652667
0
ARC
8
bottom_labelLayer
10
310.5695321
20
140.7024511
40
3.3171671
50
95.1835089
51
145.1109045
0
ARC
8
bottom_labelLayer
10
310.8610973
20
139.0583116
40
4.9829435
50
89.8743183
51
96.8145613
0
ARC
8
bottom_labelLayer
10
310.6305466
20
138.7198036
40
4.0998736
50
89.5731485
51
100.7324259
0
ARC
8
bottom_labelLayer
10
310.3270423
20
140.2532157
40
2.5367967
50
100.4469586
51
119.6700643
0
ARC
8
bottom_labelLayer
10
310.0456
20
140.7794056
40
1.9403456
50
120.1402845
51
142.4249026
0
ARC
8
bottom_labelLayer
10
310.511216
20
140.4713848
40
2.4975204
50
143.3382189
51
161.2560134
0
ARC
8
bottom_labelLayer
10
312.4583371
20
139.780089
40
4.5636065
50
160.8926184
51
171.2334535
0
ARC
8
bottom_labelLayer
10
315.708901
20
139.2556958
40
7.8561513
50
171.0667883
51
177.8456689
0
ARC
8
bottom_labelLayer
10
319.0892999
20
139.0837721
40
11.2407126
50
177.6176796
51
180.0425583
0
ARC
8
bottom_labelLayer
10
317.4951598
20
139.0377523
40
9.6466432
50
179.7762577
51
185.7075417
0
ARC
8
bottom_labelLayer
10
313.6918624
20
138.6458751
40
5.8232399
50
185.5924843
51
194.2050628
0
ARC
8
bottom_labelLayer
10
311.2554634
20
138.0135441
40
3.306202
50
193.9430153
51
208.0218632
0
ARC
8
bottom_labelLayer
10
310.2696955
20
137.5120551
40
2.2004883
50
208.5536498
51
217.5605785
0
ARC
8
bottom_labelLayer
10
310.1893929
20
137.4786575
40
2.116592
50
218.1690622
51
253.8047108
0
ARC
8
bottom_labelLayer
10
310.5819795
20
138.6890451
40
3.3886738
50
253.1382555
51
266.8483068
0
ARC
8
bottom_labelLayer
10
310.6920697
20
139.9873228
40
4.691199
50
266.3775366
51
270.0510126
0
ARC
8
bottom_labelLayer
10
310.7273694
20
138.204428
40
2.9084687
50
269.3868765
51
285.8630654
0
ARC
8
bottom_labelLayer
10
310.9434499
20
137.4234836
40
2.0982086
50
286.0162882
51
326.8497398
0
ARC
8
bottom_labelLayer
10
309.9005329
20
138.1143792
40
3.3491966
50
326.7104887
51
343.6661765
0
ARC
8
bottom_labelLayer
10
307.9482561
20
138.7109319
40
5.3904997
50
343.4171341
51
353.6369296
0
ARC
8
bottom_labelLayer
10
304.9995278
20
139.0608201
40
8.3598663
50
353.4934824
51
0.2205566
0
ARC
8
bottom_labelLayer
10
304.7395778
20
139.1278901
40
8.6198251
50
359.7680915
51
6.3095207
0
ARC
8
bottom_labelLayer
10
307.9865044
20
139.5004948
40
5.3516342
50
6.1648558
51
16.0396383
0
ARC
8
bottom_labelLayer
10
310.0781012
20
140.1168871
40
3.171184
50
15.7779532
51
32.0151096
0
ARC
8
bottom_labelLayer
10
310.7303601
20
140.4904125
40
2.420281
50
32.7034262
51
35.5242813
0
ARC
8
bottom_labelLayer
10
310.9688925
20
140.6599534
40
2.1276356
50
35.540832
51
79.8011279
0
ARC
8
bottom_labelLayer
10
310.6831733
20
139.4453126
40
3.3743231
50
78.6781094
51
90.374972
0
ARC
8
bottom_labelLayer
10
318.1982559
20
139.0246169
40
7.5362478
50
349.1761857
51
0.3862637
0
ARC
8
bottom_labelLayer
10
320.7355265
20
138.5188069
40
4.949173
50
330.2507133
51
349.4116406
0
ARC
8
bottom_labelLayer
10
321.5163812
20
138.1129485
40
4.0699932
50
318.143968
51
329.7566355
0
ARC
8
bottom_labelLayer
10
321.6573075
20
138.0000095
40
3.8896806
50
278.8959145
51
317.9979173
0
ARC
8
bottom_labelLayer
10
321.2941801
20
139.7397929
40
5.6654004
50
269.7502873
51
279.8033087
0
ARC
8
bottom_labelLayer
10
321.2352886
20
138.7595347
40
4.6852134
50
253.5437049
51
270.418238
0
ARC
8
bottom_labelLayer
10
321.0793246
20
138.1562269
40
4.0624933
50
238.8115404
51
253.2428413
0
ARC
8
bottom_labelLayer
10
321.0289913
20
138.0550096
40
3.9498509
50
207.7946989
51
238.6758053
0
ARC
8
bottom_labelLayer
10
321.7513523
20
138.4974086
40
4.7954714
50
205.6560253
51
208.4460689
0
ARC
8
bottom_labelLayer
10
322.3075692
20
138.7291575
40
5.3972849
50
188.9102436
51
205.3171388
0
ARC
8
bottom_labelLayer
10
324.1823969
20
139.0466932
40
7.298707
50
179.774469
51
189.0932874
0
ARC
8
bottom_labelLayer
10
324.4589631
20
139.1267322
40
7.5753904
50
169.2442967
51
180.3880775
0
ARC
8
bottom_labelLayer
10
321.8864197
20
139.6352307
40
4.9531832
50
150.7111472
51
169.4695426
0
ARC
8
bottom_labelLayer
10
321.0651789
20
140.0569688
40
4.0307495
50
138.1759298
51
150.2287456
0
ARC
8
bottom_labelLayer
10
320.9285782
20
140.1617941
40
3.8590748
50
99.1759393
51
137.9832718
0
ARC
8
bottom_labelLayer
10
321.3045708
20
138.3923296
40
5.6665533
50
89.7326454
51
100.0759818
0
ARC
8
bottom_labelLayer
10
321.3797174
20
139.1565025
40
4.9025606
50
73.5222838
51
90.5692246
0
ARC
8
bottom_labelLayer
10
321.6672237
20
140.2010911
40
3.8193795
50
41.1445673
51
73.2133872
0
ARC
8
bottom_labelLayer
10
321.1183962
20
139.7293818
40
4.5430453
50
13.5014436
51
41.0703389
0
ARC
8
bottom_labelLayer
10
318.9980151
20
139.1745067
40
6.7345211
50
1.1277231
51
13.8800035
0
ARC
8
bottom_labelLayer
10
317.1708929
20
139.0766259
40
8.5634395
50
359.9919502
51
1.5418968
0
ARC
8
bottom_labelLayer
10
325.7836142
20
139.0375056
40
7.3882463
50
179.7059517
51
187.9160916
0
ARC
8
bottom_labelLayer
10
323.0738511
20
138.6482498
40
4.650712
50
187.7639357
51
200.0976923
0
ARC
8
bottom_labelLayer
10
321.5810395
20
138.1012815
40
3.0608505
50
200.0845948
51
216.9131603
0
ARC
8
bottom_labelLayer
10
321.0359171
20
137.7120388
40
2.3912738
50
217.3009596
51
261.7099029
0
ARC
8
bottom_labelLayer
10
321.2889821
20
138.9196501
40
3.6235581
50
260.5033407
51
270.2476612
0
ARC
8
bottom_labelLayer
10
321.3372843
20
138.6848107
40
3.388842
50
269.4481511
51
284.7255753
0
ARC
8
bottom_labelLayer
10
321.6055582
20
137.6898701
40
2.3583975
50
284.5662359
51
322.6333794
0
ARC
8
bottom_labelLayer
10
320.9783163
20
138.1430237
40
3.1320016
50
323.0089342
51
342.639046
0
ARC
8
bottom_labelLayer
10
319.1842915
20
138.7293644
40
5.019315
50
342.3615507
51
353.7537764
0
ARC
8
bottom_labelLayer
10
316.5374792
20
139.0484046
40
7.6851818
50
353.5363078
51
0.2014305
0
ARC
8
bottom_labelLayer
10
316.9430014
20
139.1125793
40
7.2797071
50
359.7075537
51
7.8972679
0
ARC
8
bottom_labelLayer
10
319.6090278
20
139.4947791
40
4.5864683
50
7.7439844
51
20.0690095
0
ARC
8
bottom_labelLayer
10
321.0946471
20
140.0399446
40
3.003982
50
20.0257089
51
37.4350472
0
ARC
8
bottom_labelLayer
10
321.5875648
20
140.3897112
40
2.4000743
50
37.9577678
51
80.4006153
0
ARC
8
bottom_labelLayer
10
321.3074563
20
139.1398876
40
3.6797322
50
79.3453625
51
90.3174798
0
ARC
8
bottom_labelLayer
10
321.2555899
20
139.3474932
40
3.4722129
50
89.4805859
51
103.8804965
0
ARC
8
bottom_labelLayer
10
320.9638345
20
140.4584978
40
2.3237201
50
103.4685178
51
142.3118975
0
ARC
8
bottom_labelLayer
10
321.5310335
20
140.059603
40
3.0166031
50
142.9025812
51
162.3749493
0
ARC
8
bottom_labelLayer
10
323.3182719
20
139.4640119
40
4.9003542
50
162.0653252
51
173.1674855
0
ARC
8
bottom_labelLayer
10
326.1050416
20
139.1085744
40
7.7096478
50
173.0086077
51
180.246374
0
LINE
8
bottom_labelLayer
10
332.7216371
20
135.454329
11
332.7216371
21
134.338118
0
LINE
8
bottom_labelLayer
10
328.3974183
20
137.0187821
11
328.3974183
21
142.7492509
0
LINE
8
bottom_labelLayer
10
328.3974183
20
142.7492509
11
327.0175355
21
142.7492509
0
LINE
8
bottom_labelLayer
10
327.0175355
20
142.7492509
11
327.0175355
21
143.4523759
0
LINE
8
bottom_labelLayer
10
327.0175355
20
143.4523759
11
328.3974183
21
144.0588212
0
LINE
8
bottom_labelLayer
10
328.3974183
20
144.0588212
11
329.0126527
21
146.1154618
0
LINE
8
bottom_labelLayer
10
329.0126527
20
146.1154618
11
329.8564027
21
146.1154618
0
LINE
8
bottom_labelLayer
10
329.8564027
20
146.1154618
11
329.8564027
21
143.8830399
0
LINE
8
bottom_labelLayer
10
329.8564027
20
143.8830399
11
332.6513246
21
143.8830399
0
LINE
8
bottom_labelLayer
10
332.6513246
20
143.8830399
11
332.6513246
21
142.7492509
0
LINE
8
bottom_labelLayer
10
332.6513246
20
142.7492509
11
329.8564027
21
142.7492509
0
LINE
8
bottom_labelLayer
10
329.8564027
20
142.7492509
11
329.8564027
21
137.0803055
0
ARC
8
bottom_labelLayer
10
331.4132818
20
140.0700614
40
4.7915241
50
269.8803734
51
278.3028161
0
ARC
8
bottom_labelLayer
10
331.4589012
20
139.6972982
40
4.4160888
50
278.4155319
51
279.0081225
0
ARC
8
bottom_labelLayer
10
330.9212922
20
143.1317804
40
7.8923895
50
278.9589452
51
280.510415
0
ARC
8
bottom_labelLayer
10
331.4336397
20
140.3826929
40
5.0959678
50
280.484797
51
282.6268666
0
ARC
8
bottom_labelLayer
10
331.882991
20
138.3863664
40
3.049696
50
282.5876995
51
285.5795307
0
ARC
8
bottom_labelLayer
10
332.1088805
20
137.5556543
40
2.188844
50
285.7239997
51
286.2569388
0
ARC
8
bottom_labelLayer
10
332.1082413
20
135.6354836
40
1.4350651
50
287.9888342
51
295.3048312
0
ARC
8
bottom_labelLayer
10
331.7621409
20
136.6825838
40
2.5378729
50
283.3068466
51
288.1198731
0
ARC
8
bottom_labelLayer
10
331.3964764
20
138.2078594
40
4.1063633
50
280.0069965
51
283.3735444
0
ARC
8
bottom_labelLayer
10
331.1521896
20
139.5333918
40
5.4541887
50
279.1861115
51
280.1145117
0
ARC
8
bottom_labelLayer
10
331.0016482
20
140.3897283
40
6.3235865
50
275.5260369
51
279.2939649
0
ARC
8
bottom_labelLayer
10
331.1708729
20
138.6221503
40
4.5479275
50
270.8932588
51
275.5484126
0
ARC
8
bottom_labelLayer
10
331.1921194
20
137.8170054
40
3.7425592
50
270.00338
51
270.7601914
0
ARC
8
bottom_labelLayer
10
331.1334657
20
137.8846461
40
3.8106547
50
253.7847993
51
270.8852531
0
ARC
8
bottom_labelLayer
10
330.6820051
20
136.3449913
40
2.2061823
50
190.3817746
51
253.8772315
0
ARC
8
bottom_labelLayer
10
332.9831025
20
136.9671657
40
4.5859747
50
179.3551063
51
192.8477484
0
ARC
8
bottom_labelLayer
10
332.7942485
20
137.0619301
40
2.9379033
50
179.6416345
51
189.7505939
0
ARC
8
bottom_labelLayer
10
331.7571159
20
136.8769444
40
1.8844353
50
189.5479465
51
205.7873647
0
ARC
8
bottom_labelLayer
10
331.3308978
20
136.6804019
40
1.4151851
50
206.1294373
51
221.408377
0
ARC
8
bottom_labelLayer
10
331.2831058
20
136.6441386
40
1.3553623
50
221.5949156
51
262.3505058
0
ARC
8
bottom_labelLayer
10
331.3967675
20
137.2286431
40
1.9501062
50
261.3266651
51
270.1912741
0
LINE
8
bottom_labelLayer
10
339.0761293
20
135.454329
11
339.0761293
21
134.338118
0
LINE
8
bottom_labelLayer
10
334.7519105
20
137.0187821
11
334.7519105
21
142.7492509
0
LINE
8
bottom_labelLayer
10
334.7519105
20
142.7492509
11
333.3720277
21
142.7492509
0
LINE
8
bottom_labelLayer
10
333.3720277
20
142.7492509
11
333.3720277
21
143.4523759
0
LINE
8
bottom_labelLayer
10
333.3720277
20
143.4523759
11
334.7519105
21
144.0588212
0
LINE
8
bottom_labelLayer
10
334.7519105
20
144.0588212
11
335.3671449
21
146.1154618
0
LINE
8
bottom_labelLayer
10
335.3671449
20
146.1154618
11
336.2108949
21
146.1154618
0
LINE
8
bottom_labelLayer
10
336.2108949
20
146.1154618
11
336.2108949
21
143.8830399
0
LINE
8
bottom_labelLayer
10
336.2108949
20
143.8830399
11
339.0058168
21
143.8830399
0
LINE
8
bottom_labelLayer
10
339.0058168
20
143.8830399
11
339.0058168
21
142.7492509
0
LINE
8
bottom_labelLayer
10
339.0058168
20
142.7492509
11
336.2108949
21
142.7492509
0
LINE
8
bottom_labelLayer
10
336.2108949
20
142.7492509
11
336.2108949
21
137.0803055
0
ARC
8
bottom_labelLayer
10
337.767774
20
140.0700614
40
4.7915241
50
269.8803734
51
278.3028161
0
ARC
8
bottom_labelLayer
10
337.8133934
20
139.6972982
40
4.4160888
50
278.4155319
51
279.0081225
0
ARC
8
bottom_labelLayer
10
337.2757844
20
143.1317804
40
7.8923895
50
278.9589452
51
280.510415
0
ARC
8
bottom_labelLayer
10
337.7881319
20
140.3826929
40
5.0959678
50
280.484797
51
282.6268666
0
ARC
8
bottom_labelLayer
10
338.2374831
20
138.3863664
40
3.049696
50
282.5876995
51
285.5795307
0
ARC
8
bottom_labelLayer
10
338.4633727
20
137.5556543
40
2.188844
50
285.7239997
51
286.2569388
0
ARC
8
bottom_labelLayer
10
338.4627335
20
135.6354836
40
1.4350651
50
287.9888342
51
295.3048312
0
ARC
8
bottom_labelLayer
10
338.1166331
20
136.6825838
40
2.5378729
50
283.3068466
51
288.1198731
0
ARC
8
bottom_labelLayer
10
337.7509686
20
138.2078594
40
4.1063633
50
280.0069965
51
283.3735444
0
ARC
8
bottom_labelLayer
10
337.5066817
20
139.5333918
40
5.4541887
50
279.1861115
51
280.1145117
0
ARC
8
bottom_labelLayer
10
337.3561404
20
140.3897283
40
6.3235865
50
275.5260369
51
279.2939649
0
ARC
8
bottom_labelLayer
10
337.5253651
20
138.6221503
40
4.5479275
50
270.8932588
51
275.5484126
0
ARC
8
bottom_labelLayer
10
337.5466116
20
137.8170054
40
3.7425592
50
270.00338
51
270.7601914
0
ARC
8
bottom_labelLayer
10
337.4879579
20
137.8846461
40
3.8106547
50
253.7847993
51
270.8852531
0
ARC
8
bottom_labelLayer
10
337.0364973
20
136.3449913
40
2.2061823
50
190.3817746
51
253.8772315
0
ARC
8
bottom_labelLayer
10
339.3375947
20
136.9671657
40
4.5859747
50
179.3551063
51
192.8477484
0
ARC
8
bottom_labelLayer
10
339.1487407
20
137.0619301
40
2.9379033
50
179.6416345
51
189.7505939
0
ARC
8
bottom_labelLayer
10
338.111608
20
136.8769444
40
1.8844353
50
189.5479465
51
205.7873647
0
ARC
8
bottom_labelLayer
10
337.68539
20
136.6804019
40
1.4151851
50
206.1294373
51
221.408377
0
ARC
8
bottom_labelLayer
10
337.637598
20
136.6441386
40
1.3553623
50
221.5949156
51
262.3505058
0
ARC
8
bottom_labelLayer
10
337.7512597
20
137.2286431
40
1.9501062
50
261.3266651
51
270.1912741
0
ARC
8
bottom_labelLayer
10
341.7793105
20
139.0246169
40
7.5362478
50
349.1761857
51
0.3862637
0
ARC
8
bottom_labelLayer
10
344.3165812
20
138.5188069
40
4.949173
50
330.2507133
51
349.4116406
0
ARC
8
bottom_labelLayer
10
345.0974358
20
138.1129485
40
4.0699932
50
318.143968
51
329.7566355
0
ARC
8
bottom_labelLayer
10
345.2383622
20
138.0000095
40
3.8896806
50
278.8959145
51
317.9979173
0
ARC
8
bottom_labelLayer
10
344.8752348
20
139.7397929
40
5.6654004
50
269.7502873
51
279.8033087
0
ARC
8
bottom_labelLayer
10
344.8163433
20
138.7595347
40
4.6852134
50
253.5437049
51
270.418238
0
ARC
8
bottom_labelLayer
10
344.6603793
20
138.1562269
40
4.0624933
50
238.8115404
51
253.2428413
0
ARC
8
bottom_labelLayer
10
344.610046
20
138.0550096
40
3.9498509
50
207.7946989
51
238.6758053
0
ARC
8
bottom_labelLayer
10
345.332407
20
138.4974086
40
4.7954714
50
205.6560253
51
208.4460689
0
ARC
8
bottom_labelLayer
10
345.8886239
20
138.7291575
40
5.3972849
50
188.9102436
51
205.3171388
0
ARC
8
bottom_labelLayer
10
347.7634516
20
139.0466932
40
7.298707
50
179.774469
51
189.0932874
0
ARC
8
bottom_labelLayer
10
348.0400178
20
139.1267322
40
7.5753904
50
169.2442967
51
180.3880775
0
ARC
8
bottom_labelLayer
10
345.4674744
20
139.6352307
40
4.9531832
50
150.7111472
51
169.4695426
0
ARC
8
bottom_labelLayer
10
344.6462336
20
140.0569688
40
4.0307495
50
138.1759298
51
150.2287456
0
ARC
8
bottom_labelLayer
10
344.5096329
20
140.1617941
40
3.8590748
50
99.1759393
51
137.9832718
0
ARC
8
bottom_labelLayer
10
344.8856255
20
138.3923296
40
5.6665533
50
89.7326454
51
100.0759818
0
ARC
8
bottom_labelLayer
10
344.9607721
20
139.1565025
40
4.9025606
50
73.5222838
51
90.5692246
0
ARC
8
bottom_labelLayer
10
345.2482784
20
140.2010911
40
3.8193795
50
41.1445673
51
73.2133872
0
ARC
8
bottom_labelLayer
10
344.6994509
20
139.7293818
40
4.5430453
50
13.5014436
51
41.0703389
0
ARC
8
bottom_labelLayer
10
342.5790698
20
139.1745067
40
6.7345211
50
1.1277231
51
13.8800035
0
ARC
8
bottom_labelLayer
10
340.7519476
20
139.0766259
40
8.5634395
50
359.9919502
51
1.5418968
0
ARC
8
bottom_labelLayer
10
349.3646689
20
139.0375056
40
7.3882463
50
179.7059517
51
187.9160916
0
ARC
8
bottom_labelLayer
10
346.6549058
20
138.6482498
40
4.650712
50
187.7639357
51
200.0976923
0
ARC
8
bottom_labelLayer
10
345.1620942
20
138.1012815
40
3.0608505
50
200.0845948
51
216.9131603
0
ARC
8
bottom_labelLayer
10
344.6169718
20
137.7120388
40
2.3912738
50
217.3009596
51
261.7099029
0
ARC
8
bottom_labelLayer
10
344.8700368
20
138.9196501
40
3.6235581
50
260.5033407
51
270.2476612
0
ARC
8
bottom_labelLayer
10
344.918339
20
138.6848107
40
3.388842
50
269.4481511
51
284.7255753
0
ARC
8
bottom_labelLayer
10
345.1866129
20
137.6898701
40
2.3583975
50
284.5662359
51
322.6333794
0
ARC
8
bottom_labelLayer
10
344.559371
20
138.1430237
40
3.1320016
50
323.0089342
51
342.639046
0
ARC
8
bottom_labelLayer
10
342.7653462
20
138.7293644
40
5.019315
50
342.3615507
51
353.7537764
0
ARC
8
bottom_labelLayer
10
340.1185339
20
139.0484046
40
7.6851818
50
353.5363078
51
0.2014305
0
ARC
8
bottom_labelLayer
10
340.524056
20
139.1125793
40
7.2797071
50
359.7075537
51
7.8972679
0
ARC
8
bottom_labelLayer
10
343.1900825
20
139.4947791
40
4.5864683
50
7.7439844
51
20.0690095
0
ARC
8
bottom_labelLayer
10
344.6757018
20
140.0399446
40
3.003982
50
20.0257089
51
37.4350472
0
ARC
8
bottom_labelLayer
10
345.1686195
20
140.3897112
40
2.4000743
50
37.9577678
51
80.4006153
0
ARC
8
bottom_labelLayer
10
344.888511
20
139.1398876
40
3.6797322
50
79.3453625
51
90.3174798
0
ARC
8
bottom_labelLayer
10
344.8366446
20
139.3474932
40
3.4722129
50
89.4805859
51
103.8804965
0
ARC
8
bottom_labelLayer
10
344.5448891
20
140.4584978
40
2.3237201
50
103.4685178
51
142.3118975
0
ARC
8
bottom_labelLayer
10
345.1120882
20
140.059603
40
3.0166031
50
142.9025812
51
162.3749493
0
ARC
8
bottom_labelLayer
10
346.8993266
20
139.4640119
40
4.9003542
50
162.0653252
51
173.1674855
0
ARC
8
bottom_labelLayer
10
349.6860962
20
139.1085744
40
7.7096478
50
173.0086077
51
180.246374
0
LINE
8
bottom_labelLayer
10
365.6103089
20
134.2502274
11
364.1513246
21
134.2502274
0
LINE
8
bottom_labelLayer
10
364.1513246
20
134.2502274
11
364.1513246
21
140.516829
0
LINE
8
bottom_labelLayer
10
359.4667543
20
139.6291337
11
359.4667543
21
134.2502274
0
LINE
8
bottom_labelLayer
10
359.4667543
20
134.2502274
11
358.0077699
21
134.2502274
0
LINE
8
bottom_labelLayer
10
358.0077699
20
134.2502274
11
358.0077699
21
140.516829
0
LINE
8
bottom_labelLayer
10
353.3319886
20
139.3039384
11
353.3319886
21
134.2502274
0
LINE
8
bottom_labelLayer
10
353.3319886
20
134.2502274
11
351.8730043
21
134.2502274
0
LINE
8
bottom_labelLayer
10
351.8730043
20
134.2502274
11
351.8730043
21
143.8830399
0
LINE
8
bottom_labelLayer
10
351.8730043
20
143.8830399
11
353.0595277
21
143.8830399
0
LINE
8
bottom_labelLayer
10
353.0595277
20
143.8830399
11
353.2968324
21
142.5646805
0
LINE
8
bottom_labelLayer
10
353.2968324
20
142.5646805
11
353.3671449
21
142.5646805
0
LINE
8
bottom_labelLayer
10
359.1679261
20
142.4240555
11
359.2382386
21
142.4240555
0
LINE
8
bottom_labelLayer
10
365.6103089
20
140.5344071
11
365.6103089
21
134.2502274
0
ARC
8
bottom_labelLayer
10
359.8472669
20
140.5397522
40
4.3041187
50
359.6948481
51
8.1471666
0
ARC
8
bottom_labelLayer
10
361.4326096
20
140.7743662
40
2.7015385
50
7.9864608
51
20.7949638
0
ARC
8
bottom_labelLayer
10
362.3089408
20
141.1100568
40
1.7631179
50
20.7071126
51
40.0217518
0
ARC
8
bottom_labelLayer
10
362.501188
20
141.235841
40
1.5352486
50
41.040811
51
73.1792447
0
ARC
8
bottom_labelLayer
10
362.2230081
20
140.3944783
40
2.4212199
50
72.6395656
51
86.2568108
0
ARC
8
bottom_labelLayer
10
362.1338882
20
139.4327548
40
3.386811
50
85.8145186
51
90.0684818
0
ARC
8
bottom_labelLayer
10
362.1011503
20
139.0654756
40
3.7541974
50
89.562137
51
101.2961695
0
ARC
8
bottom_labelLayer
10
361.8183944
20
140.4191224
40
2.3714183
50
101.0032134
51
121.7840694
0
ARC
8
bottom_labelLayer
10
361.6034338
20
140.8028877
40
1.9320764
50
122.3597315
51
140.2884028
0
ARC
8
bottom_labelLayer
10
361.9901765
20
140.5193153
40
2.410941
50
140.9765373
51
161.1699384
0
ARC
8
bottom_labelLayer
10
363.4471219
20
140.0008219
40
3.957314
50
160.8731777
51
172.5272384
0
ARC
8
bottom_labelLayer
10
365.881666
20
139.6645957
40
6.4149306
50
172.3776664
51
180.1829382
0
ARC
8
bottom_labelLayer
10
367.4714539
20
139.6292494
40
8.0046996
50
179.8936052
51
180.0008283
0
ARC
8
bottom_labelLayer
10
353.7037122
20
140.5397522
40
4.3041187
50
359.6948481
51
8.1471666
0
ARC
8
bottom_labelLayer
10
355.2890549
20
140.7743662
40
2.7015385
50
7.9864608
51
20.7949638
0
ARC
8
bottom_labelLayer
10
356.1653861
20
141.1100568
40
1.7631179
50
20.7071126
51
40.0217518
0
ARC
8
bottom_labelLayer
10
356.3616308
20
141.2386029
40
1.5304202
50
41.0610865
51
72.8993451
0
ARC
8
bottom_labelLayer
10
356.0781794
20
140.3947316
40
2.4204401
50
72.3601351
51
85.956164
0
ARC
8
bottom_labelLayer
10
355.982228
20
139.4030827
40
3.4164839
50
85.5237889
51
90.0793503
0
ARC
8
bottom_labelLayer
10
355.9494995
20
139.1959734
40
3.6236981
50
89.5573249
51
101.4832173
0
ARC
8
bottom_labelLayer
10
355.6713662
20
140.4990851
40
2.2913374
50
101.1546117
51
123.0655951
0
ARC
8
bottom_labelLayer
10
355.4823073
20
140.8284145
40
1.9123118
50
123.7020388
51
142.3022296
0
ARC
8
bottom_labelLayer
10
355.9251618
20
140.5279744
40
2.446661
50
143.0769531
51
161.3914134
0
ARC
8
bottom_labelLayer
10
357.7103062
20
139.8975007
40
4.3397537
50
161.0234432
51
171.4468969
0
ARC
8
bottom_labelLayer
10
360.6655874
20
139.4345679
40
7.3310402
50
171.3042085
51
178.3501431
0
ARC
8
bottom_labelLayer
10
363.490198
20
139.3084271
40
10.1582102
50
178.0976588
51
180.0253182
0
ARC
8
bottom_labelLayer
10
355.8388611
20
141.1111901
40
2.8674057
50
117.1209531
51
149.5423813
0
ARC
8
bottom_labelLayer
10
356.1315058
20
140.5910508
40
3.4638403
50
93.8343386
51
117.507211
0
ARC
8
bottom_labelLayer
10
356.2123355
20
139.8750912
40
4.1837308
50
89.9662339
51
94.2831421
0
ARC
8
bottom_labelLayer
10
356.260762
20
139.2823152
40
4.7767271
50
77.5572317
51
90.5512988
0
ARC
8
bottom_labelLayer
10
356.7039902
20
141.1887227
40
2.8196841
50
52.7027098
51
78.0053869
0
ARC
8
bottom_labelLayer
10
356.8619026
20
141.4825248
40
2.4908282
50
22.2097966
51
51.4970508
0
ARC
8
bottom_labelLayer
10
361.881252
20
140.9093389
40
3.0462905
50
119.4041714
51
150.182885
0
ARC
8
bottom_labelLayer
10
362.2189632
20
140.3958194
40
3.6597046
50
118.25831
51
120.063069
0
ARC
8
bottom_labelLayer
10
362.218139
20
140.3580137
40
3.6926614
50
95.8635186
51
117.9693208
0
ARC
8
bottom_labelLayer
10
362.3431112
20
139.454385
40
4.6044406
50
89.9196695
51
96.2617716
0
ARC
8
bottom_labelLayer
10
362.3832359
20
138.9874261
40
5.0715068
50
79.9361069
51
90.3803828
0
ARC
8
bottom_labelLayer
10
362.7211573
20
140.8175733
40
3.2104945
50
62.9723161
51
80.1665146
0
ARC
8
bottom_labelLayer
10
363.0744077
20
141.5423072
40
2.4044313
50
44.2290225
51
62.6228973
0
ARC
8
bottom_labelLayer
10
362.9693452
20
141.4958971
40
2.5124058
50
19.5611987
51
43.3161261
0
ARC
8
bottom_labelLayer
10
361.4434536
20
140.9227702
40
4.1422229
50
7.5041756
51
19.964539
0
ARC
8
bottom_labelLayer
10
358.9185245
20
140.5681929
40
6.6918697
50
359.7107252
51
7.690731
0
ENDSEC
0
EOF