0
SECTION
2
HEADER
9
$INSUNITS
70
4
0
ENDSEC
0
SECTION
2
TABLES
0
TABLE
2
LTYPE
0
LTYPE
72
65
70
64
2
CONTINUOUS
3
______
73
0
40
0
0
ENDTAB
0
TABLE
2
LAYER
0
ENDTAB
0
ENDSEC
0
SECTION
2
ENTITIES
0
LINE
8
front_outsideCutPath
10
0
20
72
11
0
21
62.5
0
LINE
8
front_outsideCutPath
10
0
20
62.5
11
2
21
62.5
0
LINE
8
front_outsideCutPath
10
2
20
62.5
11
2
21
52.5
0
LINE
8
front_outsideCutPath
10
2
20
52.5
11
0
21
52.5
0
LINE
8
front_outsideCutPath
10
0
20
52.5
11
0
21
42.5
0
LINE
8
front_outsideCutPath
10
0
20
42.5
11
2
21
42.5
0
LINE
8
front_outsideCutPath
10
2
20
42.5
11
2
21
32.5
0
LINE
8
front_outsideCutPath
10
2
20
32.5
11
0
21
32.5
0
LINE
8
front_outsideCutPath
10
0
20
32.5
11
0
21
22.5
0
LINE
8
front_outsideCutPath
10
0
20
22.5
11
2
21
22.5
0
LINE
8
front_outsideCutPath
10
2
20
22.5
11
2
21
12.5
0
LINE
8
front_outsideCutPath
10
2
20
12.5
11
0
21
12.5
0
LINE
8
front_outsideCutPath
10
0
20
12.5
11
0
21
3
0
LINE
8
front_outsideCutPath
10
0
20
3
11
14.5
21
3
0
LINE
8
front_outsideCutPath
10
14.5
20
3
11
14.5
21
5
0
LINE
8
front_outsideCutPath
10
14.5
20
5
11
24.5
21
5
0
LINE
8
front_outsideCutPath
10
24.5
20
5
11
24.5
21
3
0
LINE
8
front_outsideCutPath
10
24.5
20
3
11
34.5
21
3
0
LINE
8
front_outsideCutPath
10
34.5
20
3
11
34.5
21
5
0
LINE
8
front_outsideCutPath
10
34.5
20
5
11
44.5
21
5
0
LINE
8
front_outsideCutPath
10
44.5
20
5
11
44.5
21
3
0
LINE
8
front_outsideCutPath
10
44.5
20
3
11
54.5
21
3
0
LINE
8
front_outsideCutPath
10
54.5
20
3
11
54.5
21
5
0
LINE
8
front_outsideCutPath
10
54.5
20
5
11
64.5
21
5
0
LINE
8
front_outsideCutPath
10
64.5
20
5
11
64.5
21
3
0
LINE
8
front_outsideCutPath
10
64.5
20
3
11
74.5
21
3
0
LINE
8
front_outsideCutPath
10
74.5
20
3
11
74.5
21
5
0
LINE
8
front_outsideCutPath
10
74.5
20
5
11
84.5
21
5
0
LINE
8
front_outsideCutPath
10
84.5
20
5
11
84.5
21
3
0
LINE
8
front_outsideCutPath
10
84.5
20
3
11
94.5
21
3
0
LINE
8
front_outsideCutPath
10
94.5
20
3
11
94.5
21
5
0
LINE
8
front_outsideCutPath
10
94.5
20
5
11
104.5
21
5
0
LINE
8
front_outsideCutPath
10
104.5
20
5
11
104.5
21
3
0
LINE
8
front_outsideCutPath
10
104.5
20
3
11
114.5
21
3
0
LINE
8
front_outsideCutPath
10
114.5
20
3
11
114.5
21
5
0
LINE
8
front_outsideCutPath
10
114.5
20
5
11
124.5
21
5
0
LINE
8
front_outsideCutPath
10
124.5
20
5
11
124.5
21
3
0
LINE
8
front_outsideCutPath
10
124.5
20
3
11
134.5
21
3
0
LINE
8
front_outsideCutPath
10
134.5
20
3
11
134.5
21
5
0
LINE
8
front_outsideCutPath
10
134.5
20
5
11
144.5
21
5
0
LINE
8
front_outsideCutPath
10
144.5
20
5
11
144.5
21
3
0
LINE
8
front_outsideCutPath
10
144.5
20
3
11
154.5
21
3
0
LINE
8
front_outsideCutPath
10
154.5
20
3
11
159
21
3
0
LINE
8
front_outsideCutPath
10
159
20
3
11
159
21
12.5
0
LINE
8
front_outsideCutPath
10
159
20
12.5
11
157
21
12.5
0
LINE
8
front_outsideCutPath
10
157
20
12.5
11
157
21
22.5
0
LINE
8
front_outsideCutPath
10
157
20
22.5
11
159
21
22.5
0
LINE
8
front_outsideCutPath
10
159
20
22.5
11
159
21
32.5
0
LINE
8
front_outsideCutPath
10
159
20
32.5
11
157
21
32.5
0
LINE
8
front_outsideCutPath
10
157
20
32.5
11
157
21
42.5
0
LINE
8
front_outsideCutPath
10
157
20
42.5
11
159
21
42.5
0
LINE
8
front_outsideCutPath
10
159
20
42.5
11
159
21
52.5
0
LINE
8
front_outsideCutPath
10
159
20
52.5
11
157
21
52.5
0
LINE
8
front_outsideCutPath
10
157
20
52.5
11
157
21
62.5
0
LINE
8
front_outsideCutPath
10
157
20
62.5
11
159
21
62.5
0
LINE
8
front_outsideCutPath
10
159
20
62.5
11
159
21
72
0
LINE
8
front_outsideCutPath
10
159
20
72
11
144.5
21
72
0
LINE
8
front_outsideCutPath
10
144.5
20
72
11
144.5
21
70
0
LINE
8
front_outsideCutPath
10
144.5
20
70
11
134.5
21
70
0
LINE
8
front_outsideCutPath
10
134.5
20
70
11
134.5
21
72
0
LINE
8
front_outsideCutPath
10
134.5
20
72
11
124.5
21
72
0
LINE
8
front_outsideCutPath
10
124.5
20
72
11
124.5
21
70
0
LINE
8
front_outsideCutPath
10
124.5
20
70
11
114.5
21
70
0
LINE
8
front_outsideCutPath
10
114.5
20
70
11
114.5
21
72
0
LINE
8
front_outsideCutPath
10
114.5
20
72
11
104.5
21
72
0
LINE
8
front_outsideCutPath
10
104.5
20
72
11
104.5
21
70
0
LINE
8
front_outsideCutPath
10
104.5
20
70
11
94.5
21
70
0
LINE
8
front_outsideCutPath
10
94.5
20
70
11
94.5
21
72
0
LINE
8
front_outsideCutPath
10
94.5
20
72
11
84.5
21
72
0
LINE
8
front_outsideCutPath
10
84.5
20
72
11
84.5
21
70
0
LINE
8
front_outsideCutPath
10
84.5
20
70
11
74.5
21
70
0
LINE
8
front_outsideCutPath
10
74.5
20
70
11
74.5
21
72
0
LINE
8
front_outsideCutPath
10
74.5
20
72
11
64.5
21
72
0
LINE
8
front_outsideCutPath
10
64.5
20
72
11
64.5
21
70
0
LINE
8
front_outsideCutPath
10
64.5
20
70
11
54.5
21
70
0
LINE
8
front_outsideCutPath
10
54.5
20
70
11
54.5
21
72
0
LINE
8
front_outsideCutPath
10
54.5
20
72
11
44.5
21
72
0
LINE
8
front_outsideCutPath
10
44.5
20
72
11
44.5
21
70
0
LINE
8
front_outsideCutPath
10
44.5
20
70
11
34.5
21
70
0
LINE
8
front_outsideCutPath
10
34.5
20
70
11
34.5
21
72
0
LINE
8
front_outsideCutPath
10
34.5
20
72
11
24.5
21
72
0
LINE
8
front_outsideCutPath
10
24.5
20
72
11
24.5
21
70
0
LINE
8
front_outsideCutPath
10
24.5
20
70
11
14.5
21
70
0
LINE
8
front_outsideCutPath
10
14.5
20
70
11
14.5
21
72
0
LINE
8
front_outsideCutPath
10
14.5
20
72
11
4.5
21
72
0
LINE
8
front_outsideCutPath
10
4.5
20
72
11
0
21
72
0
LINE
8
front_labelLayer
10
68.0685058
20
39.6732418
11
68.0685058
21
38.8040035
0
LINE
8
front_labelLayer
10
68.0685058
20
38.8040035
11
66.1885254
21
38.8040035
0
LINE
8
front_labelLayer
10
66.1885254
20
38.8040035
11
66.1885254
21
32.2880855
0
LINE
8
front_labelLayer
10
66.1885254
20
32.2880855
11
65.0699707
21
32.2880855
0
LINE
8
front_labelLayer
10
65.0699707
20
32.2880855
11
65.0699707
21
38.8040035
0
LINE
8
front_labelLayer
10
65.0699707
20
38.8040035
11
63.7492676
21
38.8040035
0
LINE
8
front_labelLayer
10
63.7492676
20
38.8040035
11
63.7492676
21
39.3093746
0
LINE
8
front_labelLayer
10
63.7492676
20
39.3093746
11
65.0699707
21
39.7136715
0
LINE
8
front_labelLayer
10
65.0699707
20
39.7136715
11
65.0699707
21
40.1247066
0
LINE
8
front_labelLayer
10
68.8231933
20
42.6111324
11
68.5334473
21
41.714941
0
LINE
8
front_labelLayer
10
66.1885254
20
40.1516598
11
66.1885254
21
39.6732418
0
LINE
8
front_labelLayer
10
66.1885254
20
39.6732418
11
68.0685058
21
39.6732418
0
ARC
8
front_labelLayer
10
69.6030801
20
40.1768225
40
4.533409
50
167.5776028
51
180.658684
0
ARC
8
front_labelLayer
10
67.4713242
20
40.6738241
40
2.3448005
50
141.7433921
51
168.232207
0
ARC
8
front_labelLayer
10
67.1242301
20
40.8549806
40
1.9614235
50
98.2551512
51
139.6203261
0
ARC
8
front_labelLayer
10
67.4289826
20
39.4471484
40
3.3998803
50
89.6696709
51
99.9314529
0
ARC
8
front_labelLayer
10
67.4298352
20
39.2450185
40
3.6020025
50
81.5641103
51
89.7017693
0
ARC
8
front_labelLayer
10
67.1766052
20
37.4783477
40
5.3867154
50
75.9740134
51
81.6564894
0
ARC
8
front_labelLayer
10
66.7420633
20
35.6759633
40
7.2406957
50
73.2963651
51
76.0946314
0
ARC
8
front_labelLayer
10
66.8514742
20
36.5502125
40
5.4317082
50
71.9613658
51
76.5918268
0
ARC
8
front_labelLayer
10
67.2728809
20
38.3378563
40
3.595075
50
76.5183491
51
83.0217032
0
ARC
8
front_labelLayer
10
67.4196635
20
39.5182601
40
2.4055835
50
83.0761035
51
89.7926494
0
ARC
8
front_labelLayer
10
67.4148344
20
40.4153961
40
1.5084924
50
89.485915
51
103.4197426
0
ARC
8
front_labelLayer
10
67.2788329
20
40.9378994
40
0.9687546
50
102.7677321
51
144.3380447
0
ARC
8
front_labelLayer
10
67.5528188
20
40.7616148
40
1.2942397
50
145.0688802
51
162.18021
0
ARC
8
front_labelLayer
10
68.4922263
20
40.4455502
40
2.2853409
50
161.8437636
51
171.7846961
0
ARC
8
front_labelLayer
10
70.0244076
20
40.2154198
40
3.8346934
50
171.6527586
51
178.4383407
0
ARC
8
front_labelLayer
10
71.4696888
20
40.1537893
40
5.281164
50
178.1972751
51
180.0231032
0
LINE
8
front_labelLayer
10
73.6680176
20
39.727148
11
73.5130371
21
38.6894527
0
LINE
8
front_labelLayer
10
70.5347168
20
36.2501949
11
70.5347168
21
32.2880855
0
LINE
8
front_labelLayer
10
70.5347168
20
32.2880855
11
69.4161621
21
32.2880855
0
LINE
8
front_labelLayer
10
69.4161621
20
32.2880855
11
69.4161621
21
39.6732418
0
LINE
8
front_labelLayer
10
69.4161621
20
39.6732418
11
70.3393066
21
39.6732418
0
LINE
8
front_labelLayer
10
70.3393066
20
39.6732418
11
70.467334
21
38.3053707
0
LINE
8
front_labelLayer
10
70.467334
20
38.3053707
11
70.5212402
21
38.3053707
0
ARC
8
front_labelLayer
10
72.7967837
20
34.6728903
40
5.1351299
50
84.9923104
51
90.1281005
0
ARC
8
front_labelLayer
10
72.9201062
20
36.0546003
40
3.7479298
50
78.4891684
51
85.0266016
0
ARC
8
front_labelLayer
10
72.4414435
20
33.8775247
40
4.9298036
50
77.4453666
51
81.6359926
0
ARC
8
front_labelLayer
10
72.6562386
20
35.3580681
40
3.4337641
50
81.5884112
51
87.1916864
0
ARC
8
front_labelLayer
10
72.7028902
20
36.1671735
40
2.6233539
50
87.3435596
51
89.9660782
0
ARC
8
front_labelLayer
10
72.6920475
20
36.8524426
40
1.938124
50
89.6335449
51
137.0880873
0
ARC
8
front_labelLayer
10
73.1677988
20
36.3174661
40
2.6516855
50
135.6209815
51
138.8376319
0
ARC
8
front_labelLayer
10
73.0980015
20
36.3855909
40
2.5543049
50
138.9575788
51
174.5422145
0
ARC
8
front_labelLayer
10
73.929896
20
36.2554241
40
3.3951834
50
173.6907537
51
180.088246
0
ARC
8
front_labelLayer
10
73.8122688
20
36.4512193
40
3.7773995
50
139.41393
51
150.603276
0
ARC
8
front_labelLayer
10
73.1349793
20
37.0315848
40
2.8854662
50
124.2321585
51
139.4160984
0
ARC
8
front_labelLayer
10
72.7728358
20
37.578238
40
2.2298042
50
89.6796543
51
124.4405687
0
ARC
8
front_labelLayer
10
75.6461126
20
35.9484519
40
5.7777979
50
349.1761903
51
0.3862527
0
ARC
8
front_labelLayer
10
77.5913621
20
35.5606632
40
3.7943653
50
330.2507078
51
349.4116381
0
ARC
8
front_labelLayer
10
78.19
20
35.2495171
40
3.1203486
50
318.1440083
51
329.7565992
0
ARC
8
front_labelLayer
10
78.2980602
20
35.1629192
40
2.982089
50
278.8959126
51
317.9979078
0
ARC
8
front_labelLayer
10
78.0196637
20
36.4967418
40
4.3434629
50
269.7502711
51
279.8033173
0
ARC
8
front_labelLayer
10
77.974512
20
35.7452206
40
3.5919964
50
253.5437088
51
270.4182447
0
ARC
8
front_labelLayer
10
77.8549425
20
35.2826921
40
3.1145855
50
238.8115667
51
253.2428336
0
ARC
8
front_labelLayer
10
77.8163512
20
35.205085
40
3.0282189
50
207.7946943
51
238.6758016
0
ARC
8
front_labelLayer
10
78.370038
20
35.5441984
40
3.6763914
50
205.6560222
51
208.4461696
0
ARC
8
front_labelLayer
10
78.796591
20
35.7219314
40
4.1379153
50
188.9102429
51
205.3171509
0
ARC
8
front_labelLayer
10
80.2339651
20
35.9653771
40
5.5956785
50
179.774481
51
189.0932943
0
ARC
8
front_labelLayer
10
80.4459969
20
36.0267392
40
5.8078001
50
169.2442978
51
180.3880772
0
ARC
8
front_labelLayer
10
78.4737126
20
36.4165885
40
3.7974401
50
150.7111505
51
169.4695482
0
ARC
8
front_labelLayer
10
77.8441033
20
36.7399149
40
3.0902513
50
138.1759544
51
150.2287311
0
ARC
8
front_labelLayer
10
77.7393681
20
36.8202862
40
2.9586246
50
99.1759446
51
137.9832694
0
ARC
8
front_labelLayer
10
78.0276289
20
35.4636931
40
4.3443617
50
89.7326478
51
100.0759744
0
ARC
8
front_labelLayer
10
78.0852418
20
36.0495686
40
3.7586244
50
73.5222697
51
90.5692353
0
ARC
8
front_labelLayer
10
78.3056635
20
36.850416
40
2.9281892
50
41.1445546
51
73.2133939
0
ARC
8
front_labelLayer
10
77.8848965
20
36.4887714
40
3.4829996
50
13.5014357
51
41.0703457
0
ARC
8
front_labelLayer
10
76.2592709
20
36.0633669
40
5.1631313
50
1.1277178
51
13.880002
0
ARC
8
front_labelLayer
10
74.8591052
20
35.9883373
40
6.564674
50
359.9918359
51
1.5419312
0
ARC
8
front_labelLayer
10
81.4615901
20
35.9583331
40
5.6643503
50
179.7059631
51
187.9160623
0
ARC
8
front_labelLayer
10
79.3840726
20
35.6599016
40
3.5655414
50
187.7639275
51
200.0976995
0
ARC
8
front_labelLayer
10
78.239585
20
35.2405584
40
2.3466485
50
200.0845767
51
216.9131683
0
ARC
8
front_labelLayer
10
77.8216609
20
34.9421411
40
1.8333101
50
217.3009635
51
261.7099023
0
ARC
8
front_labelLayer
10
78.0156755
20
35.8679635
40
2.7780483
50
260.5033358
51
270.2477016
0
ARC
8
front_labelLayer
10
78.0527093
20
35.6879272
40
2.5981067
50
269.4481455
51
284.725602
0
ARC
8
front_labelLayer
10
78.258386
20
34.9251449
40
1.8081046
50
284.5662306
51
322.6333779
0
ARC
8
front_labelLayer
10
77.7775048
20
35.2725606
40
2.4011963
50
323.008911
51
342.6390632
0
ARC
8
front_labelLayer
10
76.4020715
20
35.7220921
40
3.8481513
50
342.3615734
51
353.7537699
0
ARC
8
front_labelLayer
10
74.3728124
20
35.9666909
40
5.8920188
50
353.5363302
51
0.2014007
0
ARC
8
front_labelLayer
10
74.6837795
20
36.0158889
40
5.5810881
50
359.7075498
51
7.8972942
0
ARC
8
front_labelLayer
10
76.7277056
20
36.3089062
40
3.5162995
50
7.7440072
51
20.0690069
0
ARC
8
front_labelLayer
10
77.8666918
20
36.7268712
40
2.3030477
50
20.0256888
51
37.4350666
0
ARC
8
front_labelLayer
10
78.2445913
20
36.9950238
40
1.8400562
50
37.957761
51
80.4006265
0
ARC
8
front_labelLayer
10
78.029841
20
36.0368272
40
2.8211258
50
79.3453552
51
90.3174809
0
ARC
8
front_labelLayer
10
77.9900766
20
36.1959876
40
2.6620316
50
89.4805832
51
103.8804849
0
ARC
8
front_labelLayer
10
77.7663978
20
37.0477592
40
1.7815191
50
103.4685235
51
142.3118955
0
ARC
8
front_labelLayer
10
78.2012433
20
36.7419435
40
2.3127215
50
142.9025465
51
162.3749787
0
ARC
8
front_labelLayer
10
79.5714654
20
36.2853211
40
3.7569371
50
162.0653319
51
173.1674954
0
ARC
8
front_labelLayer
10
81.7079834
20
36.0128208
40
5.9107235
50
173.0086253
51
180.2463994
0
LINE
8
front_labelLayer
10
89.5568848
20
32.2880855
11
88.4383301
21
32.2880855
0
LINE
8
front_labelLayer
10
88.4383301
20
32.2880855
11
88.4383301
21
37.065527
0
LINE
8
front_labelLayer
10
84.5031738
20
36.1625973
11
84.5031738
21
32.2880855
0
LINE
8
front_labelLayer
10
84.5031738
20
32.2880855
11
83.3846191
21
32.2880855
0
LINE
8
front_labelLayer
10
83.3846191
20
32.2880855
11
83.3846191
21
39.6732418
0
LINE
8
front_labelLayer
10
83.3846191
20
39.6732418
11
84.2942871
21
39.6732418
0
LINE
8
front_labelLayer
10
84.2942871
20
39.6732418
11
84.4762207
21
38.6624996
0
LINE
8
front_labelLayer
10
84.4762207
20
38.6624996
11
84.5301269
21
38.6624996
0
LINE
8
front_labelLayer
10
89.5568848
20
37.1059566
11
89.5568848
21
32.2880855
0
ARC
8
front_labelLayer
10
85.2765028
20
37.0836601
40
3.1618793
50
359.6714118
51
8.6877058
0
ARC
8
front_labelLayer
10
86.4483832
20
37.2695107
40
1.9753834
50
8.4931631
51
22.6579688
0
ARC
8
front_labelLayer
10
87.0437871
20
37.5169416
40
1.3306151
50
22.7024306
51
42.3419879
0
ARC
8
front_labelLayer
10
87.1107105
20
37.5470456
40
1.2610795
50
43.3790974
51
71.5386142
0
ARC
8
front_labelLayer
10
86.8604426
20
36.8477302
40
2.0037209
50
71.0828276
51
84.3691062
0
ARC
8
front_labelLayer
10
86.7481015
20
35.8925453
40
2.9653746
50
84.0198333
51
90.1510627
0
ARC
8
front_labelLayer
10
86.7162529
20
35.472659
40
3.385336
50
89.5932909
51
100.3718159
0
ARC
8
front_labelLayer
10
86.477016
20
36.727852
40
2.1076024
50
100.1176666
51
118.1602247
0
ARC
8
front_labelLayer
10
86.2359184
20
37.2006259
40
1.5770422
50
118.5439259
51
139.1927109
0
ARC
8
front_labelLayer
10
86.446139
20
37.0595643
40
1.8286031
50
140.1519117
51
160.3146642
0
ARC
8
front_labelLayer
10
87.7155844
20
36.5840827
40
3.1840894
50
159.9534272
51
171.3801191
0
ARC
8
front_labelLayer
10
89.7892607
20
36.2507474
40
5.2843355
50
171.1765952
51
178.3217717
0
ARC
8
front_labelLayer
10
91.6689053
20
36.1655617
40
7.165732
50
178.0810884
51
180.0237029
0
ARC
8
front_labelLayer
10
86.4435853
20
37.4506429
40
2.2649326
50
116.9442896
51
147.6525609
0
ARC
8
front_labelLayer
10
86.6793243
20
37.0563527
40
2.7234227
50
115.8071233
51
117.6067242
0
ARC
8
front_labelLayer
10
86.7998597
20
36.7753128
40
3.0289389
50
94.3226831
51
115.5454191
0
ARC
8
front_labelLayer
10
86.8723565
20
36.1454813
40
3.6625272
50
89.957882
51
94.7109323
0
ARC
8
front_labelLayer
10
86.902322
20
35.3918506
40
4.4162411
50
80.5585427
51
90.3538416
0
ARC
8
front_labelLayer
10
87.1783097
20
36.9904768
40
2.7940151
50
65.1094108
51
80.7638308
0
ARC
8
front_labelLayer
10
87.5009259
20
37.7050614
40
2.0100374
50
46.5584379
51
64.8782403
0
ARC
8
front_labelLayer
10
87.526747
20
37.7794975
40
1.9385077
50
19.3848667
51
45.5997169
0
ARC
8
front_labelLayer
10
86.405254
20
37.3586941
40
3.1361908
50
6.963363
51
19.8363265
0
ARC
8
front_labelLayer
10
84.6755625
20
37.1261352
40
4.8813639
50
359.7631504
51
7.211556
0
LINE
8
front_labelLayer
10
95.2507324
20
33.2112301
11
95.2507324
21
32.3554684
0
LINE
8
front_labelLayer
10
91.935498
20
34.4106441
11
91.935498
21
38.8040035
0
LINE
8
front_labelLayer
10
91.935498
20
38.8040035
11
90.8775879
21
38.8040035
0
LINE
8
front_labelLayer
10
90.8775879
20
38.8040035
11
90.8775879
21
39.343066
0
LINE
8
front_labelLayer
10
90.8775879
20
39.343066
11
91.935498
21
39.8080074
0
LINE
8
front_labelLayer
10
91.935498
20
39.8080074
11
92.4071777
21
41.3847652
0
LINE
8
front_labelLayer
10
92.4071777
20
41.3847652
11
93.0540527
21
41.3847652
0
LINE
8
front_labelLayer
10
93.0540527
20
41.3847652
11
93.0540527
21
39.6732418
0
LINE
8
front_labelLayer
10
93.0540527
20
39.6732418
11
95.1968262
21
39.6732418
0
LINE
8
front_labelLayer
10
95.1968262
20
39.6732418
11
95.1968262
21
38.8040035
0
LINE
8
front_labelLayer
10
95.1968262
20
38.8040035
11
93.0540527
21
38.8040035
0
LINE
8
front_labelLayer
10
93.0540527
20
38.8040035
11
93.0540527
21
34.4578121
0
ARC
8
front_labelLayer
10
94.2476599
20
36.7499684
40
3.6735119
50
269.8803759
51
278.3027954
0
ARC
8
front_labelLayer
10
94.2817319
20
36.4700564
40
3.3916202
50
278.4160767
51
279.0076274
0
ARC
8
front_labelLayer
10
93.8703692
20
39.0978514
40
6.0514156
50
278.9590211
51
280.5103412
0
ARC
8
front_labelLayer
10
94.2632932
20
36.9895292
40
3.9067927
50
280.4847319
51
282.6268651
0
ARC
8
front_labelLayer
10
94.6077512
20
35.4591971
40
2.3381744
50
282.5877756
51
285.5795118
0
ARC
8
front_labelLayer
10
94.7792348
20
34.8282824
40
1.6843896
50
285.7245926
51
286.2555461
0
ARC
8
front_labelLayer
10
94.7804654
20
33.3501081
40
1.1002087
50
287.9887967
51
295.3048459
0
ARC
8
front_labelLayer
10
94.5150916
20
34.1529896
40
1.9458036
50
283.3069621
51
288.1197384
0
ARC
8
front_labelLayer
10
94.2347708
20
35.3223095
40
3.1482513
50
280.0069636
51
283.3734691
0
ARC
8
front_labelLayer
10
94.0474022
20
36.3390026
40
4.1820433
50
279.1862163
51
280.1145059
0
ARC
8
front_labelLayer
10
93.9320647
20
36.9951124
40
4.8481597
50
275.5260628
51
279.2939311
0
ARC
8
front_labelLayer
10
94.0618132
20
35.6399291
40
3.4867803
50
270.893251
51
275.5483568
0
ARC
8
front_labelLayer
10
94.0780986
20
35.0224668
40
2.8691469
50
270.0034522
51
270.7603028
0
ARC
8
front_labelLayer
10
94.0331344
20
35.074476
40
2.9215048
50
253.7848146
51
270.8852518
0
ARC
8
front_labelLayer
10
93.687014
20
33.8940707
40
1.6914058
50
190.3817605
51
253.8772446
0
ARC
8
front_labelLayer
10
95.4511832
20
34.3710702
40
3.5159077
50
179.3550833
51
192.8477491
0
ARC
8
front_labelLayer
10
95.3064158
20
34.443726
40
2.2524072
50
179.6416803
51
189.7505737
0
ARC
8
front_labelLayer
10
94.5112719
20
34.301904
40
1.4447398
50
189.5479928
51
205.7873423
0
ARC
8
front_labelLayer
10
94.1844973
20
34.1512183
40
1.0849734
50
206.1294259
51
221.4083925
0
ARC
8
front_labelLayer
10
94.1478586
20
34.123418
40
1.0391116
50
221.5949304
51
262.350499
0
ARC
8
front_labelLayer
10
94.234997
20
34.5715231
40
1.4950668
50
261.3266623
51
270.1913578
0
LINE
8
left_outsideCutPath
10
164
20
72
11
164
21
62.5
0
LINE
8
left_outsideCutPath
10
164
20
62.5
11
162
21
62.5
0
LINE
8
left_outsideCutPath
10
162
20
62.5
11
162
21
52.5
0
LINE
8
left_outsideCutPath
10
162
20
52.5
11
164
21
52.5
0
LINE
8
left_outsideCutPath
10
164
20
52.5
11
164
21
42.5
0
LINE
8
left_outsideCutPath
10
164
20
42.5
11
162
21
42.5
0
LINE
8
left_outsideCutPath
10
162
20
42.5
11
162
21
32.5
0
LINE
8
left_outsideCutPath
10
162
20
32.5
11
164
21
32.5
0
LINE
8
left_outsideCutPath
10
164
20
32.5
11
164
21
22.5
0
LINE
8
left_outsideCutPath
10
164
20
22.5
11
162
21
22.5
0
LINE
8
left_outsideCutPath
10
162
20
22.5
11
162
21
12.5
0
LINE
8
left_outsideCutPath
10
162
20
12.5
11
164
21
12.5
0
LINE
8
left_outsideCutPath
10
164
20
12.5
11
164
21
3
0
LINE
8
left_outsideCutPath
10
164
20
3
11
171.5
21
3
0
LINE
8
left_outsideCutPath
10
171.5
20
3
11
171.5
21
5
0
LINE
8
left_outsideCutPath
10
171.5
20
5
11
181.5
21
5
0
LINE
8
left_outsideCutPath
10
181.5
20
5
11
181.5
21
3
0
LINE
8
left_outsideCutPath
10
181.5
20
3
11
191.5
21
3
0
LINE
8
left_outsideCutPath
10
191.5
20
3
11
191.5
21
5
0
LINE
8
left_outsideCutPath
10
191.5
20
5
11
201.5
21
5
0
LINE
8
left_outsideCutPath
10
201.5
20
5
11
201.5
21
3
0
LINE
8
left_outsideCutPath
10
201.5
20
3
11
211.5
21
3
0
LINE
8
left_outsideCutPath
10
211.5
20
3
11
211.5
21
5
0
LINE
8
left_outsideCutPath
10
211.5
20
5
11
221.5
21
5
0
LINE
8
left_outsideCutPath
10
221.5
20
5
11
221.5
21
3
0
LINE
8
left_outsideCutPath
10
221.5
20
3
11
231.5
21
3
0
LINE
8
left_outsideCutPath
10
231.5
20
3
11
231.5
21
5
0
LINE
8
left_outsideCutPath
10
231.5
20
5
11
241.5
21
5
0
LINE
8
left_outsideCutPath
10
241.5
20
5
11
241.5
21
3
0
LINE
8
left_outsideCutPath
10
241.5
20
3
11
249
21
3
0
LINE
8
left_outsideCutPath
10
249
20
3
11
249
21
12.5
0
LINE
8
left_outsideCutPath
10
249
20
12.5
11
251
21
12.5
0
LINE
8
left_outsideCutPath
10
251
20
12.5
11
251
21
22.5
0
LINE
8
left_outsideCutPath
10
251
20
22.5
11
249
21
22.5
0
LINE
8
left_outsideCutPath
10
249
20
22.5
11
249
21
32.5
0
LINE
8
left_outsideCutPath
10
249
20
32.5
11
251
21
32.5
0
LINE
8
left_outsideCutPath
10
251
20
32.5
11
251
21
42.5
0
LINE
8
left_outsideCutPath
10
251
20
42.5
11
249
21
42.5
0
LINE
8
left_outsideCutPath
10
249
20
42.5
11
249
21
52.5
0
LINE
8
left_outsideCutPath
10
249
20
52.5
11
251
21
52.5
0
LINE
8
left_outsideCutPath
10
251
20
52.5
11
251
21
62.5
0
LINE
8
left_outsideCutPath
10
251
20
62.5
11
249
21
62.5
0
LINE
8
left_outsideCutPath
10
249
20
62.5
11
249
21
72
0
LINE
8
left_outsideCutPath
10
249
20
72
11
241.5
21
72
0
LINE
8
left_outsideCutPath
10
241.5
20
72
11
241.5
21
70
0
LINE
8
left_outsideCutPath
10
241.5
20
70
11
231.5
21
70
0
LINE
8
left_outsideCutPath
10
231.5
20
70
11
231.5
21
72
0
LINE
8
left_outsideCutPath
10
231.5
20
72
11
221.5
21
72
0
LINE
8
left_outsideCutPath
10
221.5
20
72
11
221.5
21
70
0
LINE
8
left_outsideCutPath
10
221.5
20
70
11
211.5
21
70
0
LINE
8
left_outsideCutPath
10
211.5
20
70
11
211.5
21
72
0
LINE
8
left_outsideCutPath
10
211.5
20
72
11
201.5
21
72
0
LINE
8
left_outsideCutPath
10
201.5
20
72
11
201.5
21
70
0
LINE
8
left_outsideCutPath
10
201.5
20
70
11
191.5
21
70
0
LINE
8
left_outsideCutPath
10
191.5
20
70
11
191.5
21
72
0
LINE
8
left_outsideCutPath
10
191.5
20
72
11
181.5
21
72
0
LINE
8
left_outsideCutPath
10
181.5
20
72
11
181.5
21
70
0
LINE
8
left_outsideCutPath
10
181.5
20
70
11
171.5
21
70
0
LINE
8
left_outsideCutPath
10
171.5
20
70
11
171.5
21
72
0
LINE
8
left_outsideCutPath
10
171.5
20
72
11
164
21
72
0
LINE
8
left_labelLayer
10
197.9659668
20
42.7728512
11
197.9659668
21
32.2880855
0
LINE
8
left_labelLayer
10
197.9659668
20
32.2880855
11
196.8474121
21
32.2880855
0
LINE
8
left_labelLayer
10
196.8474121
20
32.2880855
11
196.8474121
21
42.7728512
0
LINE
8
left_labelLayer
10
196.8474121
20
42.7728512
11
197.9659668
21
42.7728512
0
LINE
8
left_labelLayer
10
206.1731933
20
36.4860348
11
206.1731933
21
35.7785152
0
LINE
8
left_labelLayer
10
206.1731933
20
35.7785152
11
201.085791
21
35.7785152
0
LINE
8
left_labelLayer
10
205.8564941
20
33.6290035
11
205.8564941
21
32.6317379
0
LINE
8
left_labelLayer
10
201.1127441
20
36.6881832
11
204.9737793
21
36.6881832
0
ARC
8
left_labelLayer
10
203.4208875
20
36.4998143
40
4.34665
50
256.0087789
51
270.4848054
0
ARC
8
left_labelLayer
10
203.1043647
20
35.2710128
40
3.0777934
50
223.5465747
51
256.1957041
0
ARC
8
left_labelLayer
10
203.2789751
20
35.3979223
40
3.2919088
50
194.0877226
51
223.0538147
0
ARC
8
left_labelLayer
10
204.8788778
20
35.8354377
40
4.9503109
50
181.3574494
51
194.4920002
0
ARC
8
left_labelLayer
10
206.3159446
20
35.9187605
40
6.3891382
50
179.9887132
51
181.7991637
0
ARC
8
left_labelLayer
10
205.8001885
20
35.9594179
40
5.873514
50
168.9539335
51
180.3843351
0
ARC
8
left_labelLayer
10
203.8819192
20
36.3500097
40
3.9159789
50
149.4070946
51
169.1853806
0
ARC
8
left_labelLayer
10
203.3474814
20
36.6323794
40
3.3123507
50
140.1056373
51
148.9066902
0
ARC
8
left_labelLayer
10
203.0191074
20
36.9351213
40
2.8663239
50
92.4762676
51
140.5386408
0
ARC
8
left_labelLayer
10
203.1654255
20
35.853841
40
3.9541674
50
89.9638555
51
93.9176512
0
ARC
8
left_labelLayer
10
203.2003344
20
36.4003477
40
3.4078139
50
74.2126075
51
90.5449955
0
ARC
8
left_labelLayer
10
203.4137767
20
37.1867646
40
2.5930055
50
41.2064726
51
74.023274
0
ARC
8
left_labelLayer
10
203.0095599
20
36.8369447
40
3.127568
50
11.5994279
51
41.1496091
0
ARC
8
left_labelLayer
10
201.6206886
20
36.5166433
40
4.5526077
50
359.6147807
51
12.0336511
0
ARC
8
left_labelLayer
10
205.5743408
20
35.8682017
40
4.4894457
50
181.1446847
51
190.8007296
0
ARC
8
left_labelLayer
10
203.9905313
20
35.5558285
40
2.8751743
50
190.6005874
51
206.0275131
0
ARC
8
left_labelLayer
10
203.2897755
20
35.2245411
40
2.1001398
50
206.2949904
51
222.5558394
0
ARC
8
left_labelLayer
10
203.2276917
20
35.1920367
40
2.032505
50
223.0645131
51
258.1401429
0
ARC
8
left_labelLayer
10
203.4748791
20
36.2098593
40
3.0795759
50
257.5312006
51
270.4319508
0
ARC
8
left_labelLayer
10
203.4776394
20
39.0380383
40
5.907703
50
270.1983953
51
292.2090401
0
ARC
8
left_labelLayer
10
203.1935984
20
39.853607
40
6.7702808
50
291.82562
51
293.1613196
0
ARC
8
left_labelLayer
10
203.1803377
20
38.7905505
40
6.7151163
50
287.9023139
51
293.4861384
0
ARC
8
left_labelLayer
10
203.6674643
20
37.2875946
40
5.1351904
50
281.9936115
51
287.8851351
0
ARC
8
left_labelLayer
10
203.7855253
20
36.863279
40
4.6956832
50
275.9054619
51
281.6603796
0
ARC
8
left_labelLayer
10
203.5491949
20
39.0692296
40
6.914247
50
271.9119585
51
275.9726807
0
ARC
8
left_labelLayer
10
203.4629275
20
41.2663302
40
9.1130119
50
269.9669197
51
271.9931636
0
ARC
8
left_labelLayer
10
203.1329795
20
36.6665532
40
2.2049376
50
89.4422497
51
106.2089332
0
ARC
8
left_labelLayer
10
203.0003297
20
37.1502229
40
1.7034828
50
106.4657304
51
137.9176323
0
ARC
8
left_labelLayer
10
203.380642
20
36.8162449
40
2.2095865
50
138.0994605
51
160.5866256
0
ARC
8
left_labelLayer
10
204.3582416
20
36.4566025
40
3.2511744
50
160.3353352
51
172.5315117
0
ARC
8
left_labelLayer
10
205.3207025
20
36.3023844
40
4.225607
50
172.1544513
51
174.7615879
0
ARC
8
left_labelLayer
10
201.1621944
20
36.7098359
40
3.8116464
50
359.6745195
51
8.9224314
0
ARC
8
left_labelLayer
10
202.5241848
20
36.9317495
40
2.431732
50
8.7342346
51
23.2771766
0
ARC
8
left_labelLayer
10
203.1707729
20
37.2031689
40
1.7305253
50
23.4821717
51
39.7071896
0
ARC
8
left_labelLayer
10
203.3296017
20
37.3220239
40
1.5324359
50
40.0822979
51
80.6243303
0
ARC
8
left_labelLayer
10
203.1661189
20
36.5726218
40
2.2987942
50
79.6468506
51
90.2910049
0
LINE
8
left_labelLayer
10
211.4088379
20
39.6732418
11
211.4088379
21
38.8040035
0
LINE
8
left_labelLayer
10
211.4088379
20
38.8040035
11
209.5288574
21
38.8040035
0
LINE
8
left_labelLayer
10
209.5288574
20
38.8040035
11
209.5288574
21
32.2880855
0
LINE
8
left_labelLayer
10
209.5288574
20
32.2880855
11
208.4103027
21
32.2880855
0
LINE
8
left_labelLayer
10
208.4103027
20
32.2880855
11
208.4103027
21
38.8040035
0
LINE
8
left_labelLayer
10
208.4103027
20
38.8040035
11
207.0895996
21
38.8040035
0
LINE
8
left_labelLayer
10
207.0895996
20
38.8040035
11
207.0895996
21
39.3093746
0
LINE
8
left_labelLayer
10
207.0895996
20
39.3093746
11
208.4103027
21
39.7136715
0
LINE
8
left_labelLayer
10
208.4103027
20
39.7136715
11
208.4103027
21
40.1247066
0
LINE
8
left_labelLayer
10
212.1635254
20
42.6111324
11
211.8737793
21
41.714941
0
LINE
8
left_labelLayer
10
209.5288574
20
40.1516598
11
209.5288574
21
39.6732418
0
LINE
8
left_labelLayer
10
209.5288574
20
39.6732418
11
211.4088379
21
39.6732418
0
ARC
8
left_labelLayer
10
212.9434122
20
40.1768225
40
4.533409
50
167.5776028
51
180.658684
0
ARC
8
left_labelLayer
10
210.8116562
20
40.6738241
40
2.3448005
50
141.7433921
51
168.232207
0
ARC
8
left_labelLayer
10
210.4645621
20
40.8549806
40
1.9614235
50
98.2551512
51
139.6203261
0
ARC
8
left_labelLayer
10
210.7693147
20
39.4471484
40
3.3998803
50
89.6696709
51
99.9314529
0
ARC
8
left_labelLayer
10
210.7701673
20
39.2450185
40
3.6020025
50
81.5641103
51
89.7017693
0
ARC
8
left_labelLayer
10
210.5169373
20
37.4783477
40
5.3867154
50
75.9740134
51
81.6564894
0
ARC
8
left_labelLayer
10
210.0823953
20
35.6759633
40
7.2406957
50
73.2963651
51
76.0946314
0
ARC
8
left_labelLayer
10
210.1918062
20
36.5502125
40
5.4317082
50
71.9613658
51
76.5918268
0
ARC
8
left_labelLayer
10
210.6132129
20
38.3378563
40
3.595075
50
76.5183491
51
83.0217032
0
ARC
8
left_labelLayer
10
210.7599955
20
39.5182601
40
2.4055835
50
83.0761035
51
89.7926494
0
ARC
8
left_labelLayer
10
210.7551664
20
40.4153961
40
1.5084924
50
89.485915
51
103.4197426
0
ARC
8
left_labelLayer
10
210.6191649
20
40.9378994
40
0.9687546
50
102.7677321
51
144.3380447
0
ARC
8
left_labelLayer
10
210.8931509
20
40.7616148
40
1.2942397
50
145.0688802
51
162.18021
0
ARC
8
left_labelLayer
10
211.8325583
20
40.4455502
40
2.2853409
50
161.8437636
51
171.7846961
0
ARC
8
left_labelLayer
10
213.3647396
20
40.2154198
40
3.8346934
50
171.6527586
51
178.4383407
0
ARC
8
left_labelLayer
10
214.8100208
20
40.1537893
40
5.281164
50
178.1972751
51
180.0231032
0
LINE
8
left_labelLayer
10
216.1525879
20
33.2112301
11
216.1525879
21
32.3554684
0
LINE
8
left_labelLayer
10
212.8373535
20
34.4106441
11
212.8373535
21
38.8040035
0
LINE
8
left_labelLayer
10
212.8373535
20
38.8040035
11
211.7794433
21
38.8040035
0
LINE
8
left_labelLayer
10
211.7794433
20
38.8040035
11
211.7794433
21
39.343066
0
LINE
8
left_labelLayer
10
211.7794433
20
39.343066
11
212.8373535
21
39.8080074
0
LINE
8
left_labelLayer
10
212.8373535
20
39.8080074
11
213.3090332
21
41.3847652
0
LINE
8
left_labelLayer
10
213.3090332
20
41.3847652
11
213.9559082
21
41.3847652
0
LINE
8
left_labelLayer
10
213.9559082
20
41.3847652
11
213.9559082
21
39.6732418
0
LINE
8
left_labelLayer
10
213.9559082
20
39.6732418
11
216.0986816
21
39.6732418
0
LINE
8
left_labelLayer
10
216.0986816
20
39.6732418
11
216.0986816
21
38.8040035
0
LINE
8
left_labelLayer
10
216.0986816
20
38.8040035
11
213.9559082
21
38.8040035
0
LINE
8
left_labelLayer
10
213.9559082
20
38.8040035
11
213.9559082
21
34.4578121
0
ARC
8
left_labelLayer
10
215.1495154
20
36.7499684
40
3.6735119
50
269.8803759
51
278.3027954
0
ARC
8
left_labelLayer
10
215.1835874
20
36.4700564
40
3.3916202
50
278.4160767
51
279.0076274
0
ARC
8
left_labelLayer
10
214.7722247
20
39.0978514
40
6.0514156
50
278.9590211
51
280.5103412
0
ARC
8
left_labelLayer
10
215.1651487
20
36.9895292
40
3.9067927
50
280.4847319
51
282.6268651
0
ARC
8
left_labelLayer
10
215.5096067
20
35.4591971
40
2.3381744
50
282.5877756
51
285.5795118
0
ARC
8
left_labelLayer
10
215.6810903
20
34.8282824
40
1.6843896
50
285.7245926
51
286.2555461
0
ARC
8
left_labelLayer
10
215.6823209
20
33.3501081
40
1.1002087
50
287.9887967
51
295.3048459
0
ARC
8
left_labelLayer
10
215.416947
20
34.1529896
40
1.9458036
50
283.3069621
51
288.1197384
0
ARC
8
left_labelLayer
10
215.1366263
20
35.3223095
40
3.1482513
50
280.0069636
51
283.3734691
0
ARC
8
left_labelLayer
10
214.9492576
20
36.3390026
40
4.1820433
50
279.1862163
51
280.1145059
0
ARC
8
left_labelLayer
10
214.8339202
20
36.9951124
40
4.8481597
50
275.5260628
51
279.2939311
0
ARC
8
left_labelLayer
10
214.9636686
20
35.6399291
40
3.4867803
50
270.893251
51
275.5483568
0
ARC
8
left_labelLayer
10
214.9799541
20
35.0224668
40
2.8691469
50
270.0034522
51
270.7603028
0
ARC
8
left_labelLayer
10
214.9349899
20
35.074476
40
2.9215048
50
253.7848146
51
270.8852518
0
ARC
8
left_labelLayer
10
214.5888695
20
33.8940707
40
1.6914058
50
190.3817605
51
253.8772446
0
ARC
8
left_labelLayer
10
216.3530386
20
34.3710702
40
3.5159077
50
179.3550833
51
192.8477491
0
ARC
8
left_labelLayer
10
216.2082713
20
34.443726
40
2.2524072
50
179.6416803
51
189.7505737
0
ARC
8
left_labelLayer
10
215.4131274
20
34.301904
40
1.4447398
50
189.5479928
51
205.7873423
0
ARC
8
left_labelLayer
10
215.0863528
20
34.1512183
40
1.0849734
50
206.1294259
51
221.4083925
0
ARC
8
left_labelLayer
10
215.0497141
20
34.123418
40
1.0391116
50
221.5949304
51
262.350499
0
ARC
8
left_labelLayer
10
215.1368524
20
34.5715231
40
1.4950668
50
261.3266623
51
270.1913578
0
LINE
8
top_outsideCutPath
10
256
20
90
11
256
21
82.5
0
LINE
8
top_outsideCutPath
10
256
20
82.5
11
254
21
82.5
0
LINE
8
top_outsideCutPath
10
254
20
82.5
11
254
21
72.5
0
LINE
8
top_outsideCutPath
10
254
20
72.5
11
256
21
72.5
0
LINE
8
top_outsideCutPath
10
256
20
72.5
11
256
21
62.5
0
LINE
8
top_outsideCutPath
10
256
20
62.5
11
254
21
62.5
0
LINE
8
top_outsideCutPath
10
254
20
62.5
11
254
21
52.5
0
LINE
8
top_outsideCutPath
10
254
20
52.5
11
256
21
52.5
0
LINE
8
top_outsideCutPath
10
256
20
52.5
11
256
21
42.5
0
LINE
8
top_outsideCutPath
10
256
20
42.5
11
254
21
42.5
0
LINE
8
top_outsideCutPath
10
254
20
42.5
11
254
21
32.5
0
LINE
8
top_outsideCutPath
10
254
20
32.5
11
256
21
32.5
0
LINE
8
top_outsideCutPath
10
256
20
32.5
11
256
21
22.5
0
LINE
8
top_outsideCutPath
10
256
20
22.5
11
254
21
22.5
0
LINE
8
top_outsideCutPath
10
254
20
22.5
11
254
21
12.5
0
LINE
8
top_outsideCutPath
10
254
20
12.5
11
256
21
12.5
0
LINE
8
top_outsideCutPath
10
256
20
12.5
11
256
21
5
0
LINE
8
top_outsideCutPath
10
256
20
5
11
268.5
21
5
0
LINE
8
top_outsideCutPath
10
268.5
20
5
11
268.5
21
3
0
LINE
8
top_outsideCutPath
10
268.5
20
3
11
278.5
21
3
0
LINE
8
top_outsideCutPath
10
278.5
20
3
11
278.5
21
5
0
LINE
8
top_outsideCutPath
10
278.5
20
5
11
288.5
21
5
0
LINE
8
top_outsideCutPath
10
288.5
20
5
11
288.5
21
3
0
LINE
8
top_outsideCutPath
10
288.5
20
3
11
298.5
21
3
0
LINE
8
top_outsideCutPath
10
298.5
20
3
11
298.5
21
5
0
LINE
8
top_outsideCutPath
10
298.5
20
5
11
308.5
21
5
0
LINE
8
top_outsideCutPath
10
308.5
20
5
11
308.5
21
3
0
LINE
8
top_outsideCutPath
10
308.5
20
3
11
318.5
21
3
0
LINE
8
top_outsideCutPath
10
318.5
20
3
11
318.5
21
5
0
LINE
8
top_outsideCutPath
10
318.5
20
5
11
328.5
21
5
0
LINE
8
top_outsideCutPath
10
328.5
20
5
11
328.5
21
3
0
LINE
8
top_outsideCutPath
10
328.5
20
3
11
338.5
21
3
0
LINE
8
top_outsideCutPath
10
338.5
20
3
11
338.5
21
5
0
LINE
8
top_outsideCutPath
10
338.5
20
5
11
348.5
21
5
0
LINE
8
top_outsideCutPath
10
348.5
20
5
11
348.5
21
3
0
LINE
8
top_outsideCutPath
10
348.5
20
3
11
358.5
21
3
0
LINE
8
top_outsideCutPath
10
358.5
20
3
11
358.5
21
5
0
LINE
8
top_outsideCutPath
10
358.5
20
5
11
368.5
21
5
0
LINE
8
top_outsideCutPath
10
368.5
20
5
11
368.5
21
3
0
LINE
8
top_outsideCutPath
10
368.5
20
3
11
378.5
21
3
0
LINE
8
top_outsideCutPath
10
378.5
20
3
11
378.5
21
5
0
LINE
8
top_outsideCutPath
10
378.5
20
5
11
388.5
21
5
0
LINE
8
top_outsideCutPath
10
388.5
20
5
11
388.5
21
3
0
LINE
8
top_outsideCutPath
10
388.5
20
3
11
398.5
21
3
0
LINE
8
top_outsideCutPath
10
398.5
20
3
11
398.5
21
5
0
LINE
8
top_outsideCutPath
10
398.5
20
5
11
408.5
21
5
0
LINE
8
top_outsideCutPath
10
408.5
20
5
11
411
21
5
0
LINE
8
top_outsideCutPath
10
411
20
5
11
411
21
12.5
0
LINE
8
top_outsideCutPath
10
411
20
12.5
11
413
21
12.5
0
LINE
8
top_outsideCutPath
10
413
20
12.5
11
413
21
22.5
0
LINE
8
top_outsideCutPath
10
413
20
22.5
11
411
21
22.5
0
LINE
8
top_outsideCutPath
10
411
20
22.5
11
411
21
32.5
0
LINE
8
top_outsideCutPath
10
411
20
32.5
11
413
21
32.5
0
LINE
8
top_outsideCutPath
10
413
20
32.5
11
413
21
42.5
0
LINE
8
top_outsideCutPath
10
413
20
42.5
11
411
21
42.5
0
LINE
8
top_outsideCutPath
10
411
20
42.5
11
411
21
52.5
0
LINE
8
top_outsideCutPath
10
411
20
52.5
11
413
21
52.5
0
LINE
8
top_outsideCutPath
10
413
20
52.5
11
413
21
62.5
0
LINE
8
top_outsideCutPath
10
413
20
62.5
11
411
21
62.5
0
LINE
8
top_outsideCutPath
10
411
20
62.5
11
411
21
72.5
0
LINE
8
top_outsideCutPath
10
411
20
72.5
11
413
21
72.5
0
LINE
8
top_outsideCutPath
10
413
20
72.5
11
413
21
82.5
0
LINE
8
top_outsideCutPath
10
413
20
82.5
11
411
21
82.5
0
LINE
8
top_outsideCutPath
10
411
20
82.5
11
411
21
90
0
LINE
8
top_outsideCutPath
10
411
20
90
11
398.5
21
90
0
LINE
8
top_outsideCutPath
10
398.5
20
90
11
398.5
21
92
0
LINE
8
top_outsideCutPath
10
398.5
20
92
11
388.5
21
92
0
LINE
8
top_outsideCutPath
10
388.5
20
92
11
388.5
21
90
0
LINE
8
top_outsideCutPath
10
388.5
20
90
11
378.5
21
90
0
LINE
8
top_outsideCutPath
10
378.5
20
90
11
378.5
21
92
0
LINE
8
top_outsideCutPath
10
378.5
20
92
11
368.5
21
92
0
LINE
8
top_outsideCutPath
10
368.5
20
92
11
368.5
21
90
0
LINE
8
top_outsideCutPath
10
368.5
20
90
11
358.5
21
90
0
LINE
8
top_outsideCutPath
10
358.5
20
90
11
358.5
21
92
0
LINE
8
top_outsideCutPath
10
358.5
20
92
11
348.5
21
92
0
LINE
8
top_outsideCutPath
10
348.5
20
92
11
348.5
21
90
0
LINE
8
top_outsideCutPath
10
348.5
20
90
11
338.5
21
90
0
LINE
8
top_outsideCutPath
10
338.5
20
90
11
338.5
21
92
0
LINE
8
top_outsideCutPath
10
338.5
20
92
11
328.5
21
92
0
LINE
8
top_outsideCutPath
10
328.5
20
92
11
328.5
21
90
0
LINE
8
top_outsideCutPath
10
328.5
20
90
11
318.5
21
90
0
LINE
8
top_outsideCutPath
10
318.5
20
90
11
318.5
21
92
0
LINE
8
top_outsideCutPath
10
318.5
20
92
11
308.5
21
92
0
LINE
8
top_outsideCutPath
10
308.5
20
92
11
308.5
21
90
0
LINE
8
top_outsideCutPath
10
308.5
20
90
11
298.5
21
90
0
LINE
8
top_outsideCutPath
10
298.5
20
90
11
298.5
21
92
0
LINE
8
top_outsideCutPath
10
298.5
20
92
11
288.5
21
92
0
LINE
8
top_outsideCutPath
10
288.5
20
92
11
288.5
21
90
0
LINE
8
top_outsideCutPath
10
288.5
20
90
11
278.5
21
90
0
LINE
8
top_outsideCutPath
10
278.5
20
90
11
278.5
21
92
0
LINE
8
top_outsideCutPath
10
278.5
20
92
11
268.5
21
92
0
LINE
8
top_outsideCutPath
10
268.5
20
92
11
268.5
21
90
0
LINE
8
top_outsideCutPath
10
268.5
20
90
11
258.5
21
90
0
LINE
8
top_outsideCutPath
10
258.5
20
90
11
256
21
90
0
LINE
8
top_labelLayer
10
325.7993404
20
44.9621094
11
325.7993404
21
43.8583008
0
LINE
8
top_labelLayer
10
321.5231686
20
46.5091797
11
321.5231686
21
52.1759766
0
LINE
8
top_labelLayer
10
321.5231686
20
52.1759766
11
320.1586178
21
52.1759766
0
LINE
8
top_labelLayer
10
320.1586178
20
52.1759766
11
320.1586178
21
52.8712891
0
LINE
8
top_labelLayer
10
320.1586178
20
52.8712891
11
321.5231686
21
53.4709961
0
LINE
8
top_labelLayer
10
321.5231686
20
53.4709961
11
322.131567
21
55.5047852
0
LINE
8
top_labelLayer
10
322.131567
20
55.5047852
11
322.965942
21
55.5047852
0
LINE
8
top_labelLayer
10
322.965942
20
55.5047852
11
322.965942
21
53.297168
0
LINE
8
top_labelLayer
10
322.965942
20
53.297168
11
325.7298092
21
53.297168
0
LINE
8
top_labelLayer
10
325.7298092
20
53.297168
11
325.7298092
21
52.1759766
0
LINE
8
top_labelLayer
10
325.7298092
20
52.1759766
11
322.965942
21
52.1759766
0
LINE
8
top_labelLayer
10
322.965942
20
52.1759766
11
322.965942
21
46.5700195
0
ARC
8
top_labelLayer
10
324.5055252
20
49.5265278
40
4.7382569
50
269.8803397
51
278.3028324
0
ARC
8
top_labelLayer
10
324.5509992
20
49.155518
40
4.3645774
50
278.4154437
51
279.0083662
0
ARC
8
top_labelLayer
10
324.0189925
20
52.5542368
40
7.8046786
50
278.9590173
51
280.5104905
0
ARC
8
top_labelLayer
10
324.5256195
20
49.8359064
40
5.0395417
50
280.4847863
51
282.6267727
0
ARC
8
top_labelLayer
10
324.9699738
20
47.8617303
40
3.0159767
50
282.5877495
51
285.5794157
0
ARC
8
top_labelLayer
10
325.1937759
20
47.0387856
40
2.1631672
50
285.7235566
51
286.2568299
0
ARC
8
top_labelLayer
10
325.1927652
20
45.1412394
40
1.4191071
50
287.9887914
51
295.3048546
0
ARC
8
top_labelLayer
10
324.8504805
20
46.1767993
40
2.5097604
50
283.3069651
51
288.1198266
0
ARC
8
top_labelLayer
10
324.4889309
20
47.6849186
40
4.0606078
50
280.0069308
51
283.3735858
0
ARC
8
top_labelLayer
10
324.2469829
20
48.9978982
40
5.3956648
50
279.18629
51
280.1143327
0
ARC
8
top_labelLayer
10
324.0984678
20
49.8426532
40
6.2533061
50
275.5260052
51
279.293944
0
ARC
8
top_labelLayer
10
324.2658029
20
48.094804
40
4.4974664
50
270.8932972
51
275.5483771
0
ARC
8
top_labelLayer
10
324.2868476
20
47.2933435
40
3.695785
50
270.0029174
51
270.7607917
0
ARC
8
top_labelLayer
10
324.2288154
20
47.3654218
40
3.768313
50
253.7847945
51
270.8852535
0
ARC
8
top_labelLayer
10
323.7823703
20
45.8428748
40
2.1816683
50
190.3817615
51
253.8772461
0
ARC
8
top_labelLayer
10
326.0578843
20
46.4581352
40
4.5350031
50
179.3550845
51
192.8477754
0
ARC
8
top_labelLayer
10
325.8711609
20
46.5518503
40
2.9052757
50
179.6416771
51
189.750581
0
ARC
8
top_labelLayer
10
324.8455316
20
46.3689169
40
1.8634925
50
189.547938
51
205.7873968
0
ARC
8
top_labelLayer
10
324.4240563
20
46.1745611
40
1.3994639
50
206.1294605
51
221.4083667
0
ARC
8
top_labelLayer
10
324.3767922
20
46.1386979
40
1.3403015
50
221.5949018
51
262.3505275
0
ARC
8
top_labelLayer
10
324.4891893
20
46.7166706
40
1.9284001
50
261.3265651
51
270.1913502
0
ARC
8
top_labelLayer
10
328.472478
20
48.4927274
40
7.4525201
50
349.1761983
51
0.3862638
0
ARC
8
top_labelLayer
10
330.9815654
20
47.9925376
40
4.894182
50
330.2507108
51
349.411639
0
ARC
8
top_labelLayer
10
331.7537394
20
47.5911919
40
4.0247763
50
318.1439741
51
329.7566262
0
ARC
8
top_labelLayer
10
331.8931043
20
47.4795045
40
3.8464618
50
278.8959124
51
317.9979162
0
ARC
8
top_labelLayer
10
331.5340116
20
49.1999426
40
5.6024373
50
269.7502858
51
279.8033331
0
ARC
8
top_labelLayer
10
331.4757737
20
48.2305834
40
4.6331483
50
253.5436872
51
270.4182465
0
ARC
8
top_labelLayer
10
331.3215484
20
47.6339994
40
4.0173686
50
238.8115758
51
253.2428261
0
ARC
8
top_labelLayer
10
331.2717705
20
47.5338944
40
3.905965
50
207.7947015
51
238.6757967
0
ARC
8
top_labelLayer
10
331.9859829
20
47.9713172
40
4.7420534
50
205.6560082
51
208.4461312
0
ARC
8
top_labelLayer
10
332.5361391
20
48.200551
40
5.3373136
50
188.9102467
51
205.3171466
0
ARC
8
top_labelLayer
10
334.3901561
20
48.5145597
40
7.2176294
50
179.7744797
51
189.0932735
0
ARC
8
top_labelLayer
10
334.6636306
20
48.5937081
40
7.4912198
50
169.2442972
51
180.3880774
0
ARC
8
top_labelLayer
10
332.119671
20
49.0965566
40
4.8981483
50
150.7111491
51
169.4695431
0
ARC
8
top_labelLayer
10
331.3075561
20
49.5136085
40
3.9859646
50
138.1759408
51
150.228753
0
ARC
8
top_labelLayer
10
331.1724713
20
49.6172704
40
3.816195
50
99.1759331
51
137.983278
0
ARC
8
top_labelLayer
10
331.5442868
20
47.8674646
40
5.6035926
50
89.732646
51
100.0759806
0
ARC
8
top_labelLayer
10
331.6185984
20
48.6231506
40
4.8480847
50
73.5222743
51
90.5692254
0
ARC
8
top_labelLayer
10
331.9029094
20
49.6561288
40
3.7769431
50
41.1445691
51
73.213379
0
ARC
8
top_labelLayer
10
331.3601817
20
49.189662
40
4.492566
50
13.5014408
51
41.0703426
0
ARC
8
top_labelLayer
10
329.2633641
20
48.6409522
40
6.6596885
50
1.1277204
51
13.8800096
0
ARC
8
top_labelLayer
10
327.4566816
20
48.5441585
40
8.4681472
50
359.99195
51
1.5419228
0
ARC
8
top_labelLayer
10
335.9736047
20
48.5054755
40
7.3061964
50
179.7059737
51
187.9160667
0
ARC
8
top_labelLayer
10
333.2939085
20
48.1205418
40
4.5990376
50
187.76393
51
200.0976863
0
ARC
8
top_labelLayer
10
331.817681
20
47.5796493
40
3.026838
50
200.084576
51
216.9131591
0
ARC
8
top_labelLayer
10
331.2786178
20
47.1947335
40
2.3647039
50
217.3009622
51
261.7099079
0
ARC
8
top_labelLayer
10
331.5288712
20
48.3889126
40
3.5832822
50
260.5033025
51
270.247662
0
ARC
8
top_labelLayer
10
331.5766354
20
48.1567011
40
3.3511925
50
269.4481745
51
284.7255788
0
ARC
8
top_labelLayer
10
331.8419305
20
47.1728103
40
2.3321921
50
284.5662245
51
322.6333851
0
ARC
8
top_labelLayer
10
331.2216637
20
47.6209266
40
3.0971945
50
323.0089094
51
342.6390664
0
ARC
8
top_labelLayer
10
329.4475454
20
48.2007598
40
4.9635658
50
342.3615767
51
353.753754
0
ARC
8
top_labelLayer
10
326.8301447
20
48.5162541
40
7.5998093
50
353.5362985
51
0.2014052
0
ARC
8
top_labelLayer
10
327.2311472
20
48.5797099
40
7.1988534
50
359.7075758
51
7.8972535
0
ARC
8
top_labelLayer
10
329.8675794
20
48.9576649
40
4.5355113
50
7.7439868
51
20.0690016
0
ARC
8
top_labelLayer
10
331.3366932
20
49.4967725
40
2.9706071
50
20.0257153
51
37.4350383
0
ARC
8
top_labelLayer
10
331.8241366
20
49.8426542
40
2.3734066
50
37.9577677
51
80.4006187
0
ARC
8
top_labelLayer
10
331.5471392
20
48.6067115
40
3.6388521
50
79.3453649
51
90.3174644
0
ARC
8
top_labelLayer
10
331.4958507
20
48.8120128
40
3.4336361
50
89.4805966
51
103.8804931
0
ARC
8
top_labelLayer
10
331.207337
20
49.910675
40
2.2979024
50
103.4685257
51
142.3118816
0
ARC
8
top_labelLayer
10
331.768232
20
49.5162145
40
2.9830838
50
142.9025804
51
162.3749581
0
ARC
8
top_labelLayer
10
333.5356171
20
48.9272392
40
4.8459097
50
162.0653265
51
173.1674779
0
ARC
8
top_labelLayer
10
336.2914021
20
48.575755
40
7.623968
50
173.0086142
51
180.2463966
0
LINE
8
top_labelLayer
10
339.8968014
20
44.996875
11
339.7925045
21
44.996875
0
LINE
8
top_labelLayer
10
339.8968014
20
43.4150391
11
339.8968014
21
39.4952148
0
LINE
8
top_labelLayer
10
339.8968014
20
39.4952148
11
338.4540279
21
39.4952148
0
LINE
8
top_labelLayer
10
338.4540279
20
39.4952148
11
338.4540279
21
53.297168
0
LINE
8
top_labelLayer
10
338.4540279
20
53.297168
11
339.6273678
21
53.297168
0
LINE
8
top_labelLayer
10
339.6273678
20
53.297168
11
339.8272701
21
51.993457
0
LINE
8
top_labelLayer
10
339.8272701
20
51.993457
11
339.8968014
21
51.993457
0
LINE
8
top_labelLayer
10
339.8968014
20
48.8645508
11
339.8968014
21
48.5429688
0
ARC
8
top_labelLayer
10
342.8623147
20
47.9737372
40
4.3762463
50
255.7755459
51
270.3185468
0
ARC
8
top_labelLayer
10
342.7374309
20
47.4188833
40
3.8077479
50
245.9801504
51
255.5455585
0
ARC
8
top_labelLayer
10
342.4955369
20
46.8563589
40
3.1954821
50
215.5850124
51
245.8361653
0
ARC
8
top_labelLayer
10
326.2463692
20
43.2850934
40
13.6538631
50
2.9503147
51
7.2021098
0
ARC
8
top_labelLayer
10
328.4554503
20
43.4086881
40
11.4413527
50
0.0318041
51
2.9015908
0
ARC
8
top_labelLayer
10
343.0749496
20
49.7614397
40
3.883623
50
132.3565281
51
144.9195855
0
ARC
8
top_labelLayer
10
342.4800068
20
50.4105014
40
3.0031508
50
115.4006121
51
132.3118301
0
ARC
8
top_labelLayer
10
342.7120718
20
49.8455668
40
3.6131647
50
97.7066302
51
114.8821538
0
ARC
8
top_labelLayer
10
342.8741439
20
48.794469
40
4.6765439
50
89.8468375
51
97.9474399
0
ARC
8
top_labelLayer
10
342.9312991
20
49.0487514
40
4.4224701
50
74.1923587
51
90.5785285
0
ARC
8
top_labelLayer
10
343.2373086
20
50.1611622
40
3.2687804
50
38.0523395
51
74.0417311
0
ARC
8
top_labelLayer
10
342.3932777
20
49.5142485
40
4.3321699
50
16.3356024
51
37.9090556
0
ARC
8
top_labelLayer
10
340.1759853
20
48.8313085
40
6.6521132
50
4.576666
51
16.6088793
0
ARC
8
top_labelLayer
10
337.446224
20
48.5593104
40
9.3950252
50
359.9003401
51
4.9018112
0
ARC
8
top_labelLayer
10
338.3820647
20
48.4930599
40
8.4593175
50
350.6562891
51
0.3380393
0
ARC
8
top_labelLayer
10
341.3311218
20
47.9914585
40
5.4679734
50
335.830597
51
350.8254867
0
ARC
8
top_labelLayer
10
342.6283619
20
47.4315509
40
4.0552554
50
321.316139
51
335.5436247
0
ARC
8
top_labelLayer
10
343.1243006
20
47.0274353
40
3.4155453
50
274.0640013
51
321.408103
0
ARC
8
top_labelLayer
10
342.8932557
20
48.4909689
40
4.8934149
50
269.9225989
51
275.5481612
0
ARC
8
top_labelLayer
10
342.6483345
20
48.0884168
40
4.1571973
50
89.5904299
51
100.3501618
0
ARC
8
top_labelLayer
10
342.3518964
20
49.6457335
40
2.5719889
50
100.0868154
51
118.1917857
0
ARC
8
top_labelLayer
10
342.0482201
20
50.2380031
40
1.9065542
50
118.5569505
51
141.0243377
0
ARC
8
top_labelLayer
10
342.5109633
20
49.9115911
40
2.4718883
50
141.8890384
51
160.5973048
0
ARC
8
top_labelLayer
10
344.1372292
20
49.3148667
40
4.2040894
50
160.2895675
51
171.245295
0
ARC
8
top_labelLayer
10
346.8110871
20
48.8837527
40
6.9124381
50
171.0868313
51
178.3247615
0
ARC
8
top_labelLayer
10
349.0787073
20
48.7759807
40
9.1823332
50
178.0662233
51
179.4473335
0
ARC
8
top_labelLayer
10
349.4362322
20
48.5057186
40
9.5395036
50
179.7762692
51
185.7075251
0
ARC
8
top_labelLayer
10
345.6751595
20
48.1181958
40
5.7585486
50
185.592493
51
194.2050547
0
ARC
8
top_labelLayer
10
343.2658345
20
47.4928942
40
3.2694814
50
193.9430474
51
208.0218306
0
ARC
8
top_labelLayer
10
342.2910308
20
46.9969876
40
2.1760681
50
208.5536951
51
217.5605009
0
ARC
8
top_labelLayer
10
342.2115952
20
46.9639449
40
2.093074
50
218.1690521
51
253.8047071
0
ARC
8
top_labelLayer
10
342.5998206
20
48.1608897
40
3.3510275
50
253.1382689
51
266.8482972
0
ARC
8
top_labelLayer
10
342.7086806
20
49.4446791
40
4.6390167
50
266.3775666
51
270.0510882
0
ARC
8
top_labelLayer
10
342.7456694
20
47.2364611
40
2.431019
50
269.2256916
51
292.0430295
0
ARC
8
top_labelLayer
10
342.7784703
20
47.0409842
40
2.2379331
50
293.142958
51
324.1353793
0
ARC
8
top_labelLayer
10
342.2911461
20
47.4535847
40
2.8750085
50
323.1615416
51
325.0152827
0
ARC
8
top_labelLayer
10
341.7692887
20
47.7771672
40
3.4882641
50
325.5753666
51
344.1504742
0
ARC
8
top_labelLayer
10
339.9641921
20
48.3107733
40
5.3705076
50
343.9336201
51
355.1137532
0
ARC
8
top_labelLayer
10
337.659853
20
48.544595
40
7.6864762
50
354.8402349
51
0.1174509
0
ARC
8
top_labelLayer
10
338.0657342
20
48.597097
40
7.2806716
50
359.7108278
51
7.8610306
0
ARC
8
top_labelLayer
10
340.7129851
20
48.9744541
40
4.6067011
50
7.7149616
51
19.8859585
0
ARC
8
top_labelLayer
10
342.1689047
20
49.500338
40
3.0587168
50
19.8991368
51
35.89801
0
ARC
8
top_labelLayer
10
342.8183107
20
49.9921476
40
2.244357
50
35.448165
51
85.2266537
0
ARC
8
top_labelLayer
10
342.6826485
20
49.1414423
40
3.104069
50
84.0378385
51
90.0848543
0
LINE
8
back_outsideCutPath
10
0
20
144
11
0
21
134.5
0
LINE
8
back_outsideCutPath
10
0
20
134.5
11
2
21
134.5
0
LINE
8
back_outsideCutPath
10
2
20
134.5
11
2
21
124.5
0
LINE
8
back_outsideCutPath
10
2
20
124.5
11
0
21
124.5
0
LINE
8
back_outsideCutPath
10
0
20
124.5
11
0
21
114.5
0
LINE
8
back_outsideCutPath
10
0
20
114.5
11
2
21
114.5
0
LINE
8
back_outsideCutPath
10
2
20
114.5
11
2
21
104.5
0
LINE
8
back_outsideCutPath
10
2
20
104.5
11
0
21
104.5
0
LINE
8
back_outsideCutPath
10
0
20
104.5
11
0
21
94.5
0
LINE
8
back_outsideCutPath
10
0
20
94.5
11
2
21
94.5
0
LINE
8
back_outsideCutPath
10
2
20
94.5
11
2
21
84.5
0
LINE
8
back_outsideCutPath
10
2
20
84.5
11
0
21
84.5
0
LINE
8
back_outsideCutPath
10
0
20
84.5
11
0
21
75
0
LINE
8
back_outsideCutPath
10
0
20
75
11
14.5
21
75
0
LINE
8
back_outsideCutPath
10
14.5
20
75
11
14.5
21
77
0
LINE
8
back_outsideCutPath
10
14.5
20
77
11
24.5
21
77
0
LINE
8
back_outsideCutPath
10
24.5
20
77
11
24.5
21
75
0
LINE
8
back_outsideCutPath
10
24.5
20
75
11
34.5
21
75
0
LINE
8
back_outsideCutPath
10
34.5
20
75
11
34.5
21
77
0
LINE
8
back_outsideCutPath
10
34.5
20
77
11
44.5
21
77
0
LINE
8
back_outsideCutPath
10
44.5
20
77
11
44.5
21
75
0
LINE
8
back_outsideCutPath
10
44.5
20
75
11
54.5
21
75
0
LINE
8
back_outsideCutPath
10
54.5
20
75
11
54.5
21
77
0
LINE
8
back_outsideCutPath
10
54.5
20
77
11
64.5
21
77
0
LINE
8
back_outsideCutPath
10
64.5
20
77
11
64.5
21
75
0
LINE
8
back_outsideCutPath
10
64.5
20
75
11
74.5
21
75
0
LINE
8
back_outsideCutPath
10
74.5
20
75
11
74.5
21
77
0
LINE
8
back_outsideCutPath
10
74.5
20
77
11
84.5
21
77
0
LINE
8
back_outsideCutPath
10
84.5
20
77
11
84.5
21
75
0
LINE
8
back_outsideCutPath
10
84.5
20
75
11
94.5
21
75
0
LINE
8
back_outsideCutPath
10
94.5
20
75
11
94.5
21
77
0
LINE
8
back_outsideCutPath
10
94.5
20
77
11
104.5
21
77
0
LINE
8
back_outsideCutPath
10
104.5
20
77
11
104.5
21
75
0
LINE
8
back_outsideCutPath
10
104.5
20
75
11
114.5
21
75
0
LINE
8
back_outsideCutPath
10
114.5
20
75
11
114.5
21
77
0
LINE
8
back_outsideCutPath
10
114.5
20
77
11
124.5
21
77
0
LINE
8
back_outsideCutPath
10
124.5
20
77
11
124.5
21
75
0
LINE
8
back_outsideCutPath
10
124.5
20
75
11
134.5
21
75
0
LINE
8
back_outsideCutPath
10
134.5
20
75
11
134.5
21
77
0
LINE
8
back_outsideCutPath
10
134.5
20
77
11
144.5
21
77
0
LINE
8
back_outsideCutPath
10
144.5
20
77
11
144.5
21
75
0
LINE
8
back_outsideCutPath
10
144.5
20
75
11
154.5
21
75
0
LINE
8
back_outsideCutPath
10
154.5
20
75
11
159
21
75
0
LINE
8
back_outsideCutPath
10
159
20
75
11
159
21
84.5
0
LINE
8
back_outsideCutPath
10
159
20
84.5
11
157
21
84.5
0
LINE
8
back_outsideCutPath
10
157
20
84.5
11
157
21
94.5
0
LINE
8
back_outsideCutPath
10
157
20
94.5
11
159
21
94.5
0
LINE
8
back_outsideCutPath
10
159
20
94.5
11
159
21
104.5
0
LINE
8
back_outsideCutPath
10
159
20
104.5
11
157
21
104.5
0
LINE
8
back_outsideCutPath
10
157
20
104.5
11
157
21
114.5
0
LINE
8
back_outsideCutPath
10
157
20
114.5
11
159
21
114.5
0
LINE
8
back_outsideCutPath
10
159
20
114.5
11
159
21
124.5
0
LINE
8
back_outsideCutPath
10
159
20
124.5
11
157
21
124.5
0
LINE
8
back_outsideCutPath
10
157
20
124.5
11
157
21
134.5
0
LINE
8
back_outsideCutPath
10
157
20
134.5
11
159
21
134.5
0
LINE
8
back_outsideCutPath
10
159
20
134.5
11
159
21
144
0
LINE
8
back_outsideCutPath
10
159
20
144
11
144.5
21
144
0
LINE
8
back_outsideCutPath
10
144.5
20
144
11
144.5
21
142
0
LINE
8
back_outsideCutPath
10
144.5
20
142
11
134.5
21
142
0
LINE
8
back_outsideCutPath
10
134.5
20
142
11
134.5
21
144
0
LINE
8
back_outsideCutPath
10
134.5
20
144
11
124.5
21
144
0
LINE
8
back_outsideCutPath
10
124.5
20
144
11
124.5
21
142
0
LINE
8
back_outsideCutPath
10
124.5
20
142
11
114.5
21
142
0
LINE
8
back_outsideCutPath
10
114.5
20
142
11
114.5
21
144
0
LINE
8
back_outsideCutPath
10
114.5
20
144
11
104.5
21
144
0
LINE
8
back_outsideCutPath
10
104.5
20
144
11
104.5
21
142
0
LINE
8
back_outsideCutPath
10
104.5
20
142
11
94.5
21
142
0
LINE
8
back_outsideCutPath
10
94.5
20
142
11
94.5
21
144
0
LINE
8
back_outsideCutPath
10
94.5
20
144
11
84.5
21
144
0
LINE
8
back_outsideCutPath
10
84.5
20
144
11
84.5
21
142
0
LINE
8
back_outsideCutPath
10
84.5
20
142
11
74.5
21
142
0
LINE
8
back_outsideCutPath
10
74.5
20
142
11
74.5
21
144
0
LINE
8
back_outsideCutPath
10
74.5
20
144
11
64.5
21
144
0
LINE
8
back_outsideCutPath
10
64.5
20
144
11
64.5
21
142
0
LINE
8
back_outsideCutPath
10
64.5
20
142
11
54.5
21
142
0
LINE
8
back_outsideCutPath
10
54.5
20
142
11
54.5
21
144
0
LINE
8
back_outsideCutPath
10
54.5
20
144
11
44.5
21
144
0
LINE
8
back_outsideCutPath
10
44.5
20
144
11
44.5
21
142
0
LINE
8
back_outsideCutPath
10
44.5
20
142
11
34.5
21
142
0
LINE
8
back_outsideCutPath
10
34.5
20
142
11
34.5
21
144
0
LINE
8
back_outsideCutPath
10
34.5
20
144
11
24.5
21
144
0
LINE
8
back_outsideCutPath
10
24.5
20
144
11
24.5
21
142
0
LINE
8
back_outsideCutPath
10
24.5
20
142
11
14.5
21
142
0
LINE
8
back_outsideCutPath
10
14.5
20
142
11
14.5
21
144
0
LINE
8
back_outsideCutPath
10
14.5
20
144
11
4.5
21
144
0
LINE
8
back_outsideCutPath
10
4.5
20
144
11
0
21
144
0
LINE
8
back_labelLayer
10
66.3131836
20
105.2751738
11
66.2323242
21
105.2751738
0
LINE
8
back_labelLayer
10
66.2323242
20
105.2751738
11
65.9964844
21
104.3250761
0
LINE
8
back_labelLayer
10
65.9964844
20
104.3250761
11
65.1946289
21
104.3250761
0
LINE
8
back_labelLayer
10
65.1946289
20
104.3250761
11
65.1946289
21
114.8098417
0
LINE
8
back_labelLayer
10
65.1946289
20
114.8098417
11
66.3131836
21
114.8098417
0
LINE
8
back_labelLayer
10
66.3131836
20
114.8098417
11
66.3131836
21
112.2627714
0
LINE
8
back_labelLayer
10
66.2592773
20
110.7264433
11
66.3131836
21
110.7264433
0
ARC
8
back_labelLayer
10
68.6647068
20
108.4129919
40
3.4186942
50
74.2393337
51
90.5623664
0
ARC
8
back_labelLayer
10
68.8907622
20
109.2422876
40
2.5591868
50
38.5631407
51
74.0670283
0
ARC
8
back_labelLayer
10
68.3090191
20
108.7899494
40
3.2960535
50
16.4709387
51
38.4075261
0
ARC
8
back_labelLayer
10
66.6331189
20
108.2644348
40
5.0522614
50
5.1338392
51
16.7973582
0
ARC
8
back_labelLayer
10
64.5174407
20
108.039691
40
7.1796459
50
359.8779135
51
5.4093683
0
ARC
8
back_labelLayer
10
65.1388378
20
107.985701
40
6.5583466
50
350.6562721
51
0.338023
0
ARC
8
back_labelLayer
10
67.4251842
20
107.596818
40
4.2392161
50
335.830591
51
350.8254777
0
ARC
8
back_labelLayer
10
68.4309067
20
107.1627337
40
3.1439662
50
321.3161471
51
335.5436139
0
ARC
8
back_labelLayer
10
68.8154018
20
106.8494287
40
2.6480074
50
274.0640064
51
321.4081012
0
ARC
8
back_labelLayer
10
68.6362769
20
107.9840614
40
3.7937546
50
269.9226052
51
275.5481921
0
ARC
8
back_labelLayer
10
68.6122894
20
107.5830756
40
3.3928175
50
255.7755352
51
270.3185472
0
ARC
8
back_labelLayer
10
68.5154652
20
107.1528994
40
2.9520623
50
245.9801365
51
255.5455833
0
ARC
8
back_labelLayer
10
68.327935
20
106.7167981
40
2.4773986
50
215.585031
51
245.8361557
0
ARC
8
back_labelLayer
10
42.9924722
20
112.2430503
40
23.3207197
50
358.1123127
51
0.0484522
0
ARC
8
back_labelLayer
10
49.4831282
20
112.0251315
40
16.8264082
50
355.723838
51
358.1259184
0
ARC
8
back_labelLayer
10
52.3445186
20
111.8285058
40
13.9583327
50
355.4715711
51
355.6529161
0
ARC
8
back_labelLayer
10
68.3992392
20
109.271781
40
2.5431615
50
95.1835119
51
145.1109058
0
ARC
8
back_labelLayer
10
68.622772
20
108.0112717
40
3.8202589
50
89.874313
51
96.814552
0
ARC
8
back_labelLayer
10
68.4460151
20
107.7517561
40
3.1432314
50
89.5731166
51
100.7324122
0
ARC
8
back_labelLayer
10
68.2133279
20
108.9273729
40
1.9448714
50
100.4469222
51
119.6700894
0
ARC
8
back_labelLayer
10
67.9975603
20
109.3307763
40
1.4876022
50
120.1403107
51
142.4248694
0
ARC
8
back_labelLayer
10
68.3545362
20
109.094627
40
1.9147724
50
143.3382528
51
161.2559828
0
ARC
8
back_labelLayer
10
69.8473323
20
108.5646342
40
3.4987747
50
160.8926317
51
171.2334381
0
ARC
8
back_labelLayer
10
72.3394116
20
108.1626024
40
6.0230391
50
171.066778
51
177.8456702
0
ARC
8
back_labelLayer
10
74.9312553
20
108.0307856
40
8.6180741
50
177.6176795
51
180.0425034
0
ARC
8
back_labelLayer
10
73.7088742
20
107.9955115
40
7.395747
50
179.7762541
51
185.7075484
0
ARC
8
back_labelLayer
10
70.7930354
20
107.6950741
40
4.4644938
50
185.5924912
51
194.2050507
0
ARC
8
back_labelLayer
10
68.9251362
20
107.2102918
40
2.5347723
50
193.9430615
51
208.0218122
0
ARC
8
back_labelLayer
10
68.1693611
20
106.8258078
40
1.6870368
50
208.5536169
51
217.5605683
0
ARC
8
back_labelLayer
10
68.1077982
20
106.8002043
40
1.6227189
50
218.1690379
51
253.804724
0
ARC
8
back_labelLayer
10
68.4087834
20
107.7281759
40
2.5979896
50
253.1382687
51
266.8482863
0
ARC
8
back_labelLayer
10
68.4931792
20
108.7234606
40
3.5965303
50
266.3775663
51
270.0510989
0
ARC
8
back_labelLayer
10
68.5202466
20
107.3566324
40
2.2298285
50
269.3869043
51
285.863074
0
ARC
8
back_labelLayer
10
68.6859093
20
106.7579059
40
1.6086266
50
286.0162887
51
326.849738
0
ARC
8
back_labelLayer
10
67.88634
20
107.2875919
40
2.5677168
50
326.7104968
51
343.6661881
0
ARC
8
back_labelLayer
10
66.3895855
20
107.7449505
40
4.132725
50
343.4171557
51
353.6369298
0
ARC
8
back_labelLayer
10
64.1289185
20
108.0131968
40
6.4092149
50
353.4934699
51
0.220561
0
ARC
8
back_labelLayer
10
63.9296205
20
108.0646171
40
6.6085196
50
359.7680943
51
6.3095364
0
ARC
8
back_labelLayer
10
66.418923
20
108.3502808
40
4.1029144
50
6.1648686
51
16.0396632
0
ARC
8
back_labelLayer
10
68.0224798
20
108.8228502
40
2.4312364
50
15.7779445
51
32.0151322
0
ARC
8
back_labelLayer
10
68.5225281
20
109.1092124
40
1.8555623
50
32.7033643
51
35.5241989
0
ARC
8
back_labelLayer
10
68.7054154
20
109.2391993
40
1.6311873
50
35.5408358
51
79.8011303
0
ARC
8
back_labelLayer
10
68.4863633
20
108.3079688
40
2.586987
50
78.6781205
51
90.374956
0
LINE
8
back_labelLayer
10
79.021582
20
104.3250761
11
78.1927734
21
104.3250761
0
LINE
8
back_labelLayer
10
78.1927734
20
104.3250761
11
77.9704102
21
105.376248
0
LINE
8
back_labelLayer
10
77.9704102
20
105.376248
11
77.9165039
21
105.376248
0
LINE
8
back_labelLayer
10
76.6766602
20
108.7116972
11
77.9299805
21
108.7521269
0
LINE
8
back_labelLayer
10
77.9299805
20
108.7521269
11
77.9299805
21
109.21033
0
LINE
8
back_labelLayer
10
74.2710937
20
110.3423613
11
73.9274414
21
111.198123
0
LINE
8
back_labelLayer
10
79.021582
20
109.3653105
11
79.021582
21
104.3250761
0
LINE
8
back_labelLayer
10
77.9030273
20
107.2899199
11
77.9030273
21
107.9570097
0
LINE
8
back_labelLayer
10
77.9030273
20
107.9570097
11
76.7844727
21
107.9098417
0
ARC
8
back_labelLayer
10
74.2771723
20
108.2496781
40
4.6369533
50
314.744493
51
321.7071839
0
ARC
8
back_labelLayer
10
75.4163904
20
107.0921434
40
3.0128676
50
304.8485713
51
314.8530677
0
ARC
8
back_labelLayer
10
75.963657
20
106.3131674
40
2.0608797
50
294.3932655
51
304.7371338
0
ARC
8
back_labelLayer
10
75.7766911
20
106.7976097
40
2.5794655
50
281.2979375
51
293.7313783
0
ARC
8
back_labelLayer
10
75.5295268
20
107.9955008
40
3.8025735
50
272.9335124
51
281.4138809
0
ARC
8
back_labelLayer
10
75.4476072
20
109.22406
40
5.033751
50
269.9538733
51
273.1490735
0
ARC
8
back_labelLayer
10
75.4193069
20
107.6229233
40
3.4326985
50
258.6719732
51
270.4047277
0
ARC
8
back_labelLayer
10
75.180868
20
106.4823233
40
2.2675043
50
238.3273238
51
258.9183517
0
ARC
8
back_labelLayer
10
75.0165546
20
106.1825502
40
1.9261837
50
227.7689349
51
237.8049883
0
ARC
8
back_labelLayer
10
74.9651562
20
106.1108001
40
1.8385392
50
192.0827539
51
227.4520783
0
ARC
8
back_labelLayer
10
75.9130214
20
106.34446
40
2.8144771
50
179.5457096
51
192.6949632
0
ARC
8
back_labelLayer
10
75.0324633
20
106.4463669
40
1.9354677
50
115.4904582
51
182.3568191
0
ARC
8
back_labelLayer
10
76.0017659
20
104.6684678
40
3.9589737
50
101.3568106
51
117.0798697
0
ARC
8
back_labelLayer
10
76.7802048
20
101.0307652
40
7.6788816
50
92.4696142
51
101.7065064
0
ARC
8
back_labelLayer
10
77.003939
20
97.7902961
40
10.9263037
50
91.7164541
51
92.9095558
0
ARC
8
back_labelLayer
10
74.7172843
20
109.2275271
40
3.2127422
50
359.6933078
51
8.0035915
0
ARC
8
back_labelLayer
10
75.9325818
20
109.4045708
40
1.9846411
50
7.8272826
51
20.6041212
0
ARC
8
back_labelLayer
10
76.6203172
20
109.6676611
40
1.2483205
50
20.4094549
51
41.4478907
0
ARC
8
back_labelLayer
10
76.7219356
20
109.7235181
40
1.1354617
50
42.7295443
51
71.0380318
0
ARC
8
back_labelLayer
10
76.4827064
20
109.0730503
40
1.8284273
50
70.5716192
51
83.9928805
0
ARC
8
back_labelLayer
10
76.368417
20
108.1446659
40
2.7637238
50
83.6507168
51
90.1753055
0
ARC
8
back_labelLayer
10
76.3884643
20
107.266724
40
3.6417644
50
90.4484478
51
103.766558
0
ARC
8
back_labelLayer
10
76.8167127
20
105.4607735
40
5.4977622
50
103.6226378
51
112.4320142
0
ARC
8
back_labelLayer
10
77.5508047
20
103.6072506
40
7.4912094
50
112.2122396
51
115.9641018
0
ARC
8
back_labelLayer
10
76.3752298
20
106.65873
40
5.1573013
50
106.3568654
51
118.3349902
0
ARC
8
back_labelLayer
10
76.5949172
20
105.9800933
40
5.8703721
50
104.5162015
51
106.5489332
0
ARC
8
back_labelLayer
10
76.4338023
20
106.6513749
40
5.1801505
50
90.0714354
51
104.6521111
0
ARC
8
back_labelLayer
10
76.4541327
20
107.1074278
40
4.7241696
50
81.5679932
51
90.3249036
0
ARC
8
back_labelLayer
10
76.7272787
20
108.8869012
40
2.9238929
50
68.2273293
51
81.7494362
0
ARC
8
back_labelLayer
10
77.1077214
20
109.8334738
40
1.9037317
50
47.8683258
51
68.2934086
0
ARC
8
back_labelLayer
10
77.1694687
20
109.9567639
40
1.7712615
50
19.2331032
51
46.6741213
0
ARC
8
back_labelLayer
10
76.1408583
20
109.5741205
40
2.8685964
50
6.3379102
51
19.6815091
0
ARC
8
back_labelLayer
10
74.6203293
20
109.3804665
40
4.401279
50
359.8026993
51
6.6583656
0
ARC
8
back_labelLayer
10
75.6885352
20
108.193081
40
3.079709
50
269.5792184
51
282.0413622
0
ARC
8
back_labelLayer
10
75.9131781
20
107.1966579
40
2.0583795
50
281.7121072
51
306.4593865
0
ARC
8
back_labelLayer
10
76.0127914
20
107.0328389
40
1.8675076
50
306.9881114
51
313.855943
0
ARC
8
back_labelLayer
10
76.0009403
20
107.0294476
40
1.8733048
50
314.1891809
51
347.4269996
0
ARC
8
back_labelLayer
10
75.0625446
20
107.2646043
40
2.8404992
50
346.9177873
51
0.282455
0
ARC
8
back_labelLayer
10
74.3524975
20
107.2898502
40
3.5505297
50
359.8185694
51
0.001124
0
ARC
8
back_labelLayer
10
77.0505478
20
99.7010131
40
8.2131397
50
91.856495
51
96.4478296
0
ARC
8
back_labelLayer
10
76.6801585
20
102.9061188
40
4.9867204
50
96.3545569
51
102.995341
0
ARC
8
back_labelLayer
10
76.1773854
20
105.0422446
40
2.7922612
50
102.7995477
51
113.2432954
0
ARC
8
back_labelLayer
10
75.7629061
20
106.0335168
40
1.7179058
50
113.5885915
51
121.6804811
0
ARC
8
back_labelLayer
10
75.4749481
20
106.4720703
40
1.1935616
50
120.973407
51
172.4179814
0
ARC
8
back_labelLayer
10
76.037804
20
106.3596452
40
1.7667215
50
171.2122557
51
180.2058199
0
ARC
8
back_labelLayer
10
75.8695847
20
106.3400917
40
1.5985455
50
179.5266191
51
192.7787352
0
ARC
8
back_labelLayer
10
75.328822
20
106.2090082
40
1.0422154
50
192.3264355
51
222.0580196
0
ARC
8
back_labelLayer
10
75.2885983
20
106.184954
40
0.9962787
50
222.5805469
51
229.2547452
0
ARC
8
back_labelLayer
10
75.4245211
20
106.3599483
40
1.2176261
50
229.7836779
51
254.2724164
0
ARC
8
back_labelLayer
10
75.6055494
20
106.9632095
40
1.8474032
50
253.9396778
51
266.453369
0
ARC
8
back_labelLayer
10
75.6633294
20
107.6292745
40
2.5158208
50
266.0783655
51
270.0589516
0
LINE
8
back_labelLayer
10
86.2517578
20
111.460916
11
85.9081055
21
110.5108183
0
LINE
8
back_labelLayer
10
86.1439453
20
105.5649199
11
86.1439453
21
104.5743925
0
ARC
8
back_labelLayer
10
84.2417633
20
108.3706403
40
4.1804821
50
256.424367
51
270.4889935
0
ARC
8
back_labelLayer
10
83.9077038
20
107.0668369
40
2.8347539
50
221.7976326
51
256.8020511
0
ARC
8
back_labelLayer
10
84.2311994
20
107.3058559
40
3.235444
50
196.0166493
51
221.1349404
0
ARC
8
back_labelLayer
10
85.857095
20
107.8028124
40
4.9354288
50
183.5913926
51
196.3539379
0
ARC
8
back_labelLayer
10
87.6784305
20
107.9632655
40
6.7633951
50
179.9388291
51
183.9814929
0
ARC
8
back_labelLayer
10
87.0866651
20
108.0102219
40
6.1717539
50
169.8978537
51
180.3688902
0
ARC
8
back_labelLayer
10
84.9381364
20
108.4076659
40
3.9868476
50
153.0875258
51
170.1051238
0
ARC
8
back_labelLayer
10
84.1229377
20
108.7971893
40
3.0837022
50
138.6550213
51
152.6853568
0
ARC
8
back_labelLayer
10
83.9707868
20
108.9080656
40
2.8962831
50
101.4912933
51
138.3133837
0
ARC
8
back_labelLayer
10
84.3200816
20
107.4543367
40
4.3907743
50
89.5891984
51
102.1787732
0
ARC
8
back_labelLayer
10
84.3469415
20
106.7972832
40
5.0477169
50
77.7702492
51
89.9475483
0
ARC
8
back_labelLayer
10
84.2513754
20
106.2700937
40
5.5832162
50
74.6797345
51
77.9578252
0
ARC
8
back_labelLayer
10
84.7674956
20
108.1399104
40
3.6434808
50
70.0945515
51
74.7386618
0
ARC
8
back_labelLayer
10
85.2584002
20
109.4852233
40
2.2114076
50
63.5032967
51
70.1862337
0
ARC
8
back_labelLayer
10
85.4917558
20
109.9739552
40
1.6699267
50
62.9279254
51
63.1875717
0
ARC
8
back_labelLayer
10
84.0706102
20
105.8864829
40
4.9760292
50
68.3294346
51
74.8831339
0
ARC
8
back_labelLayer
10
83.8081027
20
104.9556882
40
5.9430831
50
74.7801417
51
77.4497277
0
ARC
8
back_labelLayer
10
84.0837247
20
106.2494149
40
4.6203932
50
77.2998587
51
81.7345736
0
ARC
8
back_labelLayer
10
84.2847347
20
107.6500821
40
3.2053791
50
81.691021
51
87.5078983
0
ARC
8
back_labelLayer
10
84.3235255
20
108.3752362
40
2.4792347
50
87.6748276
51
89.974951
0
ARC
8
back_labelLayer
10
84.269159
20
108.3739738
40
2.4811166
50
88.7193913
51
112.5667752
0
ARC
8
back_labelLayer
10
84.0928589
20
108.9568663
40
1.8761859
50
114.4265705
51
161.6632849
0
ARC
8
back_labelLayer
10
85.84423
20
108.2713608
40
3.7556141
50
160.1418414
51
175.1368013
0
ARC
8
back_labelLayer
10
88.254706
20
108.0006797
40
6.1807052
50
174.5309533
51
180.1549672
0
ARC
8
back_labelLayer
10
87.4910616
20
107.9559884
40
5.4171104
50
179.7041178
51
188.0743681
0
ARC
8
back_labelLayer
10
85.5398792
20
107.6705076
40
3.4451833
50
187.9314956
51
200.3885566
0
ARC
8
back_labelLayer
10
84.4848679
20
107.2796784
40
2.3201081
50
200.4183285
51
216.6392789
0
ARC
8
back_labelLayer
10
84.0425809
20
106.9634986
40
1.7765545
50
216.969547
51
261.3103015
0
ARC
8
back_labelLayer
10
84.2377734
20
107.8735131
40
2.7061819
50
260.1359233
51
270.2692021
0
ARC
8
back_labelLayer
10
84.2287619
20
109.8497203
40
4.6824094
50
270.2658534
51
286.2891369
0
ARC
8
back_labelLayer
10
83.9441091
20
110.9112854
40
5.7812545
50
286.0460647
51
292.3653954
0
ARC
8
back_labelLayer
10
84.7021832
20
107.4106826
40
3.1817007
50
282.0344411
51
296.9454486
0
ARC
8
back_labelLayer
10
84.3749655
20
108.8853373
40
4.6921876
50
272.5980621
51
282.1878262
0
ARC
8
back_labelLayer
10
84.2811341
20
110.3243127
40
6.1340034
50
269.965508
51
272.8643413
0
LINE
8
back_labelLayer
10
88.9470703
20
108.1052519
11
89.0009766
21
108.1052519
0
LINE
8
back_labelLayer
10
89.8836914
20
109.1833769
11
92.269043
21
111.7102324
0
LINE
8
back_labelLayer
10
92.269043
20
111.7102324
11
93.5964844
21
111.7102324
0
LINE
8
back_labelLayer
10
93.5964844
20
111.7102324
11
90.6046875
21
108.563455
0
LINE
8
back_labelLayer
10
90.6046875
20
108.563455
11
93.8053711
21
104.3250761
0
LINE
8
back_labelLayer
10
93.8053711
20
104.3250761
11
92.4509766
21
104.3250761
0
LINE
8
back_labelLayer
10
92.4509766
20
104.3250761
11
89.8432617
21
107.8155058
0
LINE
8
back_labelLayer
10
89.8432617
20
107.8155058
11
89.0009766
21
107.0877714
0
LINE
8
back_labelLayer
10
89.0009766
20
107.0877714
11
89.0009766
21
104.3250761
0
LINE
8
back_labelLayer
10
89.0009766
20
104.3250761
11
87.8958984
21
104.3250761
0
LINE
8
back_labelLayer
10
87.8958984
20
104.3250761
11
87.8958984
21
114.8098417
0
LINE
8
back_labelLayer
10
87.8958984
20
114.8098417
11
89.0009766
21
114.8098417
0
LINE
8
back_labelLayer
10
89.0009766
20
114.8098417
11
89.0009766
21
109.2507597
0
ARC
8
back_labelLayer
10
94.4059533
20
104.279375
40
6.6220169
50
142.3234469
51
144.707485
0
ARC
8
back_labelLayer
10
97.9322641
20
101.5594317
40
11.0754375
50
140.433153
51
142.3365288
0
ARC
8
back_labelLayer
10
102.5278922
20
97.776401
40
17.0278353
50
139.2799409
51
140.4703146
0
ARC
8
back_labelLayer
10
107.8393055
20
93.2089499
40
24.0330271
50
138.3417265
51
139.287749
0
ARC
8
back_labelLayer
10
81.5472965
20
109.264701
40
7.4536931
50
358.2739338
51
359.8928349
0
ARC
8
back_labelLayer
10
75.748688
20
109.4262902
40
13.2545441
50
357.5041532
51
358.3307511
0
ARC
8
back_labelLayer
10
67.0678679
20
109.8097187
40
21.9438271
50
356.6325257
51
357.4909901
0
ARC
8
back_labelLayer
10
52.6407077
20
110.6511607
40
36.3955033
50
356.032941
51
356.644266
0
ARC
8
back_labelLayer
10
44.3245513
20
111.2098668
40
44.7303906
50
356.0200557
51
356.0559573
0
LINE
8
right_outsideCutPath
10
164
20
144
11
164
21
134.5
0
LINE
8
right_outsideCutPath
10
164
20
134.5
11
162
21
134.5
0
LINE
8
right_outsideCutPath
10
162
20
134.5
11
162
21
124.5
0
LINE
8
right_outsideCutPath
10
162
20
124.5
11
164
21
124.5
0
LINE
8
right_outsideCutPath
10
164
20
124.5
11
164
21
114.5
0
LINE
8
right_outsideCutPath
10
164
20
114.5
11
162
21
114.5
0
LINE
8
right_outsideCutPath
10
162
20
114.5
11
162
21
104.5
0
LINE
8
right_outsideCutPath
10
162
20
104.5
11
164
21
104.5
0
LINE
8
right_outsideCutPath
10
164
20
104.5
11
164
21
94.5
0
LINE
8
right_outsideCutPath
10
164
20
94.5
11
162
21
94.5
0
LINE
8
right_outsideCutPath
10
162
20
94.5
11
162
21
84.5
0
LINE
8
right_outsideCutPath
10
162
20
84.5
11
164
21
84.5
0
LINE
8
right_outsideCutPath
10
164
20
84.5
11
164
21
75
0
LINE
8
right_outsideCutPath
10
164
20
75
11
171.5
21
75
0
LINE
8
right_outsideCutPath
10
171.5
20
75
11
171.5
21
77
0
LINE
8
right_outsideCutPath
10
171.5
20
77
11
181.5
21
77
0
LINE
8
right_outsideCutPath
10
181.5
20
77
11
181.5
21
75
0
LINE
8
right_outsideCutPath
10
181.5
20
75
11
191.5
21
75
0
LINE
8
right_outsideCutPath
10
191.5
20
75
11
191.5
21
77
0
LINE
8
right_outsideCutPath
10
191.5
20
77
11
201.5
21
77
0
LINE
8
right_outsideCutPath
10
201.5
20
77
11
201.5
21
75
0
LINE
8
right_outsideCutPath
10
201.5
20
75
11
211.5
21
75
0
LINE
8
right_outsideCutPath
10
211.5
20
75
11
211.5
21
77
0
LINE
8
right_outsideCutPath
10
211.5
20
77
11
221.5
21
77
0
LINE
8
right_outsideCutPath
10
221.5
20
77
11
221.5
21
75
0
LINE
8
right_outsideCutPath
10
221.5
20
75
11
231.5
21
75
0
LINE
8
right_outsideCutPath
10
231.5
20
75
11
231.5
21
77
0
LINE
8
right_outsideCutPath
10
231.5
20
77
11
241.5
21
77
0
LINE
8
right_outsideCutPath
10
241.5
20
77
11
241.5
21
75
0
LINE
8
right_outsideCutPath
10
241.5
20
75
11
249
21
75
0
LINE
8
right_outsideCutPath
10
249
20
75
11
249
21
84.5
0
LINE
8
right_outsideCutPath
10
249
20
84.5
11
251
21
84.5
0
LINE
8
right_outsideCutPath
10
251
20
84.5
11
251
21
94.5
0
LINE
8
right_outsideCutPath
10
251
20
94.5
11
249
21
94.5
0
LINE
8
right_outsideCutPath
10
249
20
94.5
11
249
21
104.5
0
LINE
8
right_outsideCutPath
10
249
20
104.5
11
251
21
104.5
0
LINE
8
right_outsideCutPath
10
251
20
104.5
11
251
21
114.5
0
LINE
8
right_outsideCutPath
10
251
20
114.5
11
249
21
114.5
0
LINE
8
right_outsideCutPath
10
249
20
114.5
11
249
21
124.5
0
LINE
8
right_outsideCutPath
10
249
20
124.5
11
251
21
124.5
0
LINE
8
right_outsideCutPath
10
251
20
124.5
11
251
21
134.5
0
LINE
8
right_outsideCutPath
10
251
20
134.5
11
249
21
134.5
0
LINE
8
right_outsideCutPath
10
249
20
134.5
11
249
21
144
0
LINE
8
right_outsideCutPath
10
249
20
144
11
241.5
21
144
0
LINE
8
right_outsideCutPath
10
241.5
20
144
11
241.5
21
142
0
LINE
8
right_outsideCutPath
10
241.5
20
142
11
231.5
21
142
0
LINE
8
right_outsideCutPath
10
231.5
20
142
11
231.5
21
144
0
LINE
8
right_outsideCutPath
10
231.5
20
144
11
221.5
21
144
0
LINE
8
right_outsideCutPath
10
221.5
20
144
11
221.5
21
142
0
LINE
8
right_outsideCutPath
10
221.5
20
142
11
211.5
21
142
0
LINE
8
right_outsideCutPath
10
211.5
20
142
11
211.5
21
144
0
LINE
8
right_outsideCutPath
10
211.5
20
144
11
201.5
21
144
0
LINE
8
right_outsideCutPath
10
201.5
20
144
11
201.5
21
142
0
LINE
8
right_outsideCutPath
10
201.5
20
142
11
191.5
21
142
0
LINE
8
right_outsideCutPath
10
191.5
20
142
11
191.5
21
144
0
LINE
8
right_outsideCutPath
10
191.5
20
144
11
181.5
21
144
0
LINE
8
right_outsideCutPath
10
181.5
20
144
11
181.5
21
142
0
LINE
8
right_outsideCutPath
10
181.5
20
142
11
171.5
21
142
0
LINE
8
right_outsideCutPath
10
171.5
20
142
11
171.5
21
144
0
LINE
8
right_outsideCutPath
10
171.5
20
144
11
164
21
144
0
LINE
8
right_labelLayer
10
196.4768066
20
113.3543375
11
196.3218262
21
112.3166422
0
LINE
8
right_labelLayer
10
193.3435058
20
109.8773844
11
193.3435058
21
105.915275
0
LINE
8
right_labelLayer
10
193.3435058
20
105.915275
11
192.2249512
21
105.915275
0
LINE
8
right_labelLayer
10
192.2249512
20
105.915275
11
192.2249512
21
113.3004313
0
LINE
8
right_labelLayer
10
192.2249512
20
113.3004313
11
193.1480957
21
113.3004313
0
LINE
8
right_labelLayer
10
193.1480957
20
113.3004313
11
193.276123
21
111.9325602
0
LINE
8
right_labelLayer
10
193.276123
20
111.9325602
11
193.3300293
21
111.9325602
0
ARC
8
right_labelLayer
10
195.6055728
20
108.3000798
40
5.1351299
50
84.9923104
51
90.1281005
0
ARC
8
right_labelLayer
10
195.7288953
20
109.6817898
40
3.7479298
50
78.4891684
51
85.0266016
0
ARC
8
right_labelLayer
10
195.2502325
20
107.5047142
40
4.9298036
50
77.4453666
51
81.6359926
0
ARC
8
right_labelLayer
10
195.4650277
20
108.9852575
40
3.4337641
50
81.5884112
51
87.1916864
0
ARC
8
right_labelLayer
10
195.5116793
20
109.794363
40
2.6233539
50
87.3435596
51
89.9660782
0
ARC
8
right_labelLayer
10
195.5008365
20
110.479632
40
1.938124
50
89.6335449
51
137.0880873
0
ARC
8
right_labelLayer
10
195.9765879
20
109.9446556
40
2.6516855
50
135.6209815
51
138.8376319
0
ARC
8
right_labelLayer
10
195.9067906
20
110.0127804
40
2.5543049
50
138.9575788
51
174.5422145
0
ARC
8
right_labelLayer
10
196.7386851
20
109.8826136
40
3.3951834
50
173.6907537
51
180.088246
0
ARC
8
right_labelLayer
10
196.6210579
20
110.0784088
40
3.7773995
50
139.41393
51
150.603276
0
ARC
8
right_labelLayer
10
195.9437684
20
110.6587743
40
2.8854662
50
124.2321585
51
139.4160984
0
ARC
8
right_labelLayer
10
195.5816248
20
111.2054275
40
2.2298042
50
89.6796543
51
124.4405687
0
LINE
8
right_labelLayer
10
198.976709
20
113.3004313
11
198.976709
21
105.915275
0
LINE
8
right_labelLayer
10
198.976709
20
105.915275
11
197.8581543
21
105.915275
0
LINE
8
right_labelLayer
10
197.8581543
20
105.915275
11
197.8581543
21
113.3004313
0
LINE
8
right_labelLayer
10
197.8581543
20
113.3004313
11
198.976709
21
113.3004313
0
ARC
8
right_labelLayer
10
199.003293
20
115.3093693
40
1.2394984
50
170.8452302
51
180.3544766
0
ARC
8
right_labelLayer
10
198.5392783
20
115.3869527
40
0.7690555
50
155.9679596
51
171.0515673
0
ARC
8
right_labelLayer
10
198.3145236
20
115.4866629
40
0.5231764
50
133.7879124
51
155.9171819
0
ARC
8
right_labelLayer
10
198.397502
20
115.3949283
40
0.6468304
50
92.6445855
51
133.4710753
0
ARC
8
right_labelLayer
10
198.4237087
20
115.1891352
40
0.8537766
50
89.9690466
51
93.764257
0
ARC
8
right_labelLayer
10
198.4343827
20
115.3839524
40
0.6590384
50
46.3708365
51
90.8879154
0
ARC
8
right_labelLayer
10
198.4999737
20
115.4516663
40
0.5647692
50
17.7251673
51
46.4473702
0
ARC
8
right_labelLayer
10
198.1941105
20
115.3463387
40
0.8882088
50
4.9427725
51
18.1900736
0
ARC
8
right_labelLayer
10
197.8049938
20
115.304276
40
1.2795301
50
359.8846867
51
5.31801
0
ARC
8
right_labelLayer
10
197.9272345
20
115.2938418
40
1.1573137
50
349.8344925
51
0.3890815
0
ARC
8
right_labelLayer
10
198.3485546
20
115.2152471
40
0.7287423
50
332.6323284
51
350.0704555
0
ARC
8
right_labelLayer
10
198.512552
20
115.1342678
40
0.5458852
50
313.6153951
51
332.2677244
0
ARC
8
right_labelLayer
10
198.4335222
20
115.2062278
40
0.6525431
50
269.1788066
51
314.2807496
0
ARC
8
right_labelLayer
10
198.4167563
20
115.2642369
40
0.710524
50
250.4999787
51
270.5978385
0
ARC
8
right_labelLayer
10
198.3952527
20
115.1838315
40
0.627587
50
225.1300595
51
249.9001768
0
ARC
8
right_labelLayer
10
198.3615883
20
115.146644
40
0.5774865
50
197.7934089
51
224.8941788
0
ARC
8
right_labelLayer
10
198.6766849
20
115.2546244
40
0.9105309
50
184.9925867
51
198.2040672
0
ARC
8
right_labelLayer
10
199.0844458
20
115.2989475
40
1.3206303
50
179.8805458
51
185.368685
0
LINE
8
right_labelLayer
10
204.8390137
20
113.3004313
11
207.3928223
21
113.3004313
0
LINE
8
right_labelLayer
10
207.3928223
20
113.3004313
11
207.3928223
21
112.5929117
0
LINE
8
right_labelLayer
10
207.3928223
20
112.5929117
11
206.0249512
21
112.431193
0
LINE
8
right_labelLayer
10
203.504834
20
107.087736
11
204.8120605
21
107.087736
0
LINE
8
right_labelLayer
10
204.4549316
20
106.083732
11
203.1140137
21
106.083732
0
ARC
8
right_labelLayer
10
204.5995386
20
111.303137
40
1.8177765
50
29.4583808
51
38.3577084
0
ARC
8
right_labelLayer
10
203.8567626
20
110.8791113
40
2.6730564
50
23.1844701
51
29.5422766
0
ARC
8
right_labelLayer
10
203.1475284
20
110.5646018
40
3.4488487
50
21.2507934
51
23.348773
0
ARC
8
right_labelLayer
10
204.3526827
20
111.0439024
40
2.1519413
50
6.8504737
51
20.9871963
0
ARC
8
right_labelLayer
10
203.7466387
20
110.9617293
40
2.7634757
50
359.8710417
51
7.0432598
0
ARC
8
right_labelLayer
10
203.9460148
20
110.9288462
40
2.5642312
50
342.5649708
51
0.595779
0
ARC
8
right_labelLayer
10
204.418935
20
110.7982546
40
2.0739804
50
310.6097727
51
342.0923837
0
ARC
8
right_labelLayer
10
204.1537366
20
111.1067285
40
2.4807801
50
284.931583
51
310.6222744
0
ARC
8
right_labelLayer
10
203.8218726
20
112.2696245
40
3.6899798
50
272.5335006
51
285.2579741
0
ARC
8
right_labelLayer
10
203.7365516
20
113.4350936
40
4.858198
50
269.9691476
51
272.9311826
0
ARC
8
right_labelLayer
10
203.7259568
20
112.1717314
40
3.5948441
50
263.4836781
51
270.1271678
0
ARC
8
right_labelLayer
10
203.6674157
20
111.6156479
40
3.0357135
50
259.4964073
51
263.3903484
0
ARC
8
right_labelLayer
10
204.0298116
20
106.863561
40
1.9904341
50
117.3935338
51
128.4094999
0
ARC
8
right_labelLayer
10
203.51739
20
107.4992584
40
1.17397
50
128.0881653
51
147.140063
0
ARC
8
right_labelLayer
10
203.2413352
20
107.6845122
40
0.8415879
50
147.5369298
51
180.25922
0
ARC
8
right_labelLayer
10
202.9794431
20
107.6735396
40
0.5797315
50
179.2918421
51
198.3580868
0
ARC
8
right_labelLayer
10
202.8709005
20
107.645013
40
0.4677824
50
199.2291299
51
239.5691159
0
ARC
8
right_labelLayer
10
202.9606945
20
107.7690191
40
0.6203582
50
238.2191523
51
239.8459711
0
ARC
8
right_labelLayer
10
203.032699
20
107.917072
40
0.7846395
50
240.7303137
51
254.5027147
0
ARC
8
right_labelLayer
10
203.246847
20
108.6550129
40
1.5529972
50
254.1636656
51
262.2123458
0
ARC
8
right_labelLayer
10
203.4164843
20
109.8398679
40
2.7499209
50
262.0556117
51
267.2082676
0
ARC
8
right_labelLayer
10
203.4984197
20
111.3428042
40
4.2550729
50
267.0919724
51
270.0863697
0
ARC
8
right_labelLayer
10
204.8365106
20
102.5090593
40
4.5787419
50
81.5744558
51
90.3059551
0
ARC
8
right_labelLayer
10
205.0876642
20
104.1470504
40
2.9216415
50
68.3671699
51
81.7399298
0
ARC
8
right_labelLayer
10
205.4156977
20
104.9853846
40
2.0214273
50
52.1879545
51
68.2501264
0
ARC
8
right_labelLayer
10
205.6452253
20
105.2946575
40
1.6363972
50
8.6201285
51
51.8982479
0
ARC
8
right_labelLayer
10
204.8407627
20
105.124441
40
2.4577483
50
359.7430639
51
9.7326305
0
ARC
8
right_labelLayer
10
204.8767913
20
105.08298
40
2.4218863
50
340.526884
51
0.7201416
0
ARC
8
right_labelLayer
10
205.2326272
20
104.9943808
40
2.0571685
50
302.9903631
51
339.5494645
0
ARC
8
right_labelLayer
10
204.8588678
20
105.4693949
40
2.6596691
50
303.1869332
51
304.1720733
0
ARC
8
right_labelLayer
10
204.5109696
20
106.0717821
40
3.3544523
50
286.2542395
51
302.5279879
0
ARC
8
right_labelLayer
10
203.8774564
20
108.1614006
40
5.5379164
50
276.4939666
51
286.495375
0
ARC
8
right_labelLayer
10
203.4821755
20
111.4657232
40
8.8657638
50
269.7545107
51
276.6169524
0
ARC
8
right_labelLayer
10
203.4146703
20
108.8669438
40
6.2669726
50
262.5634678
51
270.2698797
0
ARC
8
right_labelLayer
10
203.1077256
20
106.5918808
40
3.971331
50
251.2102031
51
262.7063912
0
ARC
8
right_labelLayer
10
202.6653158
20
105.2933393
40
2.5994942
50
235.9668169
51
251.222894
0
ARC
8
right_labelLayer
10
202.1963995
20
104.6243781
40
1.7827337
50
208.9036111
51
236.4231305
0
ARC
8
right_labelLayer
10
202.2394464
20
104.6063325
40
1.8120663
50
182.2079729
51
207.7461521
0
ARC
8
right_labelLayer
10
202.7872671
20
104.6610624
40
2.3618278
50
179.9783527
51
183.022703
0
ARC
8
right_labelLayer
10
202.1355006
20
104.6919609
40
1.7103244
50
138.3916114
51
181.005256
0
ARC
8
right_labelLayer
10
202.3161138
20
104.5296431
40
1.9531545
50
113.812149
51
138.3496191
0
ARC
8
right_labelLayer
10
202.6587155
20
103.7898215
40
2.7683591
50
102.2870967
51
114.1172682
0
ARC
8
right_labelLayer
10
202.5510607
20
107.5511273
40
1.1609135
50
216.5861438
51
245.4968714
0
ARC
8
right_labelLayer
10
202.7172531
20
107.692118
40
1.3784671
50
215.4648892
51
217.1744774
0
ARC
8
right_labelLayer
10
202.4404361
20
107.4921814
40
1.0370062
50
182.1767112
51
215.3415546
0
ARC
8
right_labelLayer
10
202.6870893
20
107.5186241
40
1.2845991
50
179.9838595
51
182.9374361
0
ARC
8
right_labelLayer
10
202.6815718
20
107.5297993
40
1.2791272
50
161.7225709
51
180.4843674
0
ARC
8
right_labelLayer
10
202.5409337
20
107.5681759
40
1.1335748
50
144.4963133
51
161.3350814
0
ARC
8
right_labelLayer
10
202.9158342
20
107.2887678
40
1.6010704
50
132.7259007
51
144.1479514
0
ARC
8
right_labelLayer
10
203.5167079
20
106.6471038
40
2.4801372
50
125.2213219
51
132.8655011
0
ARC
8
right_labelLayer
10
204.1207895
20
105.8082532
40
3.5138289
50
121.235265
51
125.3794387
0
ARC
8
right_labelLayer
10
203.0498887
20
110.6240556
40
1.9609159
50
215.1640709
51
247.4747886
0
ARC
8
right_labelLayer
10
203.4159828
20
110.9194999
40
2.430546
50
212.4714124
51
215.8874752
0
ARC
8
right_labelLayer
10
203.3196706
20
110.8505995
40
2.3123091
50
183.0160759
51
212.3123206
0
ARC
8
right_labelLayer
10
203.8270933
20
110.9071566
40
2.8221619
50
179.9759451
51
183.6206858
0
ARC
8
right_labelLayer
10
204.2365134
20
110.9356367
40
3.2316971
50
166.8195881
51
180.4839325
0
ARC
8
right_labelLayer
10
203.1644272
20
111.2063151
40
2.126219
50
132.3287567
51
167.334097
0
ARC
8
right_labelLayer
10
203.3078576
20
111.0001478
40
2.3754473
50
106.2188835
51
131.5377749
0
ARC
8
right_labelLayer
10
203.6707642
20
109.8250819
40
3.6051669
50
93.6329763
51
106.5408506
0
ARC
8
right_labelLayer
10
203.7892367
20
108.4950199
40
4.9401799
50
89.938028
51
94.0267883
0
ARC
8
right_labelLayer
10
203.8084188
20
109.1477383
40
4.2874809
50
82.5851981
51
90.1849342
0
ARC
8
right_labelLayer
10
203.9394215
20
110.1613344
40
3.2654548
50
74.0089285
51
82.5694217
0
ARC
8
right_labelLayer
10
202.6268652
20
104.6601533
40
1.1234046
50
179.2207712
51
200.9355268
0
ARC
8
right_labelLayer
10
202.4932683
20
104.6292188
40
0.9877538
50
202.0286691
51
236.1457563
0
ARC
8
right_labelLayer
10
202.6946138
20
104.8848659
40
1.3124579
50
235.0633702
51
238.5040458
0
ARC
8
right_labelLayer
10
202.9286861
20
105.3029601
40
1.7913445
50
239.1066609
51
254.4862523
0
ARC
8
right_labelLayer
10
203.2407679
20
106.3790135
40
2.9116943
50
254.2324103
51
263.4937413
0
ARC
8
right_labelLayer
10
203.4368066
20
108.0394519
40
4.5836569
50
263.4108795
51
270.1457177
0
ARC
8
right_labelLayer
10
203.45754
20
109.0205567
40
5.5647544
50
269.9065513
51
270.0012974
0
ARC
8
right_labelLayer
10
203.4844751
20
110.9752066
40
7.519452
50
269.7957229
51
275.3991253
0
ARC
8
right_labelLayer
10
203.7659056
20
108.0860766
40
4.6166667
50
275.2956869
51
283.3516136
0
ARC
8
right_labelLayer
10
204.2244117
20
106.1975782
40
2.6733497
50
283.137091
51
295.8572855
0
ARC
8
right_labelLayer
10
204.5641551
20
105.4558705
40
1.8578118
50
296.4047868
51
301.8008818
0
ARC
8
right_labelLayer
10
204.6973596
20
105.2722642
40
1.631656
50
301.223101
51
318.6238291
0
ARC
8
right_labelLayer
10
204.9977963
20
104.9947401
40
1.2228074
50
319.0765346
51
1.1407118
0
ARC
8
right_labelLayer
10
204.7070212
20
105.0310715
40
1.5133876
50
359.5461417
51
10.9904114
0
ARC
8
right_labelLayer
10
205.2915985
20
105.1499718
40
0.9168794
50
10.6608977
51
30.9361802
0
ARC
8
right_labelLayer
10
205.4769456
20
105.252834
40
0.7050553
50
31.5094928
51
58.0777845
0
ARC
8
right_labelLayer
10
205.303228
20
104.9417842
40
1.0610568
50
58.9972753
51
73.8585725
0
ARC
8
right_labelLayer
10
204.9521193
20
103.7923564
40
2.2628531
50
73.4100013
51
81.5907595
0
ARC
8
right_labelLayer
10
204.6546087
20
101.8670431
40
4.2109949
50
81.4172904
51
86.5756085
0
ARC
8
right_labelLayer
10
204.4723123
20
98.9665229
40
7.1172305
50
86.5054177
51
90.1399194
0
ARC
8
right_labelLayer
10
203.0980159
20
103.5125423
40
2.5712396
50
89.6435144
51
100.0208782
0
ARC
8
right_labelLayer
10
202.9364125
20
104.3916684
40
1.6774161
50
99.8103355
51
116.8229226
0
ARC
8
right_labelLayer
10
202.7789881
20
104.7236577
40
1.3101449
50
117.2304523
51
130.5023473
0
ARC
8
right_labelLayer
10
202.6981621
20
104.8275378
40
1.1786772
50
130.7944785
51
169.0413304
0
ARC
8
right_labelLayer
10
203.2933785
20
104.6873643
40
1.7898538
50
168.2581072
51
180.3819978
0
ARC
8
right_labelLayer
10
204.2933368
20
110.9185945
40
2.1833909
50
179.5617587
51
191.6529009
0
ARC
8
right_labelLayer
10
203.5342005
20
110.754581
40
1.4067921
50
191.3555448
51
213.3660062
0
ARC
8
right_labelLayer
10
203.3518881
20
110.6493122
40
1.196697
50
213.9573776
51
227.7971477
0
ARC
8
right_labelLayer
10
203.5104999
20
110.8416828
40
1.4457958
50
228.2620575
51
254.734148
0
ARC
8
right_labelLayer
10
203.7131364
20
111.5363227
40
2.1693153
50
254.4016465
51
267.4348825
0
ARC
8
right_labelLayer
10
203.766007
20
112.2453092
40
2.8800348
50
267.0153708
51
270.0322278
0
ARC
8
right_labelLayer
10
203.8005581
20
111.8018801
40
2.4368276
50
269.2256833
51
284.3773205
0
ARC
8
right_labelLayer
10
204.132694
20
110.6447155
40
1.2339118
50
282.7796649
51
346.4828529
0
ARC
8
right_labelLayer
10
203.1396942
20
110.9259899
40
2.2655276
50
345.436208
51
0.7465766
0
ARC
8
right_labelLayer
10
203.0001089
20
110.9899037
40
2.4051663
50
359.1806333
51
15.04315
0
ARC
8
right_labelLayer
10
204.0899346
20
111.3078164
40
1.2704048
50
13.9535594
51
77.6673825
0
ARC
8
right_labelLayer
10
203.7772545
20
110.187307
40
2.4327409
50
76.1094889
51
90.7028636
0
ARC
8
right_labelLayer
10
203.7304506
20
110.272887
40
2.3470391
50
89.5859342
51
101.3334297
0
ARC
8
right_labelLayer
10
203.5627224
20
111.072871
40
1.5297103
50
101.062025
51
121.9739079
0
ARC
8
right_labelLayer
10
203.4448422
20
111.284929
40
1.2874609
50
122.5210864
51
134.9967452
0
ARC
8
right_labelLayer
10
203.4933788
20
111.2558449
40
1.3424169
50
135.5839697
51
163.0015965
0
ARC
8
right_labelLayer
10
204.2022912
20
111.0234901
40
2.0883402
50
162.5912354
51
175.7342687
0
ARC
8
right_labelLayer
10
205.0525631
20
110.9397316
40
2.9425566
50
175.3393595
51
180.0863961
0
LINE
8
right_labelLayer
10
215.0812012
20
105.915275
11
213.9626465
21
105.915275
0
LINE
8
right_labelLayer
10
213.9626465
20
105.915275
11
213.9626465
21
110.6927164
0
LINE
8
right_labelLayer
10
210.0274902
20
109.7763102
11
210.0274902
21
105.915275
0
LINE
8
right_labelLayer
10
210.0274902
20
105.915275
11
208.9089355
21
105.915275
0
LINE
8
right_labelLayer
10
208.9089355
20
105.915275
11
208.9089355
21
116.4000406
0
LINE
8
right_labelLayer
10
208.9089355
20
116.4000406
11
210.0274902
21
116.4000406
0
LINE
8
right_labelLayer
10
210.0274902
20
116.4000406
11
210.0274902
21
113.2263102
0
LINE
8
right_labelLayer
10
209.973584
20
112.2762125
11
210.0409668
21
112.2762125
0
LINE
8
right_labelLayer
10
215.0812012
20
110.7331461
11
215.0812012
21
105.915275
0
ARC
8
right_labelLayer
10
210.8008192
20
110.7108495
40
3.1618793
50
359.6714118
51
8.6877058
0
ARC
8
right_labelLayer
10
211.9726996
20
110.8967002
40
1.9753834
50
8.4931631
51
22.6579688
0
ARC
8
right_labelLayer
10
212.5681035
20
111.144131
40
1.3306151
50
22.7024306
51
42.3419879
0
ARC
8
right_labelLayer
10
212.6350269
20
111.174235
40
1.2610795
50
43.3790974
51
71.5386142
0
ARC
8
right_labelLayer
10
212.384759
20
110.4749197
40
2.0037209
50
71.0828276
51
84.3691062
0
ARC
8
right_labelLayer
10
212.2724179
20
109.5197348
40
2.9653746
50
84.0198333
51
90.1510627
0
ARC
8
right_labelLayer
10
212.2404921
20
109.1002799
40
3.3849052
50
89.591932
51
100.3595129
0
ARC
8
right_labelLayer
10
212.0008096
20
110.3598414
40
2.1027958
50
100.1067692
51
118.0847326
0
ARC
8
right_labelLayer
10
211.7570326
20
110.8381907
40
1.566039
50
118.455098
51
139.6706331
0
ARC
8
right_labelLayer
10
212.0017718
20
110.670907
40
1.8611314
50
140.6208363
51
160.5048973
0
ARC
8
right_labelLayer
10
213.291778
20
110.1933483
40
3.2366153
50
160.1566664
51
171.5313127
0
ARC
8
right_labelLayer
10
215.3791268
20
109.8626339
40
5.3499449
50
171.320259
51
178.3406504
0
ARC
8
right_labelLayer
10
217.2466362
20
109.7792031
40
7.2191466
50
178.107962
51
180.0229604
0
ARC
8
right_labelLayer
10
199.965293
20
113.2143207
40
10.0622044
50
357.8673869
51
0.0682702
0
ARC
8
right_labelLayer
10
203.3832999
20
113.0839183
40
6.6417131
50
354.982911
51
357.8942965
0
ARC
8
right_labelLayer
10
205.6409494
20
112.8873341
40
4.3755219
50
351.9713484
51
354.9618689
0
ARC
8
right_labelLayer
10
211.9356099
20
111.091047
40
2.2347908
50
119.8316008
51
147.9725798
0
ARC
8
right_labelLayer
10
212.2061841
20
110.6754042
40
2.7300982
50
116.6657561
51
120.4183617
0
ARC
8
right_labelLayer
10
212.2567457
20
110.542618
40
2.8714886
50
96.6652475
51
116.3782556
0
ARC
8
right_labelLayer
10
212.365617
20
109.7914584
40
3.6302683
50
89.8927538
51
96.995893
0
ARC
8
right_labelLayer
10
212.4004295
20
108.8836782
40
4.5381286
50
80.686303
51
90.3537338
0
ARC
8
right_labelLayer
10
212.683004
20
110.5457325
40
2.8522703
50
65.6022833
51
80.8844266
0
ARC
8
right_labelLayer
10
213.0223209
20
111.3099507
40
2.0161465
50
46.7400992
51
65.4130673
0
ARC
8
right_labelLayer
10
213.0453833
20
111.3827684
40
1.9475932
50
19.2204491
51
45.7660742
0
ARC
8
right_labelLayer
10
211.9223808
20
110.9664637
40
3.1451344
50
6.4734007
51
19.6467893
0
ARC
8
right_labelLayer
10
210.2443389
20
110.7504924
40
4.8368933
50
359.7945226
51
6.7743822
0
LINE
8
right_labelLayer
10
220.7750488
20
106.8384195
11
220.7750488
21
105.9826578
0
LINE
8
right_labelLayer
10
217.4598144
20
108.0378336
11
217.4598144
21
112.431193
0
LINE
8
right_labelLayer
10
217.4598144
20
112.431193
11
216.4019043
21
112.431193
0
LINE
8
right_labelLayer
10
216.4019043
20
112.431193
11
216.4019043
21
112.9702555
0
LINE
8
right_labelLayer
10
216.4019043
20
112.9702555
11
217.4598144
21
113.4351969
0
LINE
8
right_labelLayer
10
217.4598144
20
113.4351969
11
217.9314941
21
115.0119547
0
LINE
8
right_labelLayer
10
217.9314941
20
115.0119547
11
218.5783691
21
115.0119547
0
LINE
8
right_labelLayer
10
218.5783691
20
115.0119547
11
218.5783691
21
113.3004313
0
LINE
8
right_labelLayer
10
218.5783691
20
113.3004313
11
220.7211426
21
113.3004313
0
LINE
8
right_labelLayer
10
220.7211426
20
113.3004313
11
220.7211426
21
112.431193
0
LINE
8
right_labelLayer
10
220.7211426
20
112.431193
11
218.5783691
21
112.431193
0
LINE
8
right_labelLayer
10
218.5783691
20
112.431193
11
218.5783691
21
108.0850016
0
ARC
8
right_labelLayer
10
219.7719763
20
110.3771578
40
3.6735119
50
269.8803759
51
278.3027954
0
ARC
8
right_labelLayer
10
219.8060483
20
110.0972458
40
3.3916202
50
278.4160767
51
279.0076274
0
ARC
8
right_labelLayer
10
219.3946856
20
112.7250409
40
6.0514156
50
278.9590211
51
280.5103412
0
ARC
8
right_labelLayer
10
219.7876096
20
110.6167187
40
3.9067927
50
280.4847319
51
282.6268651
0
ARC
8
right_labelLayer
10
220.1320676
20
109.0863866
40
2.3381744
50
282.5877756
51
285.5795118
0
ARC
8
right_labelLayer
10
220.3035512
20
108.4554719
40
1.6843896
50
285.7245926
51
286.2555461
0
ARC
8
right_labelLayer
10
220.3047818
20
106.9772976
40
1.1002087
50
287.9887967
51
295.3048459
0
ARC
8
right_labelLayer
10
220.039408
20
107.780179
40
1.9458036
50
283.3069621
51
288.1197384
0
ARC
8
right_labelLayer
10
219.7590872
20
108.9494989
40
3.1482513
50
280.0069636
51
283.3734691
0
ARC
8
right_labelLayer
10
219.5717186
20
109.9661921
40
4.1820433
50
279.1862163
51
280.1145059
0
ARC
8
right_labelLayer
10
219.4563811
20
110.6223019
40
4.8481597
50
275.5260628
51
279.2939311
0
ARC
8
right_labelLayer
10
219.5861296
20
109.2671186
40
3.4867803
50
270.893251
51
275.5483568
0
ARC
8
right_labelLayer
10
219.602415
20
108.6496563
40
2.8691469
50
270.0034522
51
270.7603028
0
ARC
8
right_labelLayer
10
219.5574508
20
108.7016655
40
2.9215048
50
253.7848146
51
270.8852518
0
ARC
8
right_labelLayer
10
219.2113304
20
107.5212601
40
1.6914058
50
190.3817605
51
253.8772446
0
ARC
8
right_labelLayer
10
220.9754996
20
107.9982597
40
3.5159077
50
179.3550833
51
192.8477491
0
ARC
8
right_labelLayer
10
220.8307322
20
108.0709154
40
2.2524072
50
179.6416803
51
189.7505737
0
ARC
8
right_labelLayer
10
220.0355883
20
107.9290935
40
1.4447398
50
189.5479928
51
205.7873423
0
ARC
8
right_labelLayer
10
219.7088137
20
107.7784078
40
1.0849734
50
206.1294259
51
221.4083925
0
ARC
8
right_labelLayer
10
219.672175
20
107.7506075
40
1.0391116
50
221.5949304
51
262.350499
0
ARC
8
right_labelLayer
10
219.7593134
20
108.1987125
40
1.4950668
50
261.3266623
51
270.1913578
0
LINE
8
bottom_outsideCutPath
10
256
20
182
11
256
21
174.5
0
LINE
8
bottom_outsideCutPath
10
256
20
174.5
11
254
21
174.5
0
LINE
8
bottom_outsideCutPath
10
254
20
174.5
11
254
21
164.5
0
LINE
8
bottom_outsideCutPath
10
254
20
164.5
11
256
21
164.5
0
LINE
8
bottom_outsideCutPath
10
256
20
164.5
11
256
21
154.5
0
LINE
8
bottom_outsideCutPath
10
256
20
154.5
11
254
21
154.5
0
LINE
8
bottom_outsideCutPath
10
254
20
154.5
11
254
21
144.5
0
LINE
8
bottom_outsideCutPath
10
254
20
144.5
11
256
21
144.5
0
LINE
8
bottom_outsideCutPath
10
256
20
144.5
11
256
21
134.5
0
LINE
8
bottom_outsideCutPath
10
256
20
134.5
11
254
21
134.5
0
LINE
8
bottom_outsideCutPath
10
254
20
134.5
11
254
21
124.5
0
LINE
8
bottom_outsideCutPath
10
254
20
124.5
11
256
21
124.5
0
LINE
8
bottom_outsideCutPath
10
256
20
124.5
11
256
21
114.5
0
LINE
8
bottom_outsideCutPath
10
256
20
114.5
11
254
21
114.5
0
LINE
8
bottom_outsideCutPath
10
254
20
114.5
11
254
21
104.5
0
LINE
8
bottom_outsideCutPath
10
254
20
104.5
11
256
21
104.5
0
LINE
8
bottom_outsideCutPath
10
256
20
104.5
11
256
21
97
0
LINE
8
bottom_outsideCutPath
10
256
20
97
11
268.5
21
97
0
LINE
8
bottom_outsideCutPath
10
268.5
20
97
11
268.5
21
95
0
LINE
8
bottom_outsideCutPath
10
268.5
20
95
11
278.5
21
95
0
LINE
8
bottom_outsideCutPath
10
278.5
20
95
11
278.5
21
97
0
LINE
8
bottom_outsideCutPath
10
278.5
20
97
11
288.5
21
97
0
LINE
8
bottom_outsideCutPath
10
288.5
20
97
11
288.5
21
95
0
LINE
8
bottom_outsideCutPath
10
288.5
20
95
11
298.5
21
95
0
LINE
8
bottom_outsideCutPath
10
298.5
20
95
11
298.5
21
97
0
LINE
8
bottom_outsideCutPath
10
298.5
20
97
11
308.5
21
97
0
LINE
8
bottom_outsideCutPath
10
308.5
20
97
11
308.5
21
95
0
LINE
8
bottom_outsideCutPath
10
308.5
20
95
11
318.5
21
95
0
LINE
8
bottom_outsideCutPath
10
318.5
20
95
11
318.5
21
97
0
LINE
8
bottom_outsideCutPath
10
318.5
20
97
11
328.5
21
97
0
LINE
8
bottom_outsideCutPath
10
328.5
20
97
11
328.5
21
95
0
LINE
8
bottom_outsideCutPath
10
328.5
20
95
11
338.5
21
95
0
LINE
8
bottom_outsideCutPath
10
338.5
20
95
11
338.5
21
97
0
LINE
8
bottom_outsideCutPath
10
338.5
20
97
11
348.5
21
97
0
LINE
8
bottom_outsideCutPath
10
348.5
20
97
11
348.5
21
95
0
LINE
8
bottom_outsideCutPath
10
348.5
20
95
11
358.5
21
95
0
LINE
8
bottom_outsideCutPath
10
358.5
20
95
11
358.5
21
97
0
LINE
8
bottom_outsideCutPath
10
358.5
20
97
11
368.5
21
97
0
LINE
8
bottom_outsideCutPath
10
368.5
20
97
11
368.5
21
95
0
LINE
8
bottom_outsideCutPath
10
368.5
20
95
11
378.5
21
95
0
LINE
8
bottom_outsideCutPath
10
378.5
20
95
11
378.5
21
97
0
LINE
8
bottom_outsideCutPath
10
378.5
20
97
11
388.5
21
97
0
LINE
8
bottom_outsideCutPath
10
388.5
20
97
11
388.5
21
95
0
LINE
8
bottom_outsideCutPath
10
388.5
20
95
11
398.5
21
95
0
LINE
8
bottom_outsideCutPath
10
398.5
20
95
11
398.5
21
97
0
LINE
8
bottom_outsideCutPath
10
398.5
20
97
11
408.5
21
97
0
LINE
8
bottom_outsideCutPath
10
408.5
20
97
11
411
21
97
0
LINE
8
bottom_outsideCutPath
10
411
20
97
11
411
21
104.5
0
LINE
8
bottom_outsideCutPath
10
411
20
104.5
11
413
21
104.5
0
LINE
8
bottom_outsideCutPath
10
413
20
104.5
11
413
21
114.5
0
LINE
8
bottom_outsideCutPath
10
413
20
114.5
11
411
21
114.5
0
LINE
8
bottom_outsideCutPath
10
411
20
114.5
11
411
21
124.5
0
LINE
8
bottom_outsideCutPath
10
411
20
124.5
11
413
21
124.5
0
LINE
8
bottom_outsideCutPath
10
413
20
124.5
11
413
21
134.5
0
LINE
8
bottom_outsideCutPath
10
413
20
134.5
11
411
21
134.5
0
LINE
8
bottom_outsideCutPath
10
411
20
134.5
11
411
21
144.5
0
LINE
8
bottom_outsideCutPath
10
411
20
144.5
11
413
21
144.5
0
LINE
8
bottom_outsideCutPath
10
413
20
144.5
11
413
21
154.5
0
LINE
8
bottom_outsideCutPath
10
413
20
154.5
11
411
21
154.5
0
LINE
8
bottom_outsideCutPath
10
411
20
154.5
11
411
21
164.5
0
LINE
8
bottom_outsideCutPath
10
411
20
164.5
11
413
21
164.5
0
LINE
8
bottom_outsideCutPath
10
413
20
164.5
11
413
21
174.5
0
LINE
8
bottom_outsideCutPath
10
413
20
174.5
11
411
21
174.5
0
LINE
8
bottom_outsideCutPath
10
411
20
174.5
11
411
21
182
0
LINE
8
bottom_outsideCutPath
10
411
20
182
11
398.5
21
182
0
LINE
8
bottom_outsideCutPath
10
398.5
20
182
11
398.5
21
184
0
LINE
8
bottom_outsideCutPath
10
398.5
20
184
11
388.5
21
184
0
LINE
8
bottom_outsideCutPath
10
388.5
20
184
11
388.5
21
182
0
LINE
8
bottom_outsideCutPath
10
388.5
20
182
11
378.5
21
182
0
LINE
8
bottom_outsideCutPath
10
378.5
20
182
11
378.5
21
184
0
LINE
8
bottom_outsideCutPath
10
378.5
20
184
11
368.5
21
184
0
LINE
8
bottom_outsideCutPath
10
368.5
20
184
11
368.5
21
182
0
LINE
8
bottom_outsideCutPath
10
368.5
20
182
11
358.5
21
182
0
LINE
8
bottom_outsideCutPath
10
358.5
20
182
11
358.5
21
184
0
LINE
8
bottom_outsideCutPath
10
358.5
20
184
11
348.5
21
184
0
LINE
8
bottom_outsideCutPath
10
348.5
20
184
11
348.5
21
182
0
LINE
8
bottom_outsideCutPath
10
348.5
20
182
11
338.5
21
182
0
LINE
8
bottom_outsideCutPath
10
338.5
20
182
11
338.5
21
184
0
LINE
8
bottom_outsideCutPath
10
338.5
20
184
11
328.5
21
184
0
LINE
8
bottom_outsideCutPath
10
328.5
20
184
11
328.5
21
182
0
LINE
8
bottom_outsideCutPath
10
328.5
20
182
11
318.5
21
182
0
LINE
8
bottom_outsideCutPath
10
318.5
20
182
11
318.5
21
184
0
LINE
8
bottom_outsideCutPath
10
318.5
20
184
11
308.5
21
184
0
LINE
8
bottom_outsideCutPath
10
308.5
20
184
11
308.5
21
182
0
LINE
8
bottom_outsideCutPath
10
308.5
20
182
11
298.5
21
182
0
LINE
8
bottom_outsideCutPath
10
298.5
20
182
11
298.5
21
184
0
LINE
8
bottom_outsideCutPath
10
298.5
20
184
11
288.5
21
184
0
LINE
8
bottom_outsideCutPath
10
288.5
20
184
11
288.5
21
182
0
LINE
8
bottom_outsideCutPath
10
288.5
20
182
11
278.5
21
182
0
LINE
8
bottom_outsideCutPath
10
278.5
20
182
11
278.5
21
184
0
LINE
8
bottom_outsideCutPath
10
278.5
20
184
11
268.5
21
184
0
LINE
8
bottom_outsideCutPath
10
268.5
20
184
11
268.5
21
182
0
LINE
8
bottom_outsideCutPath
10
268.5
20
182
11
258.5
21
182
0
LINE
8
bottom_outsideCutPath
10
258.5
20
182
11
256
21
182
0
LINE
8
bottom_labelLayer
10
305.6613837
20
134.0507132
11
305.5570868
21
134.0507132
0
LINE
8
bottom_labelLayer
10
305.5570868
20
134.0507132
11
305.2528876
21
132.8252249
0
LINE
8
bottom_labelLayer
10
305.2528876
20
132.8252249
11
304.2186103
21
132.8252249
0
LINE
8
bottom_labelLayer
10
304.2186103
20
132.8252249
11
304.2186103
21
146.349053
0
LINE
8
bottom_labelLayer
10
304.2186103
20
146.349053
11
305.6613837
21
146.349053
0
LINE
8
bottom_labelLayer
10
305.6613837
20
146.349053
11
305.6613837
21
143.0637015
0
LINE
8
bottom_labelLayer
10
305.5918524
20
141.0820608
11
305.6613837
21
141.0820608
0
ARC
8
bottom_labelLayer
10
308.6945081
20
138.0980443
40
4.4096196
50
74.2393351
51
90.5623697
0
ARC
8
bottom_labelLayer
10
308.9860874
20
139.167716
40
3.3009788
50
38.5631364
51
74.0670384
0
ARC
8
bottom_labelLayer
10
308.235722
20
138.5842646
40
4.2514313
50
16.4709336
51
38.4075202
0
ARC
8
bottom_labelLayer
10
306.0740234
20
137.9064214
40
6.5167156
50
5.1338614
51
16.7973253
0
ARC
8
bottom_labelLayer
10
303.3451388
20
137.6165391
40
9.2606995
50
359.8779171
51
5.4093738
0
ARC
8
bottom_labelLayer
10
304.1466471
20
137.5468981
40
8.4593175
50
350.6562891
51
0.3380393
0
ARC
8
bottom_labelLayer
10
307.0957041
20
137.0452967
40
5.4679734
50
335.830597
51
350.8254867
0
ARC
8
bottom_labelLayer
10
308.3929442
20
136.485389
40
4.0552554
50
321.316139
51
335.5436247
0
ARC
8
bottom_labelLayer
10
308.8888829
20
136.0812735
40
3.4155453
50
274.0640013
51
321.408103
0
ARC
8
bottom_labelLayer
10
308.657838
20
137.5448071
40
4.8934149
50
269.9225989
51
275.5481612
0
ARC
8
bottom_labelLayer
10
308.626897
20
137.0275754
40
4.3762463
50
255.7755459
51
270.3185468
0
ARC
8
bottom_labelLayer
10
308.5020132
20
136.4727215
40
3.8077479
50
245.9801504
51
255.5455585
0
ARC
8
bottom_labelLayer
10
308.2601192
20
135.9101971
40
3.1954821
50
215.5850124
51
245.8361653
0
ARC
8
bottom_labelLayer
10
275.5803994
20
143.038277
40
30.080995
50
358.1123285
51
0.0484264
0
ARC
8
bottom_labelLayer
10
283.9525236
20
142.757208
40
21.7041563
50
355.7238692
51
358.1258912
0
ARC
8
bottom_labelLayer
10
287.6779434
20
142.5009628
40
17.9700144
50
355.4712441
51
355.6529343
0
ARC
8
bottom_labelLayer
10
308.3520934
20
139.2057563
40
3.2803106
50
95.1835152
51
145.1108954
0
ARC
8
bottom_labelLayer
10
308.6404184
20
137.579861
40
4.9276022
50
89.8743178
51
96.8145258
0
ARC
8
bottom_labelLayer
10
308.4124285
20
137.2451364
40
4.0543221
50
89.5731356
51
100.732406
0
ARC
8
bottom_labelLayer
10
308.112296
20
138.7615171
40
2.5086061
50
100.4469419
51
119.6700783
0
ARC
8
bottom_labelLayer
10
307.8339813
20
139.2818576
40
1.9187848
50
120.1402748
51
142.4249087
0
ARC
8
bottom_labelLayer
10
308.2944278
20
138.9772568
40
2.4697734
50
143.3382313
51
161.2560018
0
ARC
8
bottom_labelLayer
10
310.2199264
20
138.2936393
40
4.5129156
50
160.8926308
51
171.2334297
0
ARC
8
bottom_labelLayer
10
313.4343644
20
137.7750768
40
7.7688673
50
171.0667946
51
177.8456694
0
ARC
8
bottom_labelLayer
10
316.7772763
20
137.6050545
40
11.1158958
50
177.6176501
51
180.0425114
0
ARC
8
bottom_labelLayer
10
315.2008145
20
137.5595568
40
9.5395036
50
179.7762692
51
185.7075251
0
ARC
8
bottom_labelLayer
10
311.4397418
20
137.172034
40
5.7585486
50
185.592493
51
194.2050547
0
ARC
8
bottom_labelLayer
10
309.0304169
20
136.5467324
40
3.2694814
50
193.9430474
51
208.0218306
0
ARC
8
bottom_labelLayer
10
308.0556131
20
136.0508257
40
2.1760681
50
208.5536951
51
217.5605009
0
ARC
8
bottom_labelLayer
10
307.9761775
20
136.017783
40
2.093074
50
218.1690521
51
253.8047071
0
ARC
8
bottom_labelLayer
10
308.3644029
20
137.2147279
40
3.3510275
50
253.1382689
51
266.8482972
0
ARC
8
bottom_labelLayer
10
308.4732629
20
138.4985172
40
4.6390167
50
266.3775666
51
270.0510882
0
ARC
8
bottom_labelLayer
10
308.5081765
20
136.7354895
40
2.8761519
50
269.3868761
51
285.8630675
0
ARC
8
bottom_labelLayer
10
308.7218562
20
135.9632229
40
2.0748954
50
286.0162824
51
326.8497311
0
ARC
8
bottom_labelLayer
10
307.6905274
20
136.6464417
40
3.3119831
50
326.7104857
51
343.6661747
0
ARC
8
bottom_labelLayer
10
305.7599217
20
137.2363711
40
5.3306264
50
343.4171445
51
353.6368995
0
ARC
8
bottom_labelLayer
10
302.8439788
20
137.5823665
40
8.2669777
50
353.4934817
51
0.220557
0
ARC
8
bottom_labelLayer
10
302.5869373
20
137.6486945
40
8.524028
50
359.7680691
51
6.3095148
0
ARC
8
bottom_labelLayer
10
305.7977529
20
138.0171537
40
5.2921844
50
6.1648657
51
16.0396243
0
ARC
8
bottom_labelLayer
10
307.8661232
20
138.6266999
40
3.1359477
50
15.7779495
51
32.0151105
0
ARC
8
bottom_labelLayer
10
308.5110505
20
138.9960173
40
2.3934902
50
32.7035001
51
35.5242358
0
ARC
8
bottom_labelLayer
10
308.7470159
20
139.1637311
40
2.1039956
50
35.5408438
51
79.8011288
0
ARC
8
bottom_labelLayer
10
308.4644714
20
137.9625867
40
3.3368307
50
78.6781098
51
90.3749719
0
ARC
8
bottom_labelLayer
10
315.8960447
20
137.5465656
40
7.4525201
50
349.1761983
51
0.3862638
0
ARC
8
bottom_labelLayer
10
318.4051321
20
137.0463758
40
4.894182
50
330.2507108
51
349.411639
0
ARC
8
bottom_labelLayer
10
319.1773061
20
136.6450301
40
4.0247763
50
318.1439741
51
329.7566262
0
ARC
8
bottom_labelLayer
10
319.316671
20
136.5333427
40
3.8464618
50
278.8959124
51
317.9979162
0
ARC
8
bottom_labelLayer
10
318.9575783
20
138.2537808
40
5.6024373
50
269.7502858
51
279.8033331
0
ARC
8
bottom_labelLayer
10
318.8993404
20
137.2844216
40
4.6331483
50
253.5436872
51
270.4182465
0
ARC
8
bottom_labelLayer
10
318.7451151
20
136.6878375
40
4.0173686
50
238.8115758
51
253.2428261
0
ARC
8
bottom_labelLayer
10
318.6953371
20
136.5877326
40
3.905965
50
207.7947015
51
238.6757967
0
ARC
8
bottom_labelLayer
10
319.4095496
20
137.0251554
40
4.7420534
50
205.6560082
51
208.4461312
0
ARC
8
bottom_labelLayer
10
319.9597058
20
137.2543891
40
5.3373136
50
188.9102467
51
205.3171466
0
ARC
8
bottom_labelLayer
10
321.8137228
20
137.5683979
40
7.2176294
50
179.7744797
51
189.0932735
0
ARC
8
bottom_labelLayer
10
322.0871973
20
137.6475463
40
7.4912198
50
169.2442972
51
180.3880774
0
ARC
8
bottom_labelLayer
10
319.5432377
20
138.1503947
40
4.8981483
50
150.7111491
51
169.4695431
0
ARC
8
bottom_labelLayer
10
318.7311228
20
138.5674467
40
3.9859646
50
138.1759408
51
150.228753
0
ARC
8
bottom_labelLayer
10
318.5960379
20
138.6711086
40
3.816195
50
99.1759331
51
137.983278
0
ARC
8
bottom_labelLayer
10
318.9678535
20
136.9213027
40
5.6035926
50
89.732646
51
100.0759806
0
ARC
8
bottom_labelLayer
10
319.0421651
20
137.6769888
40
4.8480847
50
73.5222743
51
90.5692254
0
ARC
8
bottom_labelLayer
10
319.326476
20
138.709967
40
3.7769431
50
41.1445691
51
73.213379
0
ARC
8
bottom_labelLayer
10
318.7837484
20
138.2435002
40
4.492566
50
13.5014408
51
41.0703426
0
ARC
8
bottom_labelLayer
10
316.6869308
20
137.6947904
40
6.6596885
50
1.1277204
51
13.8800096
0
ARC
8
bottom_labelLayer
10
314.8802483
20
137.5979967
40
8.4681472
50
359.99195
51
1.5419228
0
ARC
8
bottom_labelLayer
10
323.3971714
20
137.5593137
40
7.3061964
50
179.7059737
51
187.9160667
0
ARC
8
bottom_labelLayer
10
320.7174752
20
137.1743799
40
4.5990376
50
187.76393
51
200.0976863
0
ARC
8
bottom_labelLayer
10
319.2412477
20
136.6334875
40
3.026838
50
200.084576
51
216.9131591
0
ARC
8
bottom_labelLayer
10
318.7021845
20
136.2485717
40
2.3647039
50
217.3009622
51
261.7099079
0
ARC
8
bottom_labelLayer
10
318.9524379
20
137.4427508
40
3.5832822
50
260.5033025
51
270.247662
0
ARC
8
bottom_labelLayer
10
319.0002021
20
137.2105393
40
3.3511925
50
269.4481745
51
284.7255788
0
ARC
8
bottom_labelLayer
10
319.2654972
20
136.2266485
40
2.3321921
50
284.5662245
51
322.6333851
0
ARC
8
bottom_labelLayer
10
318.6452304
20
136.6747648
40
3.0971945
50
323.0089094
51
342.6390664
0
ARC
8
bottom_labelLayer
10
316.8711121
20
137.2545979
40
4.9635658
50
342.3615767
51
353.753754
0
ARC
8
bottom_labelLayer
10
314.2537113
20
137.5700923
40
7.5998093
50
353.5362985
51
0.2014052
0
ARC
8
bottom_labelLayer
10
314.6547139
20
137.633548
40
7.1988534
50
359.7075758
51
7.8972535
0
ARC
8
bottom_labelLayer
10
317.291146
20
138.0115031
40
4.5355113
50
7.7439868
51
20.0690016
0
ARC
8
bottom_labelLayer
10
318.7602599
20
138.5506107
40
2.9706071
50
20.0257153
51
37.4350383
0
ARC
8
bottom_labelLayer
10
319.2477032
20
138.8964923
40
2.3734066
50
37.9577677
51
80.4006187
0
ARC
8
bottom_labelLayer
10
318.9707059
20
137.6605497
40
3.6388521
50
79.3453649
51
90.3174644
0
ARC
8
bottom_labelLayer
10
318.9194173
20
137.865851
40
3.4336361
50
89.4805966
51
103.8804931
0
ARC
8
bottom_labelLayer
10
318.6309037
20
138.9645132
40
2.2979024
50
103.4685257
51
142.3118816
0
ARC
8
bottom_labelLayer
10
319.1917987
20
138.5700527
40
2.9830838
50
142.9025804
51
162.3749581
0
ARC
8
bottom_labelLayer
10
320.9591838
20
137.9810773
40
4.8459097
50
162.0653265
51
173.1674779
0
ARC
8
bottom_labelLayer
10
323.7149688
20
137.6295932
40
7.623968
50
173.0086142
51
180.2463966
0
LINE
8
bottom_labelLayer
10
330.2580634
20
134.0159475
11
330.2580634
21
132.912139
0
LINE
8
bottom_labelLayer
10
325.9818915
20
135.5630179
11
325.9818915
21
141.2298147
0
LINE
8
bottom_labelLayer
10
325.9818915
20
141.2298147
11
324.6173407
21
141.2298147
0
LINE
8
bottom_labelLayer
10
324.6173407
20
141.2298147
11
324.6173407
21
141.9251272
0
LINE
8
bottom_labelLayer
10
324.6173407
20
141.9251272
11
325.9818915
21
142.5248343
0
LINE
8
bottom_labelLayer
10
325.9818915
20
142.5248343
11
326.5902899
21
144.5586233
0
LINE
8
bottom_labelLayer
10
326.5902899
20
144.5586233
11
327.4246649
21
144.5586233
0
LINE
8
bottom_labelLayer
10
327.4246649
20
144.5586233
11
327.4246649
21
142.3510061
0
LINE
8
bottom_labelLayer
10
327.4246649
20
142.3510061
11
330.1885321
21
142.3510061
0
LINE
8
bottom_labelLayer
10
330.1885321
20
142.3510061
11
330.1885321
21
141.2298147
0
LINE
8
bottom_labelLayer
10
330.1885321
20
141.2298147
11
327.4246649
21
141.2298147
0
LINE
8
bottom_labelLayer
10
327.4246649
20
141.2298147
11
327.4246649
21
135.6238577
0
ARC
8
bottom_labelLayer
10
328.9642481
20
138.580366
40
4.7382569
50
269.8803397
51
278.3028324
0
ARC
8
bottom_labelLayer
10
329.0097222
20
138.2093561
40
4.3645774
50
278.4154437
51
279.0083662
0
ARC
8
bottom_labelLayer
10
328.4777154
20
141.608075
40
7.8046786
50
278.9590173
51
280.5104905
0
ARC
8
bottom_labelLayer
10
328.9843424
20
138.8897445
40
5.0395417
50
280.4847863
51
282.6267727
0
ARC
8
bottom_labelLayer
10
329.4286968
20
136.9155685
40
3.0159767
50
282.5877495
51
285.5794157
0
ARC
8
bottom_labelLayer
10
329.6524989
20
136.0926237
40
2.1631672
50
285.7235566
51
286.2568299
0
ARC
8
bottom_labelLayer
10
329.6514881
20
134.1950775
40
1.4191071
50
287.9887914
51
295.3048546
0
ARC
8
bottom_labelLayer
10
329.3092034
20
135.2306375
40
2.5097604
50
283.3069651
51
288.1198266
0
ARC
8
bottom_labelLayer
10
328.9476538
20
136.7387568
40
4.0606078
50
280.0069308
51
283.3735858
0
ARC
8
bottom_labelLayer
10
328.7057058
20
138.0517364
40
5.3956648
50
279.18629
51
280.1143327
0
ARC
8
bottom_labelLayer
10
328.5571907
20
138.8964914
40
6.2533061
50
275.5260052
51
279.293944
0
ARC
8
bottom_labelLayer
10
328.7245258
20
137.1486422
40
4.4974664
50
270.8932972
51
275.5483771
0
ARC
8
bottom_labelLayer
10
328.7455705
20
136.3471817
40
3.695785
50
270.0029174
51
270.7607917
0
ARC
8
bottom_labelLayer
10
328.6875384
20
136.4192599
40
3.768313
50
253.7847945
51
270.8852535
0
ARC
8
bottom_labelLayer
10
328.2410932
20
134.896713
40
2.1816683
50
190.3817615
51
253.8772461
0
ARC
8
bottom_labelLayer
10
330.5166073
20
135.5119734
40
4.5350031
50
179.3550845
51
192.8477754
0
ARC
8
bottom_labelLayer
10
330.3298839
20
135.6056885
40
2.9052757
50
179.6416771
51
189.750581
0
ARC
8
bottom_labelLayer
10
329.3042545
20
135.422755
40
1.8634925
50
189.547938
51
205.7873968
0
ARC
8
bottom_labelLayer
10
328.8827792
20
135.2283993
40
1.3994639
50
206.1294605
51
221.4083667
0
ARC
8
bottom_labelLayer
10
328.8355152
20
135.1925361
40
1.3403015
50
221.5949018
51
262.3505275
0
ARC
8
bottom_labelLayer
10
328.9479122
20
135.7705088
40
1.9284001
50
261.3265651
51
270.1913502
0
LINE
8
bottom_labelLayer
10
336.5419501
20
134.0159475
11
336.5419501
21
132.912139
0
LINE
8
bottom_labelLayer
10
332.2657782
20
135.5630179
11
332.2657782
21
141.2298147
0
LINE
8
bottom_labelLayer
10
332.2657782
20
141.2298147
11
330.9012274
21
141.2298147
0
LINE
8
bottom_labelLayer
10
330.9012274
20
141.2298147
11
330.9012274
21
141.9251272
0
LINE
8
bottom_labelLayer
10
330.9012274
20
141.9251272
11
332.2657782
21
142.5248343
0
LINE
8
bottom_labelLayer
10
332.2657782
20
142.5248343
11
332.8741767
21
144.5586233
0
LINE
8
bottom_labelLayer
10
332.8741767
20
144.5586233
11
333.7085517
21
144.5586233
0
LINE
8
bottom_labelLayer
10
333.7085517
20
144.5586233
11
333.7085517
21
142.3510061
0
LINE
8
bottom_labelLayer
10
333.7085517
20
142.3510061
11
336.4724189
21
142.3510061
0
LINE
8
bottom_labelLayer
10
336.4724189
20
142.3510061
11
336.4724189
21
141.2298147
0
LINE
8
bottom_labelLayer
10
336.4724189
20
141.2298147
11
333.7085517
21
141.2298147
0
LINE
8
bottom_labelLayer
10
333.7085517
20
141.2298147
11
333.7085517
21
135.6238577
0
ARC
8
bottom_labelLayer
10
335.2481348
20
138.580366
40
4.7382569
50
269.8803397
51
278.3028324
0
ARC
8
bottom_labelLayer
10
335.2936089
20
138.2093561
40
4.3645774
50
278.4154437
51
279.0083662
0
ARC
8
bottom_labelLayer
10
334.7616021
20
141.608075
40
7.8046786
50
278.9590173
51
280.5104905
0
ARC
8
bottom_labelLayer
10
335.2682291
20
138.8897445
40
5.0395417
50
280.4847863
51
282.6267727
0
ARC
8
bottom_labelLayer
10
335.7125835
20
136.9155685
40
3.0159767
50
282.5877495
51
285.5794157
0
ARC
8
bottom_labelLayer
10
335.9363856
20
136.0926237
40
2.1631672
50
285.7235566
51
286.2568299
0
ARC
8
bottom_labelLayer
10
335.9353748
20
134.1950775
40
1.4191071
50
287.9887914
51
295.3048546
0
ARC
8
bottom_labelLayer
10
335.5930901
20
135.2306375
40
2.5097604
50
283.3069651
51
288.1198266
0
ARC
8
bottom_labelLayer
10
335.2315405
20
136.7387568
40
4.0606078
50
280.0069308
51
283.3735858
0
ARC
8
bottom_labelLayer
10
334.9895925
20
138.0517364
40
5.3956648
50
279.18629
51
280.1143327
0
ARC
8
bottom_labelLayer
10
334.8410774
20
138.8964914
40
6.2533061
50
275.5260052
51
279.293944
0
ARC
8
bottom_labelLayer
10
335.0084125
20
137.1486422
40
4.4974664
50
270.8932972
51
275.5483771
0
ARC
8
bottom_labelLayer
10
335.0294572
20
136.3471817
40
3.695785
50
270.0029174
51
270.7607917
0
ARC
8
bottom_labelLayer
10
334.9714251
20
136.4192599
40
3.768313
50
253.7847945
51
270.8852535
0
ARC
8
bottom_labelLayer
10
334.5249799
20
134.896713
40
2.1816683
50
190.3817615
51
253.8772461
0
ARC
8
bottom_labelLayer
10
336.800494
20
135.5119734
40
4.5350031
50
179.3550845
51
192.8477754
0
ARC
8
bottom_labelLayer
10
336.6137706
20
135.6056885
40
2.9052757
50
179.6416771
51
189.750581
0
ARC
8
bottom_labelLayer
10
335.5881412
20
135.422755
40
1.8634925
50
189.547938
51
205.7873968
0
ARC
8
bottom_labelLayer
10
335.1666659
20
135.2283993
40
1.3994639
50
206.1294605
51
221.4083667
0
ARC
8
bottom_labelLayer
10
335.1194019
20
135.1925361
40
1.3403015
50
221.5949018
51
262.3505275
0
ARC
8
bottom_labelLayer
10
335.2317989
20
135.7705088
40
1.9284001
50
261.3265651
51
270.1913502
0
ARC
8
bottom_labelLayer
10
339.2150876
20
137.5465656
40
7.4525201
50
349.1761983
51
0.3862638
0
ARC
8
bottom_labelLayer
10
341.7241751
20
137.0463758
40
4.894182
50
330.2507108
51
349.411639
0
ARC
8
bottom_labelLayer
10
342.4963491
20
136.6450301
40
4.0247763
50
318.1439741
51
329.7566262
0
ARC
8
bottom_labelLayer
10
342.6357139
20
136.5333427
40
3.8464618
50
278.8959124
51
317.9979162
0
ARC
8
bottom_labelLayer
10
342.2766212
20
138.2537808
40
5.6024373
50
269.7502858
51
279.8033331
0
ARC
8
bottom_labelLayer
10
342.2183834
20
137.2844216
40
4.6331483
50
253.5436872
51
270.4182465
0
ARC
8
bottom_labelLayer
10
342.064158
20
136.6878375
40
4.0173686
50
238.8115758
51
253.2428261
0
ARC
8
bottom_labelLayer
10
342.0143801
20
136.5877326
40
3.905965
50
207.7947015
51
238.6757967
0
ARC
8
bottom_labelLayer
10
342.7285925
20
137.0251554
40
4.7420534
50
205.6560082
51
208.4461312
0
ARC
8
bottom_labelLayer
10
343.2787487
20
137.2543891
40
5.3373136
50
188.9102467
51
205.3171466
0
ARC
8
bottom_labelLayer
10
345.1327658
20
137.5683979
40
7.2176294
50
179.7744797
51
189.0932735
0
ARC
8
bottom_labelLayer
10
345.4062403
20
137.6475463
40
7.4912198
50
169.2442972
51
180.3880774
0
ARC
8
bottom_labelLayer
10
342.8622807
20
138.1503947
40
4.8981483
50
150.7111491
51
169.4695431
0
ARC
8
bottom_labelLayer
10
342.0501658
20
138.5674467
40
3.9859646
50
138.1759408
51
150.228753
0
ARC
8
bottom_labelLayer
10
341.9150809
20
138.6711086
40
3.816195
50
99.1759331
51
137.983278
0
ARC
8
bottom_labelLayer
10
342.2868964
20
136.9213027
40
5.6035926
50
89.732646
51
100.0759806
0
ARC
8
bottom_labelLayer
10
342.3612081
20
137.6769888
40
4.8480847
50
73.5222743
51
90.5692254
0
ARC
8
bottom_labelLayer
10
342.645519
20
138.709967
40
3.7769431
50
41.1445691
51
73.213379
0
ARC
8
bottom_labelLayer
10
342.1027913
20
138.2435002
40
4.492566
50
13.5014408
51
41.0703426
0
ARC
8
bottom_labelLayer
10
340.0059737
20
137.6947904
40
6.6596885
50
1.1277204
51
13.8800096
0
ARC
8
bottom_labelLayer
10
338.1992913
20
137.5979967
40
8.4681472
50
359.99195
51
1.5419228
0
ARC
8
bottom_labelLayer
10
346.7162143
20
137.5593137
40
7.3061964
50
179.7059737
51
187.9160667
0
ARC
8
bottom_labelLayer
10
344.0365182
20
137.1743799
40
4.5990376
50
187.76393
51
200.0976863
0
ARC
8
bottom_labelLayer
10
342.5602907
20
136.6334875
40
3.026838
50
200.084576
51
216.9131591
0
ARC
8
bottom_labelLayer
10
342.0212275
20
136.2485717
40
2.3647039
50
217.3009622
51
261.7099079
0
ARC
8
bottom_labelLayer
10
342.2714809
20
137.4427508
40
3.5832822
50
260.5033025
51
270.247662
0
ARC
8
bottom_labelLayer
10
342.319245
20
137.2105393
40
3.3511925
50
269.4481745
51
284.7255788
0
ARC
8
bottom_labelLayer
10
342.5845402
20
136.2266485
40
2.3321921
50
284.5662245
51
322.6333851
0
ARC
8
bottom_labelLayer
10
341.9642734
20
136.6747648
40
3.0971945
50
323.0089094
51
342.6390664
0
ARC
8
bottom_labelLayer
10
340.190155
20
137.2545979
40
4.9635658
50
342.3615767
51
353.753754
0
ARC
8
bottom_labelLayer
10
337.5727543
20
137.5700923
40
7.5998093
50
353.5362985
51
0.2014052
0
ARC
8
bottom_labelLayer
10
337.9737568
20
137.633548
40
7.1988534
50
359.7075758
51
7.8972535
0
ARC
8
bottom_labelLayer
10
340.610189
20
138.0115031
40
4.5355113
50
7.7439868
51
20.0690016
0
ARC
8
bottom_labelLayer
10
342.0793028
20
138.5506107
40
2.9706071
50
20.0257153
51
37.4350383
0
ARC
8
bottom_labelLayer
10
342.5667462
20
138.8964923
40
2.3734066
50
37.9577677
51
80.4006187
0
ARC
8
bottom_labelLayer
10
342.2897489
20
137.6605497
40
3.6388521
50
79.3453649
51
90.3174644
0
ARC
8
bottom_labelLayer
10
342.2384603
20
137.865851
40
3.4336361
50
89.4805966
51
103.8804931
0
ARC
8
bottom_labelLayer
10
341.9499466
20
138.9645132
40
2.2979024
50
103.4685257
51
142.3118816
0
ARC
8
bottom_labelLayer
10
342.5108416
20
138.5700527
40
2.9830838
50
142.9025804
51
162.3749581
0
ARC
8
bottom_labelLayer
10
344.2782268
20
137.9810773
40
4.8459097
50
162.0653265
51
173.1674779
0
ARC
8
bottom_labelLayer
10
347.0340118
20
137.6295932
40
7.623968
50
173.0086142
51
180.2463966
0
LINE
8
bottom_labelLayer
10
362.7813056
20
132.8252249
11
361.3385321
21
132.8252249
0
LINE
8
bottom_labelLayer
10
361.3385321
20
132.8252249
11
361.3385321
21
139.0221975
0
LINE
8
bottom_labelLayer
10
356.7060126
20
138.1443655
11
356.7060126
21
132.8252249
0
LINE
8
bottom_labelLayer
10
356.7060126
20
132.8252249
11
355.2632392
21
132.8252249
0
LINE
8
bottom_labelLayer
10
355.2632392
20
132.8252249
11
355.2632392
21
139.0221975
0
LINE
8
bottom_labelLayer
10
350.639411
20
137.8227835
11
350.639411
21
132.8252249
0
LINE
8
bottom_labelLayer
10
350.639411
20
132.8252249
11
349.1966376
21
132.8252249
0
LINE
8
bottom_labelLayer
10
349.1966376
20
132.8252249
11
349.1966376
21
142.3510061
0
LINE
8
bottom_labelLayer
10
349.1966376
20
142.3510061
11
350.3699774
21
142.3510061
0
LINE
8
bottom_labelLayer
10
350.3699774
20
142.3510061
11
350.6046454
21
141.0472952
0
LINE
8
bottom_labelLayer
10
350.6046454
20
141.0472952
11
350.6741767
21
141.0472952
0
LINE
8
bottom_labelLayer
10
356.4105048
20
140.9082327
11
356.480036
21
140.9082327
0
LINE
8
bottom_labelLayer
10
362.7813056
20
139.0395804
11
362.7813056
21
132.8252249
0
ARC
8
bottom_labelLayer
10
357.0822937
20
139.0448674
40
4.2562989
50
359.694831
51
8.1471425
0
ARC
8
bottom_labelLayer
10
358.650028
20
139.2768737
40
2.6715186
50
7.9864588
51
20.7949756
0
ARC
8
bottom_labelLayer
10
359.5166215
20
139.6088347
40
1.7435254
50
20.7071138
51
40.0217783
0
ARC
8
bottom_labelLayer
10
359.7067307
20
139.7332211
40
1.5181897
50
41.0408017
51
73.1792482
0
ARC
8
bottom_labelLayer
10
359.4316418
20
138.9012106
40
2.3943133
50
72.6395438
51
86.2568135
0
ARC
8
bottom_labelLayer
10
359.343517
20
137.9502949
40
3.3490534
50
85.8144504
51
90.0685742
0
ARC
8
bottom_labelLayer
10
359.3111367
20
137.5869724
40
3.712482
50
89.5621231
51
101.2961625
0
ARC
8
bottom_labelLayer
10
359.0315233
20
138.9255765
40
2.3450693
50
101.0032089
51
121.7840643
0
ARC
8
bottom_labelLayer
10
358.8189525
20
139.3050764
40
1.9106108
50
122.3597416
51
140.2883952
0
ARC
8
bottom_labelLayer
10
359.2013923
20
139.024659
40
2.3841475
50
140.9765188
51
161.1699644
0
ARC
8
bottom_labelLayer
10
360.6421608
20
138.5119226
40
3.9133507
50
160.8731942
51
172.5272341
0
ARC
8
bottom_labelLayer
10
363.0496382
20
138.1794336
40
6.3436444
50
172.3776567
51
180.18294
0
ARC
8
bottom_labelLayer
10
364.7641502
20
138.1443743
40
8.0581375
50
179.894734
51
180.0000626
0
ARC
8
bottom_labelLayer
10
351.0070007
20
139.0448674
40
4.2562989
50
359.694831
51
8.1471425
0
ARC
8
bottom_labelLayer
10
352.574735
20
139.2768737
40
2.6715186
50
7.9864588
51
20.7949756
0
ARC
8
bottom_labelLayer
10
353.4413285
20
139.6088347
40
1.7435254
50
20.7071138
51
40.0217783
0
ARC
8
bottom_labelLayer
10
353.6353912
20
139.735953
40
1.5134142
50
41.0610698
51
72.8993576
0
ARC
8
bottom_labelLayer
10
353.3550887
20
138.9014605
40
2.3935428
50
72.3601091
51
85.9561585
0
ARC
8
bottom_labelLayer
10
353.2602058
20
137.9208746
40
3.3784746
50
85.5237667
51
90.0793934
0
ARC
8
bottom_labelLayer
10
353.2278384
20
137.7160171
40
3.5834358
50
89.5573236
51
101.4832127
0
ARC
8
bottom_labelLayer
10
352.9527963
20
139.0046492
40
2.2658799
50
101.1546226
51
123.0655885
0
ARC
8
bottom_labelLayer
10
352.7658433
20
139.330314
40
1.8910731
50
123.7020735
51
142.302174
0
ARC
8
bottom_labelLayer
10
353.2037759
20
139.0332163
40
2.4194813
50
143.0769658
51
161.3913851
0
ARC
8
bottom_labelLayer
10
354.9690809
20
138.4097518
40
4.2915339
50
161.0234591
51
171.446913
0
ARC
8
bottom_labelLayer
10
357.8915415
20
137.9519603
40
7.2496003
50
171.3042177
51
178.3501366
0
ARC
8
bottom_labelLayer
10
360.6843933
20
137.8272284
40
10.0449831
50
178.097625
51
180.0253532
0
ARC
8
bottom_labelLayer
10
353.1184295
20
139.609954
40
2.8355461
50
117.12095
51
149.5423724
0
ARC
8
bottom_labelLayer
10
353.4078218
20
139.0955965
40
3.4253512
50
93.8343292
51
117.5072149
0
ARC
8
bottom_labelLayer
10
353.4877489
20
138.3876649
40
4.13717
50
89.9661617
51
94.2831479
0
ARC
8
bottom_labelLayer
10
353.5356426
20
137.8014091
40
4.7236438
50
77.5572102
51
90.5513007
0
ARC
8
bottom_labelLayer
10
353.9739458
20
139.686627
40
2.7883532
50
52.7026938
51
78.0053799
0
ARC
8
bottom_labelLayer
10
354.1301041
20
139.9771635
40
2.4631519
50
22.2097977
51
51.4970566
0
ARC
8
bottom_labelLayer
10
359.0936833
20
139.4103452
40
3.012444
50
119.4041738
51
150.1828747
0
ARC
8
bottom_labelLayer
10
359.4275359
20
138.9027243
40
3.6188224
50
118.2582755
51
120.0631436
0
ARC
8
bottom_labelLayer
10
359.426827
20
138.8651439
40
3.6516348
50
95.8635231
51
117.9693066
0
ARC
8
bottom_labelLayer
10
359.5504134
20
137.9714936
40
4.5533451
50
89.9197133
51
96.2617249
0
ARC
8
bottom_labelLayer
10
359.5900879
20
137.5097777
40
5.015167
50
79.9361164
51
90.3803709
0
ARC
8
bottom_labelLayer
10
359.9242561
20
139.3196012
40
3.1748214
50
62.972317
51
80.1665208
0
ARC
8
bottom_labelLayer
10
360.2735826
20
140.0362841
40
2.3777125
50
44.2290055
51
62.6229031
0
ARC
8
bottom_labelLayer
10
360.1696834
20
139.9903861
40
2.4844927
50
19.5612023
51
43.3161049
0
ARC
8
bottom_labelLayer
10
358.6607577
20
139.4236301
40
4.0961891
50
7.5041673
51
19.9645586
0
ARC
8
bottom_labelLayer
10
356.1638597
20
139.0729907
40
6.61753
50
359.710726
51
7.6907142
0
ENDSEC
0
EOF